<svg preserveAspectRatio="none" width="100%" height="100%" overflow="visible" style="display: block;" viewBox="0 0 658.982 854.582" fill="none" xmlns="http://www.w3.org/2000/svg">
<g id="Frame 328">
<path id="Union" d="M612 780.838C612 791.884 603.046 800.838 592 800.838H20C8.9543 800.838 0 791.884 0 780.838V40.8379C0 29.7922 8.95431 20.8379 20 20.8379H592C603.046 20.8379 612 29.7922 612 40.8379V780.838Z" fill="var(--fill-0, #A43FA7)"/>
<rect id="Rectangle 34626610" x="331.436" y="2.38867" width="348.587" height="780" rx="10" transform="rotate(20.0087 331.436 2.38867)" fill="var(--fill-0, #EFEDED)"/>
<rect id="Rectangle 34626609" x="236.334" width="384" height="780" rx="10" transform="rotate(10.3908 236.334 0)" fill="var(--fill-0, white)"/>
<path id="Union_2" d="M527 780.838C527 791.884 518.046 800.838 507 800.838H20C8.95429 800.838 0 791.884 0 780.838V40.8379C0 29.7922 8.95431 20.8379 20 20.8379H408.686C419.731 20.8379 428.686 29.7922 428.686 40.8379V88.8379C428.686 99.8836 437.64 108.838 448.686 108.838H507C518.046 108.838 527 117.792 527 128.838V780.838Z" fill="var(--fill-0, #EC5CF0)"/>
</g>
</svg>
