<svg preserveAspectRatio="none" width="100%" height="100%" overflow="visible" style="display: block;" viewBox="0 0 612 785.559" fill="none" xmlns="http://www.w3.org/2000/svg">
<g id="Frame 327">
<path id="Union" d="M612 765.207C612 776.253 603.046 785.207 592 785.207H20C8.9543 785.207 0 776.253 0 765.207V25.207C0 14.1613 8.95431 5.20703 20 5.20703H592C603.046 5.20703 612 14.1613 612 25.207V765.207Z" fill="var(--fill-0, #A43FA7)"/>
<rect id="Rectangle 34626611" width="347.851" height="714.586" rx="10" transform="matrix(0.989217 0.146455 -0.174566 0.984645 222.742 0)" fill="var(--fill-0, #EFEDED)"/>
<rect id="Rectangle 34626612" width="383.998" height="712.792" rx="10" transform="matrix(0.999978 -0.00662411 0.00793216 0.999969 128.879 14.1504)" fill="var(--fill-0, white)"/>
<path id="Union_2" d="M612 765.559C612 776.604 603.046 785.559 592 785.559H20C8.9543 785.559 0 776.604 0 765.559V25.5586C0 14.5129 8.9543 5.55859 20 5.55859H477.828C488.874 5.55859 497.828 14.5129 497.828 25.5586V73.5586C497.828 84.6043 506.782 93.5586 517.828 93.5586H592C603.046 93.5586 612 102.513 612 113.559V765.559Z" fill="var(--fill-0, #EC5CF0)"/>
</g>
</svg>
