<svg preserveAspectRatio="none" width="100%" height="100%" overflow="visible" style="display: block;" viewBox="0 0 19.6181 19.6209" fill="none" xmlns="http://www.w3.org/2000/svg">
<g id="Group">
<path id="Vector" d="M9.80904 17.3807C5.63826 17.3807 2.16262 13.9818 2.16262 9.73317C2.16262 5.48457 5.56103 2.08569 9.80904 2.08569C14.0571 2.08569 17.4555 5.48457 17.4555 9.73317C17.4555 13.9818 14.0571 17.3807 9.80904 17.3807Z" fill="var(--fill-0, #00FF00)"/>
<path id="Vector_2" d="M9.80904 4.40311C12.8213 4.40311 15.2156 6.87503 15.2156 9.81043C15.2156 12.7458 12.744 15.2177 9.80904 15.2177C6.87404 15.2177 4.40247 12.7458 4.40247 9.81043C4.40247 6.87503 6.87404 4.40311 9.80904 4.40311ZM9.80904 0C4.40247 0 0 4.40311 0 9.81043C0 15.2177 4.40247 19.6209 9.80904 19.6209C15.2156 19.6209 19.6181 15.2177 19.6181 9.81043C19.6181 4.40311 15.2156 0 9.80904 0Z" fill="var(--fill-0, white)"/>
</g>
</svg>
