<svg preserveAspectRatio="none" width="100%" height="100%" overflow="visible" style="display: block;" viewBox="0 0 348.105 242.48" fill="none" xmlns="http://www.w3.org/2000/svg">
<g id="Group">
<g id="Group_2">
<path id="Vector" d="M145.9 96.2502H114.001C107.436 96.2502 102.107 90.9202 102.107 84.3542V27.7318H107.9V84.3542C107.9 87.6758 110.603 90.4567 114.001 90.4567H145.9V96.2502Z" fill="var(--fill-0, white)"/>
<path id="Vector_2" d="M107.9 27.7318H102.107C102.107 21.1658 107.436 15.8357 114.001 15.8357H135.782V21.6293H114.001C110.68 21.6293 107.9 24.3329 107.9 27.7318Z" fill="var(--fill-0, white)"/>
<path id="Vector_3" d="M145.823 15.8357H135.705V21.6293H145.823V15.8357Z" fill="var(--fill-0, white)"/>
</g>
<path id="Vector_4" d="M163.664 35.7656V7.10677C163.664 3.16715 166.831 2.11686e-06 170.77 2.11686e-06H202.205C206.145 2.11686e-06 209.311 3.16715 209.311 7.10677V75.0845C209.311 79.0241 206.145 82.1912 202.205 82.1912H170.77C166.831 82.1912 163.664 79.0241 163.664 75.0845V62.2614H169.457V75.0845C169.457 75.7797 169.998 76.3977 170.77 76.3977H202.205C202.901 76.3977 203.518 75.8569 203.518 75.0845V7.10677C203.518 6.41154 202.978 5.79356 202.205 5.79356H170.77C170.075 5.79356 169.457 6.3343 169.457 7.10677V35.7656" fill="var(--fill-0, white)"/>
<g id="Group_3">
<path id="Vector_5" d="M118.481 192.964H98.5539C91.1392 192.964 85.0375 188.097 85.0375 182.149V132.479H90.8303V182.149C90.8303 184.853 94.3832 187.093 98.4767 187.093H118.404V192.887L118.481 192.964Z" fill="var(--fill-0, white)"/>
<path id="Vector_6" d="M90.8303 132.479H85.0375C85.0375 126.531 90.3668 121.665 96.932 121.665H118.713V127.458H96.932C93.6108 127.458 90.8303 129.698 90.8303 132.402V132.479Z" fill="var(--fill-0, white)"/>
</g>
<path id="Vector_7" d="M274.731 224.944H266.003V219.074H274.653C277.511 219.074 280.292 217.915 282.3 215.906C284.385 213.821 285.467 211.117 285.467 208.182H291.259C291.259 212.662 289.56 216.833 286.393 220.001C283.227 223.168 279.056 224.867 274.653 224.867L274.731 224.944Z" fill="var(--fill-0, white)"/>
<path id="Vector_8" d="M285.544 188.02C285.544 186.552 285.235 185.162 284.694 183.849C284.076 182.536 283.381 181.609 282.995 181.145C281.45 179.291 279.674 177.437 277.975 175.661C274.962 172.493 272.105 169.558 270.56 166.545C270.251 165.927 269.788 165 269.556 163.764C269.092 160.984 270.019 158.743 270.714 157.121V156.889C271.487 155.344 272.336 153.954 273.418 152.718L285.544 138.582L289.946 142.367L277.82 156.503C277.125 157.353 276.584 158.203 276.121 159.207L275.966 159.439C275.426 160.675 274.962 161.679 275.194 162.76C275.271 163.224 275.426 163.533 275.58 163.842C276.816 166.159 279.365 168.786 282.068 171.644C283.845 173.498 285.698 175.429 287.397 177.437C288.247 178.441 289.174 179.755 289.946 181.609C290.796 183.617 291.259 185.703 291.259 187.943H285.467L285.544 188.02Z" fill="var(--fill-0, white)"/>
<path id="Vector_9" d="M291.337 187.634H285.544V208.182H291.337V187.634Z" fill="var(--fill-0, white)"/>
<path id="Vector_10" d="M289.869 142.444L285.467 138.582C288.015 135.646 291.568 133.715 295.353 133.174L296.202 138.968C293.731 139.354 291.491 140.59 289.792 142.444H289.869Z" fill="var(--fill-0, white)"/>
<path id="Vector_11" d="M323.158 133.174H295.507V138.968H323.158V133.174Z" fill="var(--fill-0, white)"/>
<path id="Vector_12" d="M50.3583 156.194H13.3619C6.02446 156.194 1.27025e-06 150.864 1.27025e-06 144.298V127.844H5.79275V144.298C5.79275 147.62 9.19116 150.401 13.2847 150.401H50.281C54.4518 150.401 57.773 147.697 57.773 144.298V122.514H63.5657V144.298C63.5657 150.864 57.6185 156.194 50.2038 156.194H50.3583Z" fill="var(--fill-0, white)"/>
<g id="Group_4">
<path id="Vector_13" d="M132.77 196.517L126.977 196.208C126.977 195.668 126.977 194.818 126.591 194.045C126.359 193.582 126.205 193.35 125.973 193.196C125.973 193.196 125.818 193.196 125.741 193.118H118.481V187.248H126.282C126.282 187.325 126.514 187.402 126.514 187.402C127.363 187.557 128.136 187.788 128.908 188.252C130.684 189.256 131.379 190.801 131.766 191.496C132.538 193.041 132.924 194.818 132.77 196.595V196.517Z" fill="var(--fill-0, white)"/>
<path id="Vector_14" d="M161.27 242.48H152.233V236.686H161.27C164.591 236.686 167.372 233.982 167.372 230.583V208.259C167.526 207.564 167.835 206.869 168.144 206.251C169.148 204.474 170.693 203.701 171.465 203.315C172.856 202.62 174.4 202.311 175.945 202.311V208.104C175.173 208.104 174.555 208.259 174.014 208.491C173.551 208.722 173.319 208.877 173.164 209.031V230.429C173.164 236.995 167.835 242.325 161.27 242.325V242.48Z" fill="var(--fill-0, white)"/>
<path id="Vector_15" d="M152.311 242.48H138.871C132.306 242.48 126.977 237.149 126.977 230.583V196.363H132.77V230.583C132.77 233.905 135.473 236.686 138.871 236.686H152.311V242.48Z" fill="var(--fill-0, white)"/>
</g>
<path id="Vector_16" d="M57.8502 90.6884C57.8502 89.9159 57.6185 89.1435 57.3096 88.4483C56.9234 87.753 56.5372 87.2895 56.151 86.9033C54.9925 85.6673 53.6022 84.4314 52.2892 83.2727C49.8949 81.1098 47.655 79.1013 46.342 77.0157C46.033 76.5522 45.6468 75.7797 45.4151 74.7755C44.9517 72.4581 45.8785 70.6814 46.4192 69.5226V69.3682C47.0371 68.2867 47.8095 67.2052 48.7363 66.3555L58.0819 56.9313L62.1755 61.0254L52.8298 70.4496C52.3664 70.9131 51.9802 71.4538 51.6713 71.9946V72.1491C51.2851 72.6898 50.9762 73.3078 51.0534 73.5395C51.0534 73.6168 51.0534 73.694 51.2079 73.8485C52.0575 75.239 54.0656 77.0929 56.0738 78.8696C57.464 80.1055 58.9315 81.4188 60.2446 82.8092C60.6307 83.2727 61.6348 84.2769 62.4072 85.8218C63.1795 87.2895 63.5657 88.9117 63.5657 90.5339H57.773L57.8502 90.6884Z" fill="var(--fill-0, white)"/>
<path id="Vector_17" d="M62.2527 61.1027L58.1592 56.9313C60.2446 54.9229 63.0251 53.5325 66.1145 53.1462L66.8869 58.9398C65.1105 59.1715 63.4113 59.944 62.2527 61.1027Z" fill="var(--fill-0, white)"/>
<path id="Vector_18" d="M163.742 53.1462H95.6962V58.9398H163.742V53.1462Z" fill="var(--fill-0, white)"/>
<path id="Vector_19" d="M63.643 90.3794H57.8502V122.514H63.643V90.3794Z" fill="var(--fill-0, white)"/>
<path id="Vector_20" d="M169.457 62.4159H163.664C163.664 61.7979 163.664 61.1027 163.201 60.253C162.66 59.1715 161.733 58.6308 161.193 58.399L163.664 53.1462C164.823 53.6869 166.986 54.9229 168.376 57.5493C169.148 59.017 169.612 60.7165 169.534 62.4159H169.457Z" fill="var(--fill-0, white)"/>
<path id="Vector_21" d="M225.454 224.944C224.295 224.944 223.214 224.713 222.133 224.326C221.283 224.017 218.348 222.627 217.112 219.614C216.88 219.074 216.803 218.61 216.494 216.138C216.417 215.366 216.34 214.902 216.263 214.593C216.185 213.975 216.185 213.975 216.108 213.821C216.031 213.435 215.799 212.508 215.49 212.276H202.437V206.482H216.185C217.189 206.637 218.116 207.023 218.889 207.564C220.819 208.954 221.437 211.194 221.746 212.276C221.901 212.817 221.901 213.126 221.978 213.821C221.978 214.13 222.055 214.67 222.21 215.366C222.364 216.37 222.441 217.22 222.519 217.606C222.905 218.301 223.754 218.765 224.218 218.919C224.681 219.074 225.145 219.151 225.685 219.151L226.072 224.944C225.84 224.944 225.685 224.944 225.454 224.944Z" fill="var(--fill-0, white)"/>
<path id="Vector_22" d="M231.246 175.892H221.283C214.718 175.892 209.388 170.562 209.388 163.996V142.212H215.181V163.996C215.181 167.318 217.884 170.099 221.283 170.099H231.246V175.892Z" fill="var(--fill-0, white)"/>
<g id="Group_5">
<path id="Vector_23" d="M169.334 133.49L163.541 133.51L163.744 191.445L169.536 191.425L169.334 133.49Z" fill="var(--fill-0, white)"/>
<path id="Vector_24" d="M166.599 199.066C164.746 196.904 163.742 194.2 163.742 191.419H169.534C169.534 192.809 170.075 194.2 171.002 195.281L166.599 199.066Z" fill="var(--fill-0, white)"/>
<path id="Vector_25" d="M170.767 194.586L166.642 198.654L176.295 208.444L180.42 204.376L170.767 194.586Z" fill="var(--fill-0, white)"/>
<path id="Vector_26" d="M183.36 212.121C180.579 211.89 177.876 210.654 175.945 208.722L180.039 204.551C181.043 205.555 182.433 206.173 183.823 206.328L183.36 212.121Z" fill="var(--fill-0, white)"/>
<path id="Vector_27" d="M183.13 205.935L183.089 211.729L202.243 211.862L202.284 206.069L183.13 205.935Z" fill="var(--fill-0, white)"/>
</g>
<path id="Vector_28" d="M240.283 175.892H228.543V170.099H240.283C243.604 170.099 246.385 167.395 246.385 163.996V97.0227H252.178V163.996C252.178 170.562 246.848 175.892 240.283 175.892Z" fill="var(--fill-0, white)"/>
<path id="Vector_29" d="M265.926 219.074H224.681V224.867H265.926V219.074Z" fill="var(--fill-0, white)"/>
<path id="Vector_30" d="M95.6962 53.1462H66.0373V58.9398H95.6962V53.1462Z" fill="var(--fill-0, white)"/>
<path id="Vector_31" d="M215.181 107.219H209.388V142.212H215.181V107.219Z" fill="var(--fill-0, white)"/>
<path id="Vector_32" d="M252.178 80.4145H246.385V97.0227H252.178V80.4145Z" fill="var(--fill-0, white)"/>
<path id="Vector_33" d="M321.922 107.992H314.894C310.414 107.992 306.707 104.361 306.707 99.8036V89.9159C306.707 85.4356 310.337 81.7277 314.894 81.7277H321.922C326.402 81.7277 330.109 85.3584 330.109 89.9159V99.8036H324.317V89.9159C324.317 88.6027 323.235 87.5985 321.999 87.5985H314.971C313.658 87.5985 312.654 88.68 312.654 89.9159V99.8036C312.654 101.117 313.735 102.121 314.971 102.121H321.999V107.915L321.922 107.992Z" fill="var(--fill-0, white)"/>
<path id="Vector_34" d="M330.032 99.1856H324.239V133.715H330.032V99.1856Z" fill="var(--fill-0, white)"/>
<path id="Vector_35" d="M323.158 138.968L321.15 133.483C322.849 132.866 324.317 131.784 325.166 130.394L330.109 133.561C328.565 136.033 326.093 137.964 323.158 139.045V138.968Z" fill="var(--fill-0, white)"/>
<path id="Vector_36" d="M348.105 102.121H321.922V107.915H348.105V102.121Z" fill="var(--fill-0, white)"/>
</g>
</svg>
