<svg preserveAspectRatio="none" width="100%" height="100%" overflow="visible" style="display: block;" viewBox="0 0 270.903 154.168" fill="none" xmlns="http://www.w3.org/2000/svg">
<g id="Group">
<path id="Vector" d="M33.3658 104.934H13.4811C6.0665 104.934 5.16479e-07 100.084 5.16479e-07 94.1575V44.7215H5.79688V94.1575C5.79688 96.8516 9.30197 99.1415 13.4811 99.1415H33.3658V104.934Z" fill="var(--fill-0, white)"/>
<path id="Vector_2" d="M187.994 136.858H179.299V130.999H187.927C190.825 130.999 193.521 129.854 195.544 127.833C197.566 125.813 198.712 123.051 198.712 120.155H204.508C204.508 124.6 202.823 128.776 199.655 131.942C196.555 135.04 192.376 136.791 187.927 136.791L187.994 136.858Z" fill="var(--fill-0, white)"/>
<path id="Vector_3" d="M47.5883 108.369L41.7914 108.032C41.7914 107.493 41.7914 106.685 41.387 105.877C41.1174 105.405 40.9826 105.136 40.7804 105.001C40.7804 105.001 40.6456 105.001 40.5782 104.934H33.3658C33.3658 104.866 33.3658 99.0742 33.3658 99.0742H41.1174C41.1174 99.1416 41.3196 99.2089 41.3196 99.2089C42.1959 99.3436 42.9374 99.613 43.6788 100.084C45.4314 101.095 46.1728 102.644 46.5098 103.317C47.2513 104.866 47.6557 106.618 47.5209 108.436L47.5883 108.369Z" fill="var(--fill-0, white)"/>
<path id="Vector_4" d="M76.0335 154.168H67.0685V148.376H76.0335C79.4038 148.376 82.1 145.681 82.1 142.314V120.088C82.3022 119.347 82.5718 118.674 82.9088 118.067C83.9199 116.316 85.4702 115.508 86.2117 115.171C87.5598 114.498 89.1102 114.161 90.7279 114.161C90.9975 115.845 91.2671 117.461 91.4693 119.145C90.3234 119.145 89.4472 119.482 88.9079 119.818C88.2339 120.29 87.9643 120.896 87.9643 120.896V142.179C87.9643 148.712 82.6392 154.033 76.1009 154.033L76.0335 154.168Z" fill="var(--fill-0, white)"/>
<path id="Vector_5" d="M67.0685 154.168H53.7222C47.1839 154.168 41.8589 148.847 41.8589 142.314V108.234H47.6557V142.314C47.6557 145.682 50.352 148.376 53.7222 148.376H67.0685V154.168Z" fill="var(--fill-0, white)"/>
<path id="Vector_6" d="M169.592 136.858C167.705 136.791 166.29 136.185 165.548 135.781C165.413 135.781 165.346 135.646 165.211 135.579C163.256 134.501 161.639 132.75 160.965 130.999C160.897 130.729 160.762 130.527 160.762 130.258C160.56 129.517 160.223 127.429 160.156 126.823C160.021 126.082 159.953 125.611 159.953 125.274C159.886 124.668 159.886 124.668 159.819 124.533C159.819 124.264 159.819 123.927 159.616 123.658C159.616 123.658 159.414 123.321 158.942 123.119C158.538 122.984 156.583 122.849 153.617 122.849H146.27V117.192H159.953C160.965 117.394 161.908 117.731 162.65 118.269C164.604 119.616 165.211 121.839 165.481 122.917C165.615 123.455 165.683 123.792 165.75 124.466C165.75 124.803 165.885 125.274 165.952 126.015C166.087 127.025 166.222 127.833 166.29 128.237C166.29 128.574 166.424 129.18 166.829 129.719C167.705 130.932 169.255 130.932 169.458 130.932C169.525 132.885 169.592 134.838 169.727 136.791L169.592 136.858Z" fill="var(--fill-0, white)"/>
<path id="Vector_7" d="M169.592 9.42922V76.0399C169.592 82.573 164.267 87.8938 157.729 87.8938H135.35C128.812 87.8938 123.487 82.573 123.487 76.0399V54.3527H129.284V76.0399C129.284 79.4075 131.98 82.1016 135.35 82.1016H157.729C161.099 82.1016 163.796 79.4075 163.796 76.0399V9.42922H169.592Z" fill="var(--fill-0, white)"/>
<g id="Group_2">
<path id="Vector_8" d="M84.7594 46.1659L78.9629 46.2366L79.6522 102.606L85.4486 102.535L84.7594 46.1659Z" fill="var(--fill-0, white)"/>
<path id="Vector_9" d="M82.3696 110.389C80.5497 108.301 79.5386 105.675 79.4712 102.913H85.268C85.268 104.26 85.8073 105.607 86.751 106.618L82.3696 110.322V110.389Z" fill="var(--fill-0, white)"/>
<path id="Vector_10" d="M92.0086 119.818L82.3022 110.322L86.4139 106.281L96.1203 115.777L92.0086 119.818Z" fill="var(--fill-0, white)"/>
<path id="Vector_11" d="M99.221 122.849C96.4573 122.647 93.7611 121.502 91.8064 119.616L95.8507 115.575C96.8618 116.518 98.2099 117.124 99.6254 117.259L99.221 122.917V122.849Z" fill="var(--fill-0, white)"/>
<path id="Vector_12" d="M117.488 117.192H99.0862V122.849H117.488V117.192Z" fill="var(--fill-0, white)"/>
</g>
<path id="Vector_13" d="M148.831 117.192H117.42V122.849H148.831V117.192Z" fill="var(--fill-0, white)"/>
<path id="Vector_14" d="M187.927 130.999V136.858H169.592C167.705 136.791 166.29 136.185 165.548 135.781C165.413 135.781 165.346 135.646 165.211 135.579C163.256 134.501 161.639 132.75 160.965 130.999H187.927Z" fill="var(--fill-0, white)"/>
<path id="Vector_15" d="M129.284 19.5993H123.487V54.4201H129.284V19.5993Z" fill="var(--fill-0, white)"/>
<path id="Vector_16" d="M169.592 0H163.796V15.4235H169.592V0Z" fill="var(--fill-0, white)"/>
<path id="Vector_17" d="M204.441 91.2614L198.644 91.3961C198.644 90.5879 198.442 89.847 198.105 89.1735C197.768 88.5 197.296 88.0285 196.959 87.6244C195.813 86.4121 194.465 85.1998 193.117 84.0548C190.758 81.8995 188.533 79.9463 187.253 77.7911C186.983 77.3196 186.579 76.5788 186.376 75.5685C186.174 74.5582 186.242 73.6153 186.376 72.8744C186.376 72.7397 186.376 72.6724 186.444 72.5377C187.118 71.5947 187.859 70.5845 188.533 69.6415C189.679 71.258 190.825 72.8071 191.971 74.4235C191.971 74.4235 191.971 74.4235 191.971 74.4909C191.971 74.5582 191.971 74.6256 192.106 74.7603C192.982 76.1747 195.004 77.9931 196.959 79.7443C198.375 80.9566 199.79 82.3036 201.071 83.6507C201.475 84.0548 202.486 85.1324 203.228 86.6142C203.969 88.0959 204.374 89.645 204.374 91.3288L204.441 91.2614Z" fill="var(--fill-0, white)"/>
<path id="Vector_18" d="M204.508 90.7899H198.712V120.425H204.508V90.7899Z" fill="var(--fill-0, white)"/>
<g id="Group_3">
<path id="Vector_19" d="M208.081 52.1975C207.609 52.3322 207.137 52.5342 206.665 52.7363C205.789 53.073 204.98 53.5445 204.239 54.016L202.621 55.6324L206.733 59.6735C206.935 59.4715 207.205 59.2694 207.474 59.0673C207.677 58.9326 207.946 58.7306 208.148 58.5959C208.62 58.3265 209.092 58.1244 209.631 57.9224H238.211V52.1301H208.148L208.081 52.1975ZM211.249 55.2957V55.161V55.2283V55.2957Z" fill="var(--fill-0, white)"/>
<path id="Vector_20" d="M211.316 55.2283L211.249 55.2957V55.0936L211.316 55.2283Z" fill="var(--fill-0, white)"/>
</g>
<g id="Group_4">
<path id="Vector_21" d="M245.019 61.6267C240.84 61.6267 237.47 58.2591 237.47 54.0833C237.47 49.9075 240.84 46.5399 245.019 46.5399C249.198 46.5399 252.569 49.9075 252.569 54.0833C252.569 58.2591 249.198 61.6267 245.019 61.6267Z" fill="var(--fill-0, #0AFD5D)"/>
<path id="Vector_22" d="M245.019 48.6279C247.985 48.6279 250.412 51.0525 250.412 54.016C250.412 56.9795 247.985 59.4041 245.019 59.4041C242.053 59.4041 239.627 56.9795 239.627 54.016C239.627 51.0525 242.053 48.6279 245.019 48.6279ZM245.019 44.3173C239.627 44.3173 235.245 48.6952 235.245 54.0833C235.245 59.4715 239.627 63.8493 245.019 63.8493C250.412 63.8493 254.793 59.4715 254.793 54.0833C254.793 48.6952 250.412 44.3173 245.019 44.3173Z" fill="var(--fill-0, white)"/>
</g>
<path id="Vector_23" d="M44.7573 112.679C40.5781 112.679 37.2079 109.312 37.2079 105.136C37.2079 100.96 40.5781 97.5925 44.7573 97.5925C48.9364 97.5925 52.3067 100.96 52.3067 105.136C52.3067 109.312 48.9364 112.679 44.7573 112.679Z" fill="var(--fill-0, #0AFD5D)"/>
<path id="Vector_24" d="M44.7573 99.6804C47.7231 99.6804 50.1497 102.105 50.1497 105.068C50.1497 108.032 47.7231 110.457 44.7573 110.457C41.7914 110.457 39.3648 108.032 39.3648 105.068C39.3648 102.105 41.7914 99.6804 44.7573 99.6804ZM44.7573 95.3699C39.3648 95.3699 34.9835 99.7477 34.9835 105.136C34.9835 110.524 39.3648 114.902 44.7573 114.902C50.1497 114.902 54.5311 110.524 54.5311 105.136C54.5311 99.7477 50.1497 95.3699 44.7573 95.3699Z" fill="var(--fill-0, white)"/>
<path id="Vector_25" d="M39.9715 33.9452V39.7374H33.6354H11.9982C8.62793 39.7374 5.9317 41.96 5.9317 44.7215H0.13482C0.13482 38.7945 5.45986 33.9452 11.9982 33.9452H40.0389H39.9715Z" fill="var(--fill-0, white)"/>
<path id="Vector_26" d="M207.407 59.1347L192.038 74.4909L190.016 76.5114L186.376 72.8744C186.376 72.7397 186.376 72.6724 186.444 72.5377C187.118 71.5947 187.859 70.5845 188.533 69.6415L202.486 55.6998L206.598 59.7409C206.8 59.5388 207.07 59.3367 207.34 59.1347H207.407Z" fill="var(--fill-0, white)"/>
<path id="Vector_27" d="M245.896 24.9201H239.222C234.908 24.9201 231.471 21.4178 231.471 17.1747V7.74543C231.471 3.43493 234.976 0 239.222 0H245.896C250.209 0 253.647 3.50228 253.647 7.74543V17.1747H248.12V7.74543C248.12 6.5331 247.109 5.52283 245.896 5.52283H239.222C238.009 5.52283 236.998 6.5331 236.998 7.74543V17.1747C236.998 18.387 238.009 19.3973 239.222 19.3973H245.896V24.9201Z" fill="var(--fill-0, white)"/>
<path id="Vector_28" d="M253.647 16.5685H248.12V49.5034H253.647V16.5685Z" fill="var(--fill-0, white)"/>
<path id="Vector_29" d="M270.903 19.3973H245.896V24.9201H270.903V19.3973Z" fill="var(--fill-0, white)"/>
</g>
</svg>
