<svg preserveAspectRatio="none" width="100%" height="100%" overflow="visible" style="display: block;" viewBox="0 0 639.777 428" fill="none" xmlns="http://www.w3.org/2000/svg">
<g id="Group 1410167672">
<path id="Vector" opacity="0.5" d="M637.689 122.986H594.705V206.88H637.689V122.986Z" fill="var(--fill-0, #7A7A7A)"/>
<path id="Vector_2" opacity="0.5" d="M596.336 122.986H554.985V206.88H596.336V122.986Z" fill="var(--fill-0, #7A7A7A)"/>
<path id="Vector_3" opacity="0.5" d="M86.5126 256.399H42.531V340.293H86.5126V256.399Z" fill="var(--fill-0, #7A7A7A)"/>
<path id="Vector_4" opacity="0.5" d="M45.1608 256.399H3.80899V340.293H45.1608V256.399Z" fill="var(--fill-0, #7A7A7A)"/>
<path id="Vector_5" opacity="0.5" d="M553.171 37.6393H511.82V121.534H553.171V37.6393Z" fill="var(--fill-0, #7A7A7A)"/>
<path id="Vector_6" opacity="0.5" d="M129.315 342.198H87.9632V426.092H129.315V342.198Z" fill="var(--fill-0, #7A7A7A)"/>
<path id="Vector_7" d="M2.9019 36.7328H639.23" stroke="var(--stroke-0, #7A7A7A)" stroke-width="2" stroke-miterlimit="10"/>
<path id="Vector_8" d="M2.99271 122.441H637.054" stroke="var(--stroke-0, #7A7A7A)" stroke-width="2" stroke-miterlimit="10" stroke-dasharray="8 8"/>
<path id="Vector_9" d="M4.44364 341.383H636.963" stroke="var(--stroke-0, #7A7A7A)" stroke-width="2" stroke-miterlimit="10" stroke-dasharray="8 8"/>
<path id="Vector_10" d="M4.77433e-05 427H639.502" stroke="var(--stroke-0, #7A7A7A)" stroke-width="2" stroke-miterlimit="10"/>
<path id="Vector_11" d="M554.169 38.7281V425.276" stroke="var(--stroke-0, #7A7A7A)" stroke-width="2" stroke-miterlimit="10" stroke-dasharray="8 8"/>
<path id="Vector_12" d="M638.777 36.7328V427" stroke="var(--stroke-0, #7A7A7A)" stroke-width="2" stroke-miterlimit="10"/>
<path id="Vector_13" d="M87.1475 0V425.457" stroke="var(--stroke-0, #7A7A7A)" stroke-width="2" stroke-miterlimit="10" stroke-dasharray="8 8"/>
<path id="Vector_14" d="M2.99271 0.18216V427" stroke="var(--stroke-0, #7A7A7A)" stroke-width="2" stroke-miterlimit="10"/>
<g id="Group">
<path id="Vector_15" d="M204.855 197.989H198.326V158.264C198.054 158.264 197.691 158.355 197.419 158.446C195.968 158.899 195.061 159.625 194.336 160.259C193.882 160.622 193.61 160.985 193.52 161.166C193.52 161.257 193.52 161.439 193.429 161.62V180.031C193.429 181.029 192.975 181.936 192.25 182.571C189.439 184.838 185.902 186.38 182.365 186.743C177.831 187.196 174.295 186.017 172.027 184.838L174.929 178.943C176.108 179.578 178.557 180.485 181.64 180.122C183.907 179.85 185.63 179.034 186.9 178.308V161.439V161.257C186.9 160.35 187.172 159.443 187.534 158.627C188.079 157.357 188.895 156.36 190.255 155.18C191.252 154.364 192.975 152.913 195.787 152.097C196.694 151.825 197.51 151.734 198.417 151.643V126.611C198.417 126.611 198.417 126.611 198.417 126.52V126.339C198.507 123.709 200.593 123.074 201.681 123.074C202.769 123.074 204.764 123.165 204.946 126.43C204.946 126.43 204.946 126.52 204.946 126.702C204.946 126.702 204.946 126.702 204.946 126.792V133.504V155.09C204.946 155.09 204.946 155.271 204.946 155.362C204.946 166.427 204.946 180.666 204.946 197.898L204.855 197.989Z" fill="var(--fill-0, white)"/>
<path id="Vector_16" d="M314.401 215.314H307.872V153.368C307.872 153.278 307.872 153.187 307.872 153.006C307.872 153.006 307.963 151.464 306.874 150.466C305.968 149.65 304.879 149.741 304.607 149.741C304.517 149.741 304.335 149.741 304.244 149.741L244.575 149.106V142.576L304.154 143.211C305.333 143.211 308.507 143.21 311.227 145.569C314.492 148.471 314.492 152.371 314.401 153.55V215.405V215.314Z" fill="var(--fill-0, white)"/>
<path id="Vector_17" d="M537.121 240.074H438.638V246.604H537.121V240.074Z" fill="var(--fill-0, white)"/>
<g id="Group_2">
<path id="Vector_18" d="M381.507 286.962V280.432H407.624C407.896 280.251 408.077 279.979 408.077 279.888C408.077 279.888 408.077 279.797 407.805 279.525C407.352 278.981 404.903 276.442 393.296 265.195L397.921 260.479C409.982 272.27 412.249 274.537 412.793 275.263C413.972 276.623 414.607 278.165 414.607 279.797C414.607 282.881 412.611 285.693 409.438 286.781C409.075 286.872 408.712 286.962 408.349 286.962H381.507Z" fill="var(--fill-0, white)"/>
<path id="Vector_19" d="M393.658 265.378L362.01 234.813C361.919 234.722 361.738 234.541 361.647 234.359C360.378 232.636 359.38 230.732 358.654 228.736C358.02 226.922 357.657 225.018 357.476 223.113C357.476 223.113 357.476 222.932 357.476 222.841V193.093H364.005V222.75C364.096 224.02 364.368 225.29 364.821 226.56C365.274 227.92 365.909 229.099 366.725 230.278L398.193 260.661L393.658 265.378Z" fill="var(--fill-0, white)"/>
<path id="Vector_20" d="M357.476 207.332V184.386C357.113 182.935 356.66 181.574 355.934 180.214C355.299 179.126 354.574 178.128 353.758 177.312L334.351 163.435L338.16 158.084L357.838 172.142C358.02 172.233 358.11 172.323 358.292 172.505C359.652 173.865 360.831 175.407 361.738 177.039C362.826 179.035 363.642 181.212 364.096 183.479C364.096 183.66 364.096 183.842 364.096 184.114V207.423H357.566L357.476 207.332Z" fill="var(--fill-0, white)"/>
</g>
<path id="Vector_21" d="M417.69 219.032H411.161V158.719C411.161 156.633 409.438 154.909 407.352 154.909H380.51V148.379H407.352C413.065 148.379 417.69 153.005 417.69 158.719V219.032Z" fill="var(--fill-0, white)"/>
<path id="Vector_22" d="M308.869 166.79H272.959V173.32H308.869V166.79Z" fill="var(--fill-0, white)"/>
<path id="Vector_23" d="M271.054 208.691H225.259V215.221H271.054V208.691Z" fill="var(--fill-0, white)"/>
<path id="Vector_24" d="M414.425 168.876C412.612 168.876 411.161 167.334 411.161 165.52V126.067C411.161 124.254 412.612 122.712 414.425 122.712C416.239 122.712 417.69 124.254 417.69 126.067V165.52C417.69 167.334 416.239 168.876 414.425 168.876Z" fill="var(--fill-0, white)"/>
<path id="Vector_25" d="M280.576 341.472C280.576 341.472 280.485 341.472 280.395 341.472C278.581 341.381 276.223 340.474 274.863 338.297C274.228 337.3 273.956 336.211 273.865 335.032C273.865 335.032 273.865 335.032 273.865 334.942V307.098C273.956 307.098 280.576 307.098 280.576 307.098V334.851C280.576 334.851 280.576 334.851 280.667 334.851H302.975V341.381H280.485L280.576 341.472Z" fill="var(--fill-0, white)"/>
<path id="Vector_26" d="M280.667 307.188H274.137L274.319 268.37C274.319 267.916 274.319 267.553 274.591 267.1L275.135 265.921C275.316 265.558 275.498 265.195 275.86 264.832L289.826 250.774C290.007 250.593 290.279 250.412 290.551 250.23V215.221H271.145V208.691H293.725C295.539 208.691 296.99 210.142 296.99 211.956V250.412C296.99 251.228 296.808 252.588 295.902 253.858C295.448 254.584 294.813 255.219 293.997 255.672L280.757 268.914L280.576 307.006L280.667 307.188Z" fill="var(--fill-0, white)"/>
<path id="Vector_27" d="M554.078 226.105H547.549V226.015V149.195H534.763C533.856 149.285 532.949 149.467 532.133 149.648C530.954 149.92 529.866 150.283 528.687 150.646C528.687 150.646 526.057 151.644 523.699 153.185C520.072 155.543 499.94 176.041 469.652 209.236L464.755 204.792C492.504 174.318 515.266 150.918 519.981 147.744C522.974 145.748 526.057 144.569 526.239 144.479C527.69 143.934 529.14 143.481 530.591 143.209C531.77 142.937 532.949 142.755 534.128 142.665C534.219 142.665 534.309 142.665 534.491 142.665H550.814C551.721 142.665 552.537 143.027 553.172 143.662C553.806 144.297 554.169 145.113 554.169 146.02V226.196L554.078 226.105Z" fill="var(--fill-0, white)"/>
<path id="Vector_28" d="M175.473 303.379H168.944L169.398 175.316H156.521C155.614 175.406 154.707 175.588 153.891 175.769C152.712 176.041 151.624 176.404 150.445 176.767C150.445 176.767 147.815 177.764 145.457 179.306C141.83 181.664 121.698 202.162 91.4096 235.357L86.5126 230.913C114.262 200.439 137.024 177.039 141.739 173.864C144.732 171.869 147.815 170.69 147.996 170.599C149.447 170.055 150.898 169.602 152.349 169.33C153.528 169.058 154.707 168.876 155.886 168.785C155.976 168.785 156.067 168.785 156.249 168.785H172.572C173.478 168.785 174.295 169.148 174.929 169.783C175.564 170.418 175.927 171.234 175.927 172.141L175.473 303.47V303.379Z" fill="var(--fill-0, white)"/>
<path id="Vector_29" d="M225.803 215.313H212.654C211.838 215.313 204.311 215.041 200.321 208.964C199.051 206.969 198.326 204.52 198.235 202.071L204.764 201.89C204.764 202.797 205.036 204.157 205.852 205.427C207.938 208.692 212.472 208.692 212.654 208.692H225.803V215.313Z" fill="var(--fill-0, white)"/>
<path id="Vector_30" d="M204.764 197.99H198.235V202.253H204.764V197.99Z" fill="var(--fill-0, white)"/>
<path id="Vector_31" d="M417.69 219.032H411.161V220.211H417.69V219.032Z" fill="var(--fill-0, white)"/>
<path id="Vector_32" d="M438.728 240.074H437.55V246.604H438.728V240.074Z" fill="var(--fill-0, white)"/>
<g id="Group_3">
<path id="Vector_33" d="M205.218 215.855C200.502 215.855 196.603 212.046 196.603 207.239C196.603 202.432 200.412 198.623 205.218 198.623C210.024 198.623 213.833 202.432 213.833 207.239C213.833 212.046 210.024 215.855 205.218 215.855Z" fill="var(--fill-0, #00FF00)"/>
<path id="Vector_34" d="M205.218 201.165C208.573 201.165 211.294 203.886 211.294 207.242C211.294 210.598 208.573 213.319 205.218 213.319C201.862 213.319 199.142 210.598 199.142 207.242C199.142 203.886 201.862 201.165 205.218 201.165ZM205.218 196.268C199.142 196.268 194.154 201.256 194.154 207.333C194.154 213.409 199.142 218.398 205.218 218.398C211.294 218.398 216.281 213.409 216.281 207.333C216.281 201.256 211.294 196.268 205.218 196.268Z" fill="var(--fill-0, white)"/>
</g>
<path id="Vector_35" d="M437.459 246.605C434.648 246.605 424.763 245.698 417.509 237.354C412.068 231.005 411.161 223.931 411.161 220.303H417.69C417.69 222.933 418.415 228.284 422.496 233.091C427.937 239.44 435.373 239.984 437.55 240.075V246.605H437.459Z" fill="var(--fill-0, white)"/>
<g id="Group_4">
<path id="Vector_36" d="M427.665 246.24C422.95 246.24 419.05 242.43 419.05 237.623C419.05 232.817 422.859 229.007 427.665 229.007C432.471 229.007 436.28 232.817 436.28 237.623C436.28 242.43 432.471 246.24 427.665 246.24Z" fill="var(--fill-0, #00FF00)"/>
<path id="Vector_37" d="M427.665 231.547C431.02 231.547 433.741 234.268 433.741 237.624C433.741 240.98 431.02 243.701 427.665 243.701C424.31 243.701 421.589 240.98 421.589 237.624C421.589 234.268 424.31 231.547 427.665 231.547ZM427.665 226.65C421.589 226.65 416.602 231.638 416.602 237.715C416.602 243.791 421.589 248.78 427.665 248.78C433.741 248.78 438.728 243.791 438.728 237.715C438.728 231.638 433.741 226.65 427.665 226.65Z" fill="var(--fill-0, white)"/>
</g>
</g>
<path id="Vector_38" d="M22.3081 12.9706L16.5951 6.2591H17.9553L23.0336 12.2451L28.2026 6.2591H29.4721L23.759 12.9706L29.7442 20.045H28.384L22.9429 13.6962L17.5926 20.045H16.323L22.3081 12.9706Z" fill="var(--fill-0, #7A7A7A)"/>
<path id="Vector_39" d="M68.1036 12.9706L62.3906 6.2591H63.7508L68.8291 12.2451L73.9981 6.2591H75.2676L69.5545 12.9706L75.5397 20.045H74.1795L68.7384 13.6962L63.3881 20.045H62.1185L68.1036 12.9706Z" fill="var(--fill-0, #7A7A7A)"/>
<path id="Vector_40" d="M45.7953 36.3693V0" stroke="var(--stroke-0, #7A7A7A)" stroke-width="2" stroke-miterlimit="10"/>
<path id="Vector_41" d="M45.7953 23.4923H3.08326" stroke="var(--stroke-0, #7A7A7A)" stroke-width="2" stroke-miterlimit="10"/>
<path id="Vector_42" d="M88.5074 23.4923H45.7953" stroke="var(--stroke-0, #7A7A7A)" stroke-width="2" stroke-miterlimit="10"/>
</g>
</svg>
