<svg preserveAspectRatio="none" width="100%" height="100%" overflow="visible" style="display: block;" viewBox="0 0 190.218 140.563" fill="none" xmlns="http://www.w3.org/2000/svg">
<g id="Group">
<g id="Group_2">
<path id="Vector" d="M123.42 95.774H93.6937C87.5598 95.774 82.6392 90.4532 82.6392 83.9201V27.6142H88.0317V83.9201C88.0317 87.2877 90.5931 89.9817 93.6937 89.9817H123.42V95.774Z" fill="var(--fill-0, white)"/>
<path id="Vector_2" d="M88.0317 27.6142H82.6392C82.6392 21.0811 87.6272 15.7603 93.6937 15.7603H113.983V21.5525H93.6937C90.5931 21.5525 88.0317 24.2466 88.0317 27.6142Z" fill="var(--fill-0, white)"/>
<path id="Vector_3" d="M123.352 15.7603H113.915V21.5525H123.352V15.7603Z" fill="var(--fill-0, white)"/>
</g>
<path id="Vector_4" d="M183.006 81.7648H151.123C147.146 81.7648 143.911 78.5993 143.911 74.6929V61.9635H149.843V74.6929C149.843 75.3664 150.449 75.9726 151.123 75.9726H183.006C183.748 75.9726 184.287 75.3664 184.287 74.6929V7.07192C184.287 6.39841 183.68 5.79222 183.006 5.79222H151.123C150.382 5.79222 149.843 6.39841 149.843 7.07192V36.4372H143.911V7.07192C143.911 3.16553 147.146 4.55709e-06 151.123 4.55709e-06H183.006C186.983 4.55709e-06 190.218 3.16553 190.218 7.07192V74.6929C190.218 78.5993 186.983 81.7648 183.006 81.7648Z" fill="var(--fill-0, white)"/>
<path id="Vector_5" d="M20.6261 134.771V140.563H13.2789C5.93169 140.563 0 135.242 0 128.709V112.342H5.79688V128.709C5.79688 132.076 9.16716 134.771 13.2789 134.771H20.6261Z" fill="var(--fill-0, white)"/>
<path id="Vector_6" d="M5.79688 106.213H0V115.104H5.79688V106.213Z" fill="var(--fill-0, white)"/>
<path id="Vector_7" d="M144.046 52.871H82.5718V58.6632H144.046V52.871Z" fill="var(--fill-0, white)"/>
<path id="Vector_8" d="M149.775 62.0982H143.978C143.978 61.492 143.911 60.7511 143.506 59.9429C142.9 58.8653 142.024 58.3265 141.552 58.1244L143.978 52.871C145.124 53.4098 147.281 54.6895 148.629 57.2489C149.438 58.7306 149.843 60.4144 149.843 62.0982H149.775Z" fill="var(--fill-0, white)"/>
<path id="Vector_9" d="M29.3214 140.428H20.6261V134.568H29.254C32.1525 134.568 34.8487 133.423 36.8708 131.403C38.893 129.382 40.0389 126.621 40.0389 123.725H45.8358C45.8358 128.17 44.1506 132.346 40.9826 135.511C37.8819 138.61 33.7028 140.361 29.254 140.361L29.3214 140.428Z" fill="var(--fill-0, white)"/>
<path id="Vector_10" d="M45.9032 92.2717L40.1063 92.4064C40.1063 91.5982 39.9041 90.8573 39.5671 90.1838C39.23 89.5103 38.7582 89.0388 38.4212 88.6347C37.2753 87.4224 35.9272 86.21 34.579 85.0651C32.2199 82.9098 29.9955 80.9566 28.7148 78.8014C28.4451 78.3299 28.0407 77.589 27.8385 76.5788C27.6363 75.5685 27.7037 74.6256 27.8385 73.8847C27.8385 73.75 27.8385 73.6826 27.9059 73.5479C28.58 72.605 29.3214 71.5947 29.9955 70.6518C31.1414 72.2683 32.2873 73.8174 33.4332 75.4338C33.4332 75.4338 33.4332 75.4338 33.4332 75.5011C33.4332 75.5685 33.4332 75.6358 33.568 75.7706C34.4442 77.1849 36.4664 79.0034 38.4212 80.7546C39.8367 81.9669 41.2522 83.3139 42.5329 84.6609C42.9373 85.0651 43.9484 86.1427 44.6899 87.6244C45.4313 89.1061 45.8358 90.6552 45.8358 92.339L45.9032 92.2717Z" fill="var(--fill-0, white)"/>
<path id="Vector_11" d="M45.9032 92.0023H40.1063V123.994H45.9032V92.0023Z" fill="var(--fill-0, white)"/>
<g id="Group_3">
<path id="Vector_12" d="M49.4757 53.1404C49.0038 53.2751 48.532 53.4772 48.0602 53.6792C47.1839 54.016 46.375 54.4874 45.6336 54.9589L44.0158 56.5753L48.1276 60.6164C48.3298 60.4144 48.5994 60.2123 48.869 60.0103C49.0713 59.8756 49.3409 59.6735 49.5431 59.5388C50.0149 59.2694 50.4868 59.0674 51.026 58.8653H79.606V53.0731H49.5431L49.4757 53.1404ZM52.6437 56.2386V56.1039V56.1712V56.2386Z" fill="var(--fill-0, white)"/>
<path id="Vector_13" d="M52.7112 56.1712L52.6437 56.2386V56.1039L52.7112 56.1712Z" fill="var(--fill-0, white)"/>
</g>
<path id="Vector_14" d="M86.4813 62.5696C82.3022 62.5696 78.9319 59.202 78.9319 55.0262C78.9319 50.8504 82.3022 47.4829 86.4813 47.4829C90.6605 47.4829 94.0308 50.8504 94.0308 55.0262C94.0308 59.202 90.6605 62.5696 86.4813 62.5696Z" fill="var(--fill-0, #0AFD5D)"/>
<path id="Vector_15" d="M86.4813 49.5708C89.4472 49.5708 91.8738 51.9954 91.8738 54.9589C91.8738 57.9224 89.4472 60.347 86.4813 60.347C83.5155 60.347 81.0889 57.9224 81.0889 54.9589C81.0889 51.9954 83.5155 49.5708 86.4813 49.5708ZM86.4813 45.2603C81.0889 45.2603 76.7075 49.6381 76.7075 55.0262C76.7075 60.4144 81.0889 64.7922 86.4813 64.7922C91.8738 64.7922 96.2551 60.4144 96.2551 55.0262C96.2551 49.6381 91.8738 45.2603 86.4813 45.2603Z" fill="var(--fill-0, white)"/>
<path id="Vector_16" d="M48.8016 60.0776L33.4332 75.4338L31.411 77.4543L27.7711 73.8173C27.7711 73.6826 27.7711 73.6153 27.8385 73.4806C28.5126 72.5377 29.254 71.5274 29.9281 70.5845L43.881 56.6427L47.9928 60.6838C48.195 60.4817 48.4646 60.2797 48.7342 60.0776H48.8016Z" fill="var(--fill-0, white)"/>
</g>
</svg>
