<svg preserveAspectRatio="none" width="100%" height="100%" overflow="visible" style="display: block;" viewBox="0 0 18.7388 18.7237" fill="none" xmlns="http://www.w3.org/2000/svg">
<g id="Group">
<path id="Vector" d="M9.36938 16.5685C5.39245 16.5685 2.08959 13.3356 2.08959 9.29451C2.08959 5.25341 5.32505 2.02054 9.36938 2.02054C13.4137 2.02054 16.6492 5.25341 16.6492 9.29451C16.6492 13.3356 13.4137 16.5685 9.36938 16.5685Z" fill="var(--fill-0, #0AFD5D)"/>
<path id="Vector_2" d="M9.36937 4.17581C12.2004 4.17581 14.5596 6.5331 14.5596 9.36187C14.5596 12.1906 12.2004 14.5479 9.36937 14.5479C6.53834 14.5479 4.17915 12.1906 4.17915 9.36187C4.17915 6.5331 6.53834 4.17581 9.36937 4.17581ZM9.36937 0C4.17914 0 0 4.1758 0 9.36187C0 14.5479 4.17914 18.7237 9.36937 18.7237C14.5596 18.7237 18.7388 14.5479 18.7388 9.36187C18.7388 4.1758 14.5596 0 9.36937 0Z" fill="var(--fill-0, white)"/>
</g>
</svg>
