<svg preserveAspectRatio="none" width="100%" height="100%" overflow="visible" style="display: block;" viewBox="0 0 64.3354 17.96" fill="none" xmlns="http://www.w3.org/2000/svg">
<g id="@2026">
<path id="Vector" d="M59.1554 14.68C58.0087 14.68 57.0087 14.4067 56.1554 13.86C55.302 13.3 54.642 12.4733 54.1754 11.38C53.722 10.2867 53.4954 8.96 53.4954 7.4C53.4954 5.8 53.722 4.44667 54.1754 3.34C54.6287 2.22 55.2754 1.38667 56.1154 0.84C56.9687 0.28 57.9687 0 59.1154 0C60.062 0 60.902 0.2 61.6354 0.599999C62.382 1 62.962 1.54 63.3754 2.22C63.7887 2.9 63.9954 3.64 63.9954 4.44H61.3554C61.3554 3.96 61.2554 3.54 61.0554 3.18C60.8687 2.80667 60.602 2.52 60.2554 2.32C59.922 2.10667 59.522 2 59.0554 2C58.5087 2 58.022 2.17333 57.5954 2.52C57.1687 2.85333 56.822 3.38667 56.5554 4.12C56.302 4.85333 56.1754 5.77333 56.1754 6.88C56.1754 7.02667 56.1754 7.18 56.1754 7.34H56.2154C56.4154 6.87333 56.6887 6.47333 57.0354 6.14C57.382 5.79333 57.7887 5.52667 58.2554 5.34C58.722 5.15333 59.2287 5.06 59.7754 5.06C60.5887 5.06 61.342 5.26 62.0354 5.66C62.742 6.04667 63.302 6.60667 63.7154 7.34C64.1287 8.06 64.3354 8.88667 64.3354 9.82C64.3354 10.7933 64.1087 11.6533 63.6554 12.4C63.2154 13.1333 62.602 13.7 61.8154 14.1C61.0287 14.4867 60.142 14.68 59.1554 14.68ZM59.0554 12.68C59.5354 12.68 59.9754 12.5667 60.3754 12.34C60.7754 12.1 61.082 11.76 61.2954 11.32C61.522 10.88 61.6354 10.3733 61.6354 9.8C61.6354 9.22667 61.5287 8.73333 61.3154 8.32C61.102 7.89333 60.7954 7.57333 60.3954 7.36C60.0087 7.13333 59.5687 7.02 59.0754 7.02C58.582 7.02 58.142 7.13333 57.7554 7.36C57.3687 7.57333 57.062 7.89333 56.8354 8.32C56.622 8.73333 56.5154 9.22667 56.5154 9.8C56.5154 10.3733 56.622 10.88 56.8354 11.32C57.062 11.76 57.3687 12.1 57.7554 12.34C58.142 12.5667 58.5754 12.68 59.0554 12.68Z" fill="var(--fill-0, #EC5CF0)"/>
<path id="Vector_2" d="M42.5229 12.94C42.5229 12.1133 42.6429 11.4067 42.8829 10.82C43.1229 10.2333 43.523 9.69333 44.083 9.2C44.6563 8.69333 45.4763 8.16667 46.5429 7.62L47.483 7.14C48.3363 6.7 48.943 6.26 49.303 5.82C49.663 5.36667 49.8429 4.82667 49.8429 4.2C49.8429 3.50667 49.6563 2.97333 49.283 2.6C48.923 2.22667 48.4096 2.04 47.743 2.04C47.0496 2.04 46.503 2.26 46.103 2.7C45.703 3.12667 45.503 3.76 45.503 4.6H42.823C42.823 3.64 43.023 2.82 43.423 2.14C43.8363 1.44667 44.4096 0.926667 45.143 0.580001C45.8896 0.220001 46.7563 0.0400009 47.743 0.0400009C48.7163 0.0400009 49.563 0.206667 50.283 0.54C51.003 0.873334 51.563 1.34667 51.963 1.96C52.363 2.57333 52.563 3.31333 52.563 4.18C52.563 4.87333 52.423 5.5 52.143 6.06C51.863 6.62 51.4296 7.14667 50.843 7.64C50.2563 8.12 49.463 8.62 48.463 9.14L47.3429 9.7C46.7296 10.0333 46.263 10.3267 45.943 10.58C45.623 10.8333 45.4096 11.0867 45.303 11.34C45.1963 11.58 45.143 11.88 45.143 12.24H52.7229V14.34H42.5229V12.94Z" fill="var(--fill-0, #EC5CF0)"/>
<path id="Vector_3" d="M36.3001 14.68C34.5401 14.68 33.1735 14.0467 32.2001 12.78C31.2401 11.5 30.7601 9.68667 30.7601 7.34C30.7601 5.78 30.9735 4.45333 31.4001 3.36C31.8401 2.25333 32.4668 1.42 33.2801 0.86C34.1068 0.286667 35.1135 0 36.3001 0C38.0601 0 39.4201 0.64 40.3801 1.92C41.3401 3.18667 41.8201 4.99333 41.8201 7.34C41.8201 8.9 41.6068 10.2333 41.1801 11.34C40.7535 12.4333 40.1268 13.2667 39.3001 13.84C38.4735 14.4 37.4735 14.68 36.3001 14.68ZM36.3001 12.68C36.9135 12.68 37.4335 12.4867 37.8601 12.1C38.2868 11.7 38.6068 11.1067 38.8201 10.32C39.0335 9.53333 39.1401 8.54 39.1401 7.34C39.1401 5.54 38.9001 4.2 38.4201 3.32C37.9401 2.44 37.2335 2 36.3001 2C35.6735 2 35.1468 2.19333 34.7201 2.58C34.3068 2.96667 33.9868 3.56 33.7601 4.36C33.5468 5.14667 33.4401 6.14 33.4401 7.34C33.4401 9.12667 33.6801 10.4667 34.1601 11.36C34.6401 12.24 35.3535 12.68 36.3001 12.68Z" fill="var(--fill-0, #EC5CF0)"/>
<path id="Vector_4" d="M19.7878 12.94C19.7878 12.1133 19.9078 11.4067 20.1478 10.82C20.3878 10.2333 20.7878 9.69333 21.3478 9.2C21.9212 8.69333 22.7412 8.16667 23.8078 7.62L24.7478 7.14C25.6012 6.7 26.2078 6.26 26.5678 5.82C26.9278 5.36667 27.1078 4.82667 27.1078 4.2C27.1078 3.50667 26.9212 2.97333 26.5478 2.6C26.1878 2.22667 25.6745 2.04 25.0078 2.04C24.3145 2.04 23.7678 2.26 23.3678 2.7C22.9678 3.12667 22.7678 3.76 22.7678 4.6H20.0878C20.0878 3.64 20.2878 2.82 20.6878 2.14C21.1012 1.44667 21.6745 0.926667 22.4078 0.580001C23.1545 0.220001 24.0212 0.0400009 25.0078 0.0400009C25.9812 0.0400009 26.8278 0.206667 27.5478 0.54C28.2678 0.873334 28.8278 1.34667 29.2278 1.96C29.6278 2.57333 29.8278 3.31333 29.8278 4.18C29.8278 4.87333 29.6878 5.5 29.4078 6.06C29.1278 6.62 28.6945 7.14667 28.1078 7.64C27.5212 8.12 26.7278 8.62 25.7278 9.14L24.6078 9.7C23.9945 10.0333 23.5278 10.3267 23.2078 10.58C22.8878 10.8333 22.6745 11.0867 22.5678 11.34C22.4612 11.58 22.4078 11.88 22.4078 12.24H29.9878V14.34H19.7878V12.94Z" fill="var(--fill-0, #EC5CF0)"/>
<path id="Vector_5" d="M9.58 17.96C7.62 17.96 5.91333 17.5933 4.46 16.86C3.02 16.14 1.91333 15.1067 1.14 13.76C0.38 12.4 0 10.8067 0 8.98C0 7.15333 0.38 5.57333 1.14 4.24C1.91333 2.89333 3.02 1.86 4.46 1.14C5.91333 0.419998 7.62 0.0599976 9.58 0.0599976C11.54 0.0599976 13.2333 0.419998 14.66 1.14C16.0867 1.84666 17.1733 2.86 17.92 4.18C18.68 5.5 19.06 7.04666 19.06 8.82V13.5H13.32C12.76 13.5 12.32 13.3867 12 13.16C11.6933 12.9333 11.54 12.6267 11.54 12.24V12.22C11.54 12.14 11.54 12.0533 11.54 11.96H11.5C11.3133 12.52 10.9667 12.9733 10.46 13.32C9.95333 13.6533 9.34 13.82 8.62 13.82C7.9 13.82 7.24 13.64 6.64 13.28C6.04 12.92 5.56667 12.3933 5.22 11.7C4.87333 11.0067 4.7 10.18 4.7 9.22C4.7 8.26 4.87333 7.43333 5.22 6.74C5.56667 6.03333 6.04 5.5 6.64 5.14C7.24 4.78 7.9 4.6 8.62 4.6C9.28667 4.6 9.86667 4.75333 10.36 5.06C10.8667 5.36667 11.2267 5.82 11.44 6.42H11.48C11.48 6.16666 11.48 5.88 11.48 5.56V4.94H14V10.82C14 11.0467 14.0533 11.2133 14.16 11.32C14.28 11.4267 14.4667 11.48 14.72 11.48H16.54V8.82C16.54 7.23333 16.26 5.94666 15.7 4.96C15.1533 3.96 14.36 3.22666 13.32 2.76C12.2933 2.29333 11.0467 2.06 9.58 2.06C8.14 2.06 6.89333 2.33333 5.84 2.88C4.8 3.41333 3.99333 4.2 3.42 5.24C2.84667 6.28 2.56 7.52666 2.56 8.98C2.56 10.4333 2.84667 11.68 3.42 12.72C3.99333 13.76 4.8 14.5467 5.84 15.08C6.89333 15.6267 8.14 15.9 9.58 15.9H19.06V17.96H9.58ZM9.46 11.84C9.87333 11.84 10.2333 11.7267 10.54 11.5C10.86 11.2733 11.1 10.9667 11.26 10.58C11.4333 10.18 11.52 9.72667 11.52 9.22C11.52 8.44667 11.3333 7.82 10.96 7.34C10.5867 6.86 10.0867 6.61333 9.46 6.6C9.03333 6.6 8.66667 6.70666 8.36 6.92C8.05333 7.13333 7.81333 7.44 7.64 7.84C7.48 8.22667 7.4 8.68667 7.4 9.22C7.4 9.75333 7.48 10.22 7.64 10.62C7.81333 11.0067 8.05333 11.3067 8.36 11.52C8.66667 11.7333 9.03333 11.84 9.46 11.84Z" fill="var(--fill-0, #EC5CF0)"/>
</g>
</svg>
