<svg preserveAspectRatio="none" width="100%" height="100%" overflow="visible" style="display: block;" viewBox="0 0 258.404 19.62" fill="none" xmlns="http://www.w3.org/2000/svg">
<g id="taeeunclarakim@gmail.com">
<path id="Vector" d="M242.424 4.62H244.904V6.24H244.944C245.251 5.64 245.671 5.16667 246.204 4.82C246.737 4.46 247.371 4.28 248.104 4.28C248.877 4.28 249.544 4.47333 250.104 4.86C250.664 5.24667 251.077 5.8 251.344 6.52H251.384C251.704 5.81333 252.151 5.26667 252.724 4.88C253.311 4.48 254.004 4.28 254.804 4.28C255.524 4.28 256.157 4.44667 256.704 4.78C257.251 5.11333 257.671 5.6 257.964 6.24C258.257 6.86667 258.404 7.62 258.404 8.5V15.62H255.884V8.76C255.884 7.93333 255.711 7.32 255.364 6.92C255.031 6.50667 254.564 6.3 253.964 6.3C253.551 6.3 253.171 6.40667 252.824 6.62C252.477 6.82 252.197 7.13333 251.984 7.56C251.784 7.97333 251.684 8.49333 251.684 9.12V15.62H249.144V8.76C249.144 7.93333 248.971 7.32 248.624 6.92C248.291 6.50667 247.831 6.3 247.244 6.3C246.817 6.3 246.431 6.40667 246.084 6.62C245.737 6.82 245.457 7.13333 245.244 7.56C245.044 7.98667 244.944 8.50667 244.944 9.12V15.62H242.424V4.62Z" fill="var(--fill-0, #EC5CF0)"/>
<path id="Vector_2" d="M235.516 15.96C234.463 15.96 233.516 15.7333 232.676 15.28C231.836 14.8133 231.169 14.1467 230.676 13.28C230.183 12.4 229.936 11.3467 229.936 10.12C229.936 8.89333 230.183 7.84667 230.676 6.98C231.169 6.1 231.836 5.43333 232.676 4.98C233.516 4.51333 234.463 4.28 235.516 4.28C236.556 4.28 237.496 4.51333 238.336 4.98C239.189 5.43333 239.863 6.1 240.356 6.98C240.849 7.84667 241.096 8.89333 241.096 10.12C241.096 11.3467 240.849 12.4 240.356 13.28C239.863 14.1467 239.189 14.8133 238.336 15.28C237.496 15.7333 236.556 15.96 235.516 15.96ZM235.516 13.96C236.103 13.96 236.609 13.8133 237.036 13.52C237.476 13.2267 237.809 12.8 238.036 12.24C238.276 11.6667 238.396 10.96 238.396 10.12C238.396 9.28 238.276 8.58 238.036 8.02C237.809 7.44667 237.476 7.01333 237.036 6.72C236.609 6.42667 236.103 6.28 235.516 6.28C234.929 6.28 234.416 6.42667 233.976 6.72C233.549 7.01333 233.216 7.44667 232.976 8.02C232.749 8.58 232.636 9.28 232.636 10.12C232.636 10.96 232.749 11.6667 232.976 12.24C233.216 12.8 233.549 13.2267 233.976 13.52C234.416 13.8133 234.929 13.96 235.516 13.96Z" fill="var(--fill-0, #EC5CF0)"/>
<path id="Vector_3" d="M224.08 15.96C222.973 15.96 222 15.72 221.16 15.24C220.32 14.76 219.667 14.08 219.2 13.2C218.733 12.3067 218.5 11.28 218.5 10.12C218.5 8.94667 218.72 7.92 219.16 7.04C219.613 6.16 220.26 5.48 221.1 5C221.94 4.52 222.933 4.28 224.08 4.28C225.093 4.28 225.973 4.47333 226.72 4.86C227.48 5.24667 228.067 5.78667 228.48 6.48C228.907 7.16 229.16 7.94 229.24 8.82H226.64C226.613 8.34 226.5 7.91333 226.3 7.54C226.1 7.15333 225.813 6.84667 225.44 6.62C225.067 6.39333 224.613 6.28 224.08 6.28C223.453 6.28 222.92 6.44 222.48 6.76C222.053 7.08 221.733 7.53333 221.52 8.12C221.307 8.69333 221.2 9.36 221.2 10.12C221.2 10.9067 221.313 11.5933 221.54 12.18C221.78 12.7533 222.113 13.1933 222.54 13.5C222.98 13.8067 223.493 13.96 224.08 13.96C224.587 13.96 225.027 13.8467 225.4 13.62C225.773 13.38 226.06 13.0867 226.26 12.74C226.46 12.3933 226.587 12.0267 226.64 11.64H229.24C229.133 12.44 228.86 13.1733 228.42 13.84C227.993 14.4933 227.407 15.0133 226.66 15.4C225.927 15.7733 225.067 15.96 224.08 15.96Z" fill="var(--fill-0, #EC5CF0)"/>
<path id="Vector_4" d="M214.97 12.94H217.67V15.62H214.97V12.94Z" fill="var(--fill-0, #EC5CF0)"/>
<path id="Vector_5" d="M211.114 0H213.634V15.62H211.114V0Z" fill="var(--fill-0, #EC5CF0)"/>
<path id="Vector_6" d="M206.514 4.62H209.034V15.62H206.514V4.62ZM206.474 0.440001H209.054V2.88H206.474V0.440001Z" fill="var(--fill-0, #EC5CF0)"/>
<path id="Vector_7" d="M201.804 13.56C201.457 14.36 200.951 14.96 200.284 15.36C199.617 15.76 198.851 15.96 197.984 15.96C197.264 15.96 196.617 15.8267 196.044 15.56C195.471 15.2933 195.017 14.8933 194.684 14.36C194.351 13.8267 194.184 13.1867 194.184 12.44C194.184 11.2667 194.577 10.3933 195.364 9.82C196.164 9.24667 197.164 8.96 198.364 8.96H200.144C200.677 8.96 201.077 8.86 201.344 8.66C201.611 8.44667 201.744 8.14667 201.744 7.76C201.744 7.28 201.544 6.91333 201.144 6.66C200.757 6.40667 200.257 6.28 199.644 6.28C198.924 6.28 198.351 6.44667 197.924 6.78C197.511 7.11333 197.284 7.58 197.244 8.18H194.604C194.684 6.95333 195.137 6 195.964 5.32C196.791 4.62667 198.004 4.28 199.604 4.28C200.684 4.28 201.571 4.44 202.264 4.76C202.957 5.08 203.464 5.52667 203.784 6.1C204.104 6.67333 204.264 7.34 204.264 8.1V12.82C204.264 13.0867 204.317 13.28 204.424 13.4C204.544 13.5067 204.737 13.56 205.004 13.56H205.424V15.62H203.704C203.104 15.62 202.644 15.48 202.324 15.2C202.004 14.9067 201.844 14.5 201.844 13.98V13.56H201.804ZM198.764 13.92C199.284 13.92 199.771 13.8067 200.224 13.58C200.677 13.3533 201.044 13 201.324 12.52C201.604 12.0267 201.744 11.42 201.744 10.7V9.68H201.704C201.517 10.0267 201.257 10.2867 200.924 10.46C200.591 10.62 200.144 10.7133 199.584 10.74L198.764 10.78C198.137 10.8067 197.664 10.96 197.344 11.24C197.037 11.52 196.884 11.8867 196.884 12.34C196.884 12.8067 197.037 13.1867 197.344 13.48C197.651 13.7733 198.124 13.92 198.764 13.92Z" fill="var(--fill-0, #EC5CF0)"/>
<path id="Vector_8" d="M176.962 4.62H179.442V6.24H179.482C179.789 5.64 180.209 5.16667 180.742 4.82C181.276 4.46 181.909 4.28 182.642 4.28C183.416 4.28 184.082 4.47333 184.642 4.86C185.202 5.24667 185.616 5.8 185.882 6.52H185.922C186.242 5.81333 186.689 5.26667 187.262 4.88C187.849 4.48 188.542 4.28 189.342 4.28C190.062 4.28 190.696 4.44667 191.242 4.78C191.789 5.11333 192.209 5.6 192.502 6.24C192.796 6.86667 192.942 7.62 192.942 8.5V15.62H190.422V8.76C190.422 7.93333 190.249 7.32 189.902 6.92C189.569 6.50667 189.102 6.3 188.502 6.3C188.089 6.3 187.709 6.40667 187.362 6.62C187.016 6.82 186.736 7.13333 186.522 7.56C186.322 7.97333 186.222 8.49333 186.222 9.12V15.62H183.682V8.76C183.682 7.93333 183.509 7.32 183.162 6.92C182.829 6.50667 182.369 6.3 181.782 6.3C181.356 6.3 180.969 6.40667 180.622 6.62C180.276 6.82 179.996 7.13333 179.782 7.56C179.582 7.98667 179.482 8.50667 179.482 9.12V15.62H176.962V4.62Z" fill="var(--fill-0, #EC5CF0)"/>
<path id="Vector_9" d="M168.474 19.62C167.421 19.62 166.614 19.4 166.054 18.96C165.508 18.52 165.234 17.9467 165.234 17.24C165.234 16.6933 165.394 16.22 165.714 15.82C166.034 15.4333 166.494 15.1733 167.094 15.04V15C166.681 14.84 166.354 14.6 166.114 14.28C165.888 13.9467 165.774 13.56 165.774 13.12C165.774 12.6133 165.928 12.1933 166.234 11.86C166.541 11.5267 166.934 11.3333 167.414 11.28L167.674 11.24V11.2C167.034 10.9333 166.534 10.5267 166.174 9.98C165.814 9.43333 165.634 8.79333 165.634 8.06C165.634 7.27333 165.834 6.59333 166.234 6.02C166.634 5.44667 167.174 5.01333 167.854 4.72C168.548 4.42667 169.308 4.28 170.134 4.28C170.961 4.28 171.714 4.44 172.394 4.76C173.088 5.06667 173.634 5.50667 174.034 6.08C174.434 6.65333 174.634 7.31333 174.634 8.06C174.634 8.83333 174.434 9.50667 174.034 10.08C173.648 10.6533 173.121 11.0933 172.454 11.4C171.788 11.7067 171.041 11.86 170.214 11.86H168.954C168.634 11.86 168.388 11.92 168.214 12.04C168.054 12.1467 167.974 12.32 167.974 12.56C167.974 12.8 168.054 12.98 168.214 13.1C168.388 13.22 168.634 13.28 168.954 13.28H172.334C173.468 13.28 174.354 13.5667 174.994 14.14C175.648 14.7 175.974 15.4667 175.974 16.44C175.974 17.08 175.828 17.64 175.534 18.12C175.254 18.6 174.834 18.9667 174.274 19.22C173.728 19.4867 173.081 19.62 172.334 19.62H168.474ZM171.954 17.84C172.274 17.84 172.548 17.7867 172.774 17.68C173.014 17.5867 173.194 17.44 173.314 17.24C173.434 17.0533 173.494 16.8267 173.494 16.56C173.494 16.1467 173.354 15.8333 173.074 15.62C172.808 15.3933 172.434 15.28 171.954 15.28H168.914C168.581 15.28 168.301 15.3333 168.074 15.44C167.848 15.5467 167.674 15.6933 167.554 15.88C167.434 16.08 167.374 16.3067 167.374 16.56C167.374 16.96 167.501 17.2733 167.754 17.5C168.021 17.7267 168.408 17.84 168.914 17.84H171.954ZM170.134 10.08C170.521 10.08 170.874 10.0133 171.194 9.88C171.514 9.73333 171.768 9.52 171.954 9.24C172.141 8.94667 172.234 8.59333 172.234 8.18C172.234 7.56667 172.034 7.1 171.634 6.78C171.234 6.44667 170.734 6.28 170.134 6.28C169.734 6.28 169.374 6.35333 169.054 6.5C168.734 6.63333 168.481 6.84 168.294 7.12C168.121 7.4 168.034 7.75333 168.034 8.18C168.034 8.79333 168.228 9.26667 168.614 9.6C169.014 9.92 169.521 10.08 170.134 10.08ZM173.694 5.96H173.994C174.021 5.53333 174.148 5.20667 174.374 4.98C174.614 4.74 174.941 4.62 175.354 4.62H175.854V6.68H175.074C174.861 6.68 174.714 6.72667 174.634 6.82C174.554 6.91333 174.508 7.07333 174.494 7.3L173.694 5.96Z" fill="var(--fill-0, #EC5CF0)"/>
<path id="Vector_10" d="M155.026 19.24C153.066 19.24 151.36 18.8733 149.906 18.14C148.466 17.42 147.36 16.3867 146.586 15.04C145.826 13.68 145.446 12.0867 145.446 10.26C145.446 8.43333 145.826 6.85333 146.586 5.52C147.36 4.17333 148.466 3.14 149.906 2.42C151.36 1.7 153.066 1.34 155.026 1.34C156.986 1.34 158.68 1.7 160.106 2.42C161.533 3.12667 162.62 4.14 163.366 5.46C164.126 6.78 164.506 8.32667 164.506 10.1V14.78H158.766C158.206 14.78 157.766 14.6667 157.446 14.44C157.14 14.2133 156.986 13.9067 156.986 13.52V13.5C156.986 13.42 156.986 13.3333 156.986 13.24H156.946C156.76 13.8 156.413 14.2533 155.906 14.6C155.4 14.9333 154.786 15.1 154.066 15.1C153.346 15.1 152.686 14.92 152.086 14.56C151.486 14.2 151.013 13.6733 150.666 12.98C150.32 12.2867 150.146 11.46 150.146 10.5C150.146 9.54 150.32 8.71333 150.666 8.02C151.013 7.31333 151.486 6.78 152.086 6.42C152.686 6.06 153.346 5.88 154.066 5.88C154.733 5.88 155.313 6.03333 155.806 6.34C156.313 6.64667 156.673 7.1 156.886 7.7H156.926C156.926 7.44667 156.926 7.16 156.926 6.84V6.22H159.446V12.1C159.446 12.3267 159.5 12.4933 159.606 12.6C159.726 12.7067 159.913 12.76 160.166 12.76H161.986V10.1C161.986 8.51333 161.706 7.22667 161.146 6.24C160.6 5.24 159.806 4.50667 158.766 4.04C157.74 3.57333 156.493 3.34 155.026 3.34C153.586 3.34 152.34 3.61333 151.286 4.16C150.246 4.69333 149.44 5.48 148.866 6.52C148.293 7.56 148.006 8.80667 148.006 10.26C148.006 11.7133 148.293 12.96 148.866 14C149.44 15.04 150.246 15.8267 151.286 16.36C152.34 16.9067 153.586 17.18 155.026 17.18H164.506V19.24H155.026ZM154.906 13.12C155.32 13.12 155.68 13.0067 155.986 12.78C156.306 12.5533 156.546 12.2467 156.706 11.86C156.88 11.46 156.966 11.0067 156.966 10.5C156.966 9.72667 156.78 9.1 156.406 8.62C156.033 8.14 155.533 7.89333 154.906 7.88C154.48 7.88 154.113 7.98667 153.806 8.2C153.5 8.41333 153.26 8.72 153.086 9.12C152.926 9.50667 152.846 9.96667 152.846 10.5C152.846 11.0333 152.926 11.5 153.086 11.9C153.26 12.2867 153.5 12.5867 153.806 12.8C154.113 13.0133 154.48 13.12 154.906 13.12Z" fill="var(--fill-0, #EC5CF0)"/>
<path id="Vector_11" d="M127.908 4.62H130.388V6.24H130.428C130.735 5.64 131.155 5.16667 131.688 4.82C132.222 4.46 132.855 4.28 133.588 4.28C134.362 4.28 135.028 4.47333 135.588 4.86C136.148 5.24667 136.562 5.8 136.828 6.52H136.868C137.188 5.81333 137.635 5.26667 138.208 4.88C138.795 4.48 139.488 4.28 140.288 4.28C141.008 4.28 141.642 4.44667 142.188 4.78C142.735 5.11333 143.155 5.6 143.448 6.24C143.742 6.86667 143.888 7.62 143.888 8.5V15.62H141.368V8.76C141.368 7.93333 141.195 7.32 140.848 6.92C140.515 6.50667 140.048 6.3 139.448 6.3C139.035 6.3 138.655 6.40667 138.308 6.62C137.962 6.82 137.682 7.13333 137.468 7.56C137.268 7.97333 137.168 8.49333 137.168 9.12V15.62H134.628V8.76C134.628 7.93333 134.455 7.32 134.108 6.92C133.775 6.50667 133.315 6.3 132.728 6.3C132.302 6.3 131.915 6.40667 131.568 6.62C131.222 6.82 130.942 7.13333 130.728 7.56C130.528 7.98667 130.428 8.50667 130.428 9.12V15.62H127.908V4.62Z" fill="var(--fill-0, #EC5CF0)"/>
<path id="Vector_12" d="M123.308 4.62H125.828V15.62H123.308V4.62ZM123.268 0.440001H125.848V2.88H123.268V0.440001Z" fill="var(--fill-0, #EC5CF0)"/>
<path id="Vector_13" d="M112.673 0H115.193V9.42H115.233L119.333 4.62H122.373L118.373 9.12L122.773 15.62H119.633L116.693 11H116.653L115.193 12.66V15.62H112.673V0Z" fill="var(--fill-0, #EC5CF0)"/>
<path id="Vector_14" d="M107.963 13.56C107.617 14.36 107.11 14.96 106.443 15.36C105.777 15.76 105.01 15.96 104.143 15.96C103.423 15.96 102.777 15.8267 102.203 15.56C101.63 15.2933 101.177 14.8933 100.843 14.36C100.51 13.8267 100.343 13.1867 100.343 12.44C100.343 11.2667 100.737 10.3933 101.523 9.82C102.323 9.24667 103.323 8.96 104.523 8.96H106.303C106.837 8.96 107.237 8.86 107.503 8.66C107.77 8.44667 107.903 8.14667 107.903 7.76C107.903 7.28 107.703 6.91333 107.303 6.66C106.917 6.40667 106.417 6.28 105.803 6.28C105.083 6.28 104.51 6.44667 104.083 6.78C103.67 7.11333 103.443 7.58 103.403 8.18H100.763C100.843 6.95333 101.297 6 102.123 5.32C102.95 4.62667 104.163 4.28 105.763 4.28C106.843 4.28 107.73 4.44 108.423 4.76C109.117 5.08 109.623 5.52667 109.943 6.1C110.263 6.67333 110.423 7.34 110.423 8.1V12.82C110.423 13.0867 110.477 13.28 110.583 13.4C110.703 13.5067 110.897 13.56 111.163 13.56H111.583V15.62H109.863C109.263 15.62 108.803 15.48 108.483 15.2C108.163 14.9067 108.003 14.5 108.003 13.98V13.56H107.963ZM104.923 13.92C105.443 13.92 105.93 13.8067 106.383 13.58C106.837 13.3533 107.203 13 107.483 12.52C107.763 12.0267 107.903 11.42 107.903 10.7V9.68H107.863C107.677 10.0267 107.417 10.2867 107.083 10.46C106.75 10.62 106.303 10.7133 105.743 10.74L104.923 10.78C104.297 10.8067 103.823 10.96 103.503 11.24C103.197 11.52 103.043 11.8867 103.043 12.34C103.043 12.8067 103.197 13.1867 103.503 13.48C103.81 13.7733 104.283 13.92 104.923 13.92Z" fill="var(--fill-0, #EC5CF0)"/>
<path id="Vector_15" d="M94.1373 4.62H96.6173V6.36H96.6573C96.9373 5.76 97.2773 5.32 97.6773 5.04C98.0907 4.76 98.644 4.62 99.3373 4.62H100.397V6.68H98.8773C98.1173 6.68 97.5573 6.89333 97.1973 7.32C96.8373 7.73333 96.6573 8.39333 96.6573 9.3V15.62H94.1373V4.62Z" fill="var(--fill-0, #EC5CF0)"/>
<path id="Vector_16" d="M89.4275 13.56C89.0808 14.36 88.5742 14.96 87.9075 15.36C87.2408 15.76 86.4742 15.96 85.6075 15.96C84.8875 15.96 84.2408 15.8267 83.6675 15.56C83.0942 15.2933 82.6408 14.8933 82.3075 14.36C81.9742 13.8267 81.8075 13.1867 81.8075 12.44C81.8075 11.2667 82.2008 10.3933 82.9875 9.82C83.7875 9.24667 84.7875 8.96 85.9875 8.96H87.7675C88.3008 8.96 88.7008 8.86 88.9675 8.66C89.2342 8.44667 89.3675 8.14667 89.3675 7.76C89.3675 7.28 89.1675 6.91333 88.7675 6.66C88.3808 6.40667 87.8808 6.28 87.2675 6.28C86.5475 6.28 85.9742 6.44667 85.5475 6.78C85.1342 7.11333 84.9075 7.58 84.8675 8.18H82.2275C82.3075 6.95333 82.7608 6 83.5875 5.32C84.4142 4.62667 85.6275 4.28 87.2275 4.28C88.3075 4.28 89.1942 4.44 89.8875 4.76C90.5808 5.08 91.0875 5.52667 91.4075 6.1C91.7275 6.67333 91.8875 7.34 91.8875 8.1V12.82C91.8875 13.0867 91.9408 13.28 92.0475 13.4C92.1675 13.5067 92.3608 13.56 92.6275 13.56H93.0475V15.62H91.3275C90.7275 15.62 90.2675 15.48 89.9475 15.2C89.6275 14.9067 89.4675 14.5 89.4675 13.98V13.56H89.4275ZM86.3875 13.92C86.9075 13.92 87.3942 13.8067 87.8475 13.58C88.3008 13.3533 88.6675 13 88.9475 12.52C89.2275 12.0267 89.3675 11.42 89.3675 10.7V9.68H89.3275C89.1408 10.0267 88.8808 10.2867 88.5475 10.46C88.2142 10.62 87.7675 10.7133 87.2075 10.74L86.3875 10.78C85.7608 10.8067 85.2875 10.96 84.9675 11.24C84.6608 11.52 84.5075 11.8867 84.5075 12.34C84.5075 12.8067 84.6608 13.1867 84.9675 13.48C85.2742 13.7733 85.7475 13.92 86.3875 13.92Z" fill="var(--fill-0, #EC5CF0)"/>
<path id="Vector_17" d="M78.0233 0H80.5433V15.62H78.0233V0Z" fill="var(--fill-0, #EC5CF0)"/>
<path id="Vector_18" d="M71.7794 15.96C70.6727 15.96 69.6994 15.72 68.8594 15.24C68.0194 14.76 67.366 14.08 66.8994 13.2C66.4327 12.3067 66.1994 11.28 66.1994 10.12C66.1994 8.94667 66.4194 7.92 66.8594 7.04C67.3127 6.16 67.9594 5.48 68.7994 5C69.6394 4.52 70.6327 4.28 71.7794 4.28C72.7927 4.28 73.6727 4.47333 74.4194 4.86C75.1794 5.24667 75.766 5.78667 76.1794 6.48C76.606 7.16 76.8594 7.94 76.9394 8.82H74.3394C74.3127 8.34 74.1994 7.91333 73.9994 7.54C73.7994 7.15333 73.5127 6.84667 73.1394 6.62C72.766 6.39333 72.3127 6.28 71.7794 6.28C71.1527 6.28 70.6194 6.44 70.1794 6.76C69.7527 7.08 69.4327 7.53333 69.2194 8.12C69.006 8.69333 68.8994 9.36 68.8994 10.12C68.8994 10.9067 69.0127 11.5933 69.2394 12.18C69.4794 12.7533 69.8127 13.1933 70.2394 13.5C70.6794 13.8067 71.1927 13.96 71.7794 13.96C72.286 13.96 72.726 13.8467 73.0994 13.62C73.4727 13.38 73.7594 13.0867 73.9594 12.74C74.1594 12.3933 74.286 12.0267 74.3394 11.64H76.9394C76.8327 12.44 76.5594 13.1733 76.1194 13.84C75.6927 14.4933 75.106 15.0133 74.3594 15.4C73.626 15.7733 72.766 15.96 71.7794 15.96Z" fill="var(--fill-0, #EC5CF0)"/>
<path id="Vector_19" d="M55.2686 4.62H57.7486V6.3H57.7886C58.1219 5.64667 58.5753 5.14667 59.1486 4.8C59.7353 4.45333 60.4086 4.28 61.1686 4.28C61.9153 4.28 62.5686 4.45333 63.1286 4.8C63.6886 5.13333 64.1219 5.63333 64.4286 6.3C64.7353 6.96667 64.8886 7.77333 64.8886 8.72V15.62H62.3686V9.02C62.3686 8.1 62.1819 7.42 61.8086 6.98C61.4486 6.52667 60.9419 6.3 60.2886 6.3C59.8353 6.3 59.4219 6.40667 59.0486 6.62C58.6753 6.82 58.3686 7.14667 58.1286 7.6C57.9019 8.05333 57.7886 8.62667 57.7886 9.32V15.62H55.2686V4.62Z" fill="var(--fill-0, #EC5CF0)"/>
<path id="Vector_20" d="M47.3559 15.96C46.5826 15.96 45.9159 15.7933 45.3559 15.46C44.7959 15.1133 44.3626 14.6067 44.0559 13.94C43.7493 13.2733 43.5959 12.4667 43.5959 11.52V4.62H46.1159V11.22C46.1159 12.1533 46.2959 12.84 46.6559 13.28C47.0159 13.72 47.5293 13.94 48.1959 13.94C48.6493 13.94 49.0626 13.84 49.4359 13.64C49.8093 13.4267 50.1093 13.0933 50.3359 12.64C50.5626 12.1867 50.6759 11.6133 50.6759 10.92V4.62H53.1959V15.62H50.7159V13.94H50.6759C50.3426 14.6067 49.8893 15.1133 49.3159 15.46C48.7559 15.7933 48.1026 15.96 47.3559 15.96Z" fill="var(--fill-0, #EC5CF0)"/>
<path id="Vector_21" d="M37.0781 15.96C35.9981 15.96 35.0448 15.7267 34.2181 15.26C33.3915 14.7933 32.7515 14.12 32.2981 13.24C31.8448 12.36 31.6181 11.32 31.6181 10.12C31.6181 8.92 31.8448 7.88 32.2981 7C32.7648 6.12 33.4048 5.44667 34.2181 4.98C35.0448 4.51333 35.9915 4.28 37.0581 4.28C38.0715 4.28 38.9781 4.48667 39.7781 4.9C40.5781 5.31333 41.2048 5.92667 41.6581 6.74C42.1115 7.55333 42.3381 8.54 42.3381 9.7V10.84H34.2981C34.3381 11.4667 34.4715 12.02 34.6981 12.5C34.9381 12.9667 35.2648 13.3267 35.6781 13.58C36.0915 13.8333 36.5715 13.96 37.1181 13.96C37.7315 13.96 38.2515 13.8067 38.6781 13.5C39.1048 13.1933 39.4115 12.7733 39.5981 12.24H42.1981C42.0381 12.9733 41.7248 13.62 41.2581 14.18C40.8048 14.74 40.2181 15.18 39.4981 15.5C38.7781 15.8067 37.9715 15.96 37.0781 15.96ZM39.7981 9.02C39.7981 8.47333 39.6915 7.99333 39.4781 7.58C39.2648 7.16667 38.9581 6.84667 38.5581 6.62C38.1581 6.39333 37.6781 6.28 37.1181 6.28C36.5581 6.28 36.0781 6.4 35.6781 6.64C35.2781 6.88 34.9648 7.20667 34.7381 7.62C34.5115 8.02 34.3715 8.48667 34.3181 9.02H39.7981Z" fill="var(--fill-0, #EC5CF0)"/>
<path id="Vector_22" d="M25.525 15.96C24.445 15.96 23.4917 15.7267 22.665 15.26C21.8383 14.7933 21.1983 14.12 20.745 13.24C20.2917 12.36 20.065 11.32 20.065 10.12C20.065 8.92 20.2917 7.88 20.745 7C21.2117 6.12 21.8517 5.44667 22.665 4.98C23.4917 4.51333 24.4383 4.28 25.505 4.28C26.5183 4.28 27.425 4.48667 28.225 4.9C29.025 5.31333 29.6517 5.92667 30.105 6.74C30.5583 7.55333 30.785 8.54 30.785 9.7V10.84H22.745C22.785 11.4667 22.9183 12.02 23.145 12.5C23.385 12.9667 23.7117 13.3267 24.125 13.58C24.5383 13.8333 25.0183 13.96 25.565 13.96C26.1783 13.96 26.6983 13.8067 27.125 13.5C27.5517 13.1933 27.8583 12.7733 28.045 12.24H30.645C30.485 12.9733 30.1717 13.62 29.705 14.18C29.2517 14.74 28.665 15.18 27.945 15.5C27.225 15.8067 26.4183 15.96 25.525 15.96ZM28.245 9.02C28.245 8.47333 28.1383 7.99333 27.925 7.58C27.7117 7.16667 27.405 6.84667 27.005 6.62C26.605 6.39333 26.125 6.28 25.565 6.28C25.005 6.28 24.525 6.4 24.125 6.64C23.725 6.88 23.4117 7.20667 23.185 7.62C22.9583 8.02 22.8183 8.48667 22.765 9.02H28.245Z" fill="var(--fill-0, #EC5CF0)"/>
<path id="Vector_23" d="M16.1338 13.56C15.7871 14.36 15.2804 14.96 14.6138 15.36C13.9471 15.76 13.1804 15.96 12.3138 15.96C11.5938 15.96 10.9471 15.8267 10.3738 15.56C9.80042 15.2933 9.34709 14.8933 9.01375 14.36C8.68042 13.8267 8.51375 13.1867 8.51375 12.44C8.51375 11.2667 8.90708 10.3933 9.69375 9.82C10.4938 9.24667 11.4938 8.96 12.6938 8.96H14.4738C15.0071 8.96 15.4071 8.86 15.6738 8.66C15.9404 8.44667 16.0738 8.14667 16.0738 7.76C16.0738 7.28 15.8738 6.91333 15.4738 6.66C15.0871 6.40667 14.5871 6.28 13.9738 6.28C13.2538 6.28 12.6804 6.44667 12.2538 6.78C11.8404 7.11333 11.6138 7.58 11.5738 8.18H8.93375C9.01375 6.95333 9.46709 6 10.2938 5.32C11.1204 4.62667 12.3338 4.28 13.9338 4.28C15.0138 4.28 15.9004 4.44 16.5938 4.76C17.2871 5.08 17.7938 5.52667 18.1138 6.1C18.4338 6.67333 18.5938 7.34 18.5938 8.1V12.82C18.5938 13.0867 18.6471 13.28 18.7538 13.4C18.8738 13.5067 19.0671 13.56 19.3338 13.56H19.7538V15.62H18.0338C17.4338 15.62 16.9738 15.48 16.6538 15.2C16.3338 14.9067 16.1738 14.5 16.1738 13.98V13.56H16.1338ZM13.0938 13.92C13.6138 13.92 14.1004 13.8067 14.5538 13.58C15.0071 13.3533 15.3738 13 15.6538 12.52C15.9338 12.0267 16.0738 11.42 16.0738 10.7V9.68H16.0338C15.8471 10.0267 15.5871 10.2867 15.2538 10.46C14.9204 10.62 14.4738 10.7133 13.9138 10.74L13.0938 10.78C12.4671 10.8067 11.9938 10.96 11.6738 11.24C11.3671 11.52 11.2138 11.8867 11.2138 12.34C11.2138 12.8067 11.3671 13.1867 11.6738 13.48C11.9804 13.7733 12.4538 13.92 13.0938 13.92Z" fill="var(--fill-0, #EC5CF0)"/>
<path id="Vector_24" d="M5.12 15.62C4.13333 15.62 3.38667 15.3733 2.88 14.88C2.37333 14.3733 2.12 13.6267 2.12 12.64V1.62H4.66V12.26C4.66 12.7133 4.76667 13.0467 4.98 13.26C5.20667 13.46 5.54 13.56 5.98 13.56H8.04V15.62H5.12ZM0 4.62H7.98V6.68H0V4.62Z" fill="var(--fill-0, #EC5CF0)"/>
</g>
</svg>
