<svg preserveAspectRatio="none" width="100%" height="100%" overflow="visible" style="display: block;" viewBox="0 0 40 39.9918" fill="none" xmlns="http://www.w3.org/2000/svg">
<g id="Group">
<path id="Vector" d="M7.08336 0H32.9166C36.8333 0 40 3.24725 40 7.26349V32.7283C40 36.7446 36.8333 39.9918 32.9166 39.9918H7.08336C3.16672 39.9918 0 36.7446 0 32.7283V7.26349C0 3.24725 3.16672 0 7.08336 0Z" fill="var(--fill-0, black)"/>
<path id="Vector_2" d="M16.0674 23.9275H9.86744L8.60072 27.9608C8.56744 28.1145 8.434 28.217 8.28408 28.2H5.1508C4.96744 28.2 4.91752 28.0974 4.96744 27.8923L10.3342 12.1178C10.3841 11.9468 10.4342 11.7931 10.5009 11.588C10.5676 11.2292 10.6009 10.8531 10.6009 10.4771C10.5842 10.3916 10.6508 10.3061 10.7342 10.2891H15.0508C15.1674 10.2891 15.2508 10.3403 15.2674 10.4257L21.3508 27.8581C21.4009 28.0461 21.3508 28.1316 21.1841 28.1316H17.7007C17.5841 28.1486 17.4674 28.0631 17.434 27.9435L16.0673 23.8418L16.0674 23.9275ZM10.8342 20.5265H15.0674C14.9674 20.1677 14.8342 19.7403 14.6841 19.296C14.534 18.8346 14.3841 18.3389 14.2342 17.8262C14.0674 17.2965 13.9175 16.7837 13.7508 16.254C13.5841 15.7242 13.4342 15.2285 13.3009 14.7329C13.1676 14.2543 13.051 13.81 12.9342 13.3998H12.9009C12.7508 14.1347 12.5676 14.8695 12.3342 15.6046C12.0842 16.4249 11.8342 17.2794 11.5674 18.134C11.3508 19.0056 11.0841 19.8087 10.8342 20.5265ZM31.1674 22.3893H25.8841C25.9508 22.9191 26.1174 23.4489 26.4007 23.9104C26.7007 24.3718 27.1174 24.7307 27.6174 24.9358C28.2841 25.2264 29.0174 25.3801 29.7506 25.3631C30.334 25.346 30.9174 25.2946 31.4839 25.175C32.0006 25.1066 32.5006 24.97 32.9673 24.7819C33.0506 24.7135 33.1006 24.7478 33.1006 24.9186V27.5335C33.1006 27.6019 33.0839 27.6702 33.0673 27.7386C33.034 27.79 33.0006 27.8241 32.9506 27.8582C32.4174 28.0974 31.8673 28.2684 31.2839 28.3709C30.5006 28.5247 29.7172 28.5931 28.9172 28.576C27.6505 28.576 26.5839 28.3709 25.7172 27.9778C24.9006 27.6188 24.1839 27.0549 23.6172 26.3542C23.0839 25.6878 22.7006 24.9357 22.4673 24.1153C22.234 23.312 22.1172 22.4746 22.1172 21.6202C22.1172 20.6973 22.2505 19.7914 22.5338 18.9027C22.8006 18.0482 23.2172 17.262 23.7838 16.5613C24.3338 15.8776 25.017 15.3307 25.8004 14.9376C26.5838 14.5445 27.517 14.4079 28.5838 14.4079C29.4671 14.3908 30.3505 14.5618 31.1671 14.9376C31.8505 15.2453 32.4505 15.7068 32.9172 16.3048C33.3505 16.886 33.7006 17.5353 33.9172 18.2531C34.1338 18.9368 34.2338 19.6374 34.2338 20.3381C34.2338 20.7483 34.2172 21.1073 34.2006 21.432C34.1673 21.7567 34.1505 21.996 34.1338 22.1498C34.1172 22.2694 34.0172 22.3719 33.9006 22.3719C33.8006 22.3719 33.6172 22.389 33.3505 22.4061C33.0838 22.4402 32.7671 22.4574 32.3838 22.4574C32.0004 22.4574 31.6007 22.3893 31.1674 22.3893ZM25.8841 19.8942H29.4007C29.834 19.8942 30.1508 19.8942 30.3506 19.8771C30.4839 19.86 30.6174 19.8257 30.734 19.7404V19.5695C30.734 19.3473 30.7007 19.1422 30.634 18.9371C30.334 17.9801 29.4506 17.3306 28.4673 17.3649C27.5506 17.3135 26.6839 17.8092 26.2506 18.6638C26.0506 19.0569 25.9342 19.467 25.8841 19.8942Z" fill="var(--fill-0, white)"/>
</g>
</svg>
