<svg preserveAspectRatio="none" width="100%" height="100%" overflow="visible" style="display: block;" viewBox="0 0 40 40" fill="none" xmlns="http://www.w3.org/2000/svg">
<g id="2069a460dcf28295e231f3111e03585e 1" clip-path="url(#clip0_260_262)">
<path id="Vector" d="M17.8382 16.9372L19.2318 21.6574H14.4935L15.8872 16.9372C16.1658 15.8266 16.4446 14.4383 16.7233 13.3276C17.0021 14.4383 17.2807 15.8266 17.5595 16.9372H17.8382ZM39.8572 6.66382V33.0414C39.8572 36.651 36.7913 39.7052 33.1679 39.7052H6.68931C3.06593 39.7052 0 36.651 0 33.0414V6.66382C0 3.05425 3.06593 0 6.68931 0H33.1679C36.7913 0 39.8572 3.05425 39.8572 6.66382ZM25.3637 29.4319L19.2318 10.551H14.7722L8.64037 29.4319H12.2637L13.9361 24.1564H20.068L21.7403 29.4319H25.3637ZM31.2168 15.8266H27.8721V29.4319H31.2168V15.8266ZM31.4955 12.217C31.4955 11.1064 30.6594 10.2734 29.5445 10.2734C28.4296 10.2734 27.5934 11.1064 27.5934 12.217C27.5934 13.3276 28.4296 14.1606 29.5445 14.1606C30.6594 14.1606 31.4955 13.3276 31.4955 12.217Z" fill="var(--fill-0, black)"/>
</g>
<defs>
<clipPath id="clip0_260_262">
<rect width="40" height="40" fill="white"/>
</clipPath>
</defs>
</svg>
