<svg preserveAspectRatio="none" width="100%" height="100%" overflow="visible" style="display: block;" viewBox="0 0 28 41" fill="none" xmlns="http://www.w3.org/2000/svg">
<g id="Vector-1 1" clip-path="url(#clip0_260_249)">
<path id="Vector" d="M14 2H7.99999C4.72727 2 2 4.80303 2 8.16667C2 11.5303 4.72727 14.3333 7.99999 14.3333M14 2H20C23.2727 2 26 4.80303 26 8.16667C26 11.5303 23.2727 14.3333 20 14.3333M7.99999 14.3333C4.72727 14.3333 2 17.1364 2 20.5C2 23.8636 4.72727 26.6667 7.99999 26.6667M20 14.3333C23.2727 14.3333 26 17.1364 26 20.5C26 23.8636 23.2727 26.6667 20 26.6667C16.7273 26.6667 14 23.8636 14 20.5C14 17.1364 16.7273 14.3333 20 14.3333ZM14 26.6667V32.8333C14 36.197 11.2727 39 7.99999 39C4.72727 39 2 36.197 2 32.8333C2 29.4697 4.72727 26.6667 7.99999 26.6667" fill="var(--fill-0, #F9F8F4)"/>
<path id="Vector_2" d="M14 2H7.99999C4.72727 2 2 4.80303 2 8.16667C2 11.5303 4.72727 14.3333 7.99999 14.3333M14 2V14.3333M14 2H20C23.2727 2 26 4.80303 26 8.16667C26 11.5303 23.2727 14.3333 20 14.3333M7.99999 14.3333H14M7.99999 14.3333C4.72727 14.3333 2 17.1364 2 20.5C2 23.8636 4.72727 26.6667 7.99999 26.6667M14 14.3333H20M14 14.3333V26.6667M20 14.3333C23.2727 14.3333 26 17.1364 26 20.5C26 23.8636 23.2727 26.6667 20 26.6667C16.7273 26.6667 14 23.8636 14 20.5C14 17.1364 16.7273 14.3333 20 14.3333ZM7.99999 26.6667H14M7.99999 26.6667C4.72727 26.6667 2 29.4697 2 32.8333C2 36.197 4.72727 39 7.99999 39C11.2727 39 14 36.197 14 32.8333V26.6667" stroke="var(--stroke-0, black)" stroke-width="4" stroke-miterlimit="10"/>
</g>
<defs>
<clipPath id="clip0_260_249">
<rect width="28" height="41" fill="white"/>
</clipPath>
</defs>
</svg>
