<svg preserveAspectRatio="none" width="100%" height="100%" overflow="visible" style="display: block;" viewBox="0 0 47 39" fill="none" xmlns="http://www.w3.org/2000/svg">
<path id="Vector" d="M46.1989 21.2727C45.9318 19.3636 45.1307 17.4545 44.3295 15.8182C43.5284 14.4545 42.1932 13.0909 40.858 12L26.1705 0.545457C25.6364 0.272729 25.1023 0 24.3011 0C23.5 0 22.9659 2.08616e-06 22.4318 0.545457C21.8977 0.818184 21.6307 1.36364 21.6307 2.18182C21.6307 2.72727 21.6307 3.27273 22.4318 3.54545C23.5 4.36364 24.3011 5.18182 25.3693 5.72727C26.1705 6.54546 27.2386 7.36364 28.0398 7.90909H10.1477C8.01136 7.90909 6.67614 9 6.40909 10.6364C6.40909 11.4545 6.40909 12.2727 6.94318 12.8182C7.47727 13.3636 8.27841 13.9091 9.07954 13.9091H10.4148C12.2841 13.9091 14.1534 13.9091 16.0227 13.9091H17.892L1.60227 26.1818C0.801136 27 0 27.8182 0 28.9091C0 29.7273 -5.36442e-07 30.2727 0.53409 31.0909C1.06818 31.6364 1.86932 32.1818 2.9375 32.1818C4.00568 32.1818 4.80682 31.9091 5.60796 31.0909L14.4205 23.7273C14.4205 24 14.4205 24.5455 14.4205 25.0909C14.4205 25.6364 14.4205 27 14.9545 27.8182C15.4886 29.7273 16.5568 31.6364 18.1591 33.2727C19.7614 34.9091 21.3636 36.2727 23.5 37.3636C25.6364 38.4545 28.0398 39 30.7102 39C33.1136 39 35.517 38.4545 37.9205 37.3636C40.0568 36.2727 41.9261 35.1818 43.2614 33.2727C44.5966 31.6364 45.6648 29.7273 46.4659 27.8182C46.733 26.7273 47 25.9091 47 24.8182C47 23.7273 47 22.9091 47 21.8182L46.1989 21.2727ZM30.1761 30.8182C24.5682 30.8182 20.2955 26.7273 20.2955 21.8182C20.2955 16.9091 24.8352 12.8182 30.1761 12.8182C35.517 12.8182 40.0568 16.9091 40.0568 21.8182C40.0568 26.7273 35.517 30.8182 30.1761 30.8182ZM36.0511 21C36.0511 22.3636 35.517 24 34.4489 24.8182C33.3807 25.9091 31.7784 26.4545 30.1761 26.4545C28.5739 26.4545 26.9716 25.9091 25.9034 24.8182C24.8352 23.7273 24.3011 22.3636 24.3011 21C24.3011 19.6364 25.1023 18.2727 26.1705 17.4545C27.2386 16.6364 28.5739 16.0909 30.1761 16.0909C31.7784 16.0909 33.1136 16.6364 34.1818 17.4545C35.25 18.2727 36.0511 19.6364 36.0511 21Z" fill="var(--fill-0, black)"/>
</svg>
