<svg preserveAspectRatio="none" width="100%" height="100%" overflow="visible" style="display: block;" viewBox="0 0 36.8776 16.2808" fill="none" xmlns="http://www.w3.org/2000/svg">
<g id="Group">
<path id="Vector" d="M9.20645 10.9957C8.00513 11.9361 6.20857 13.3438 3.80631 15.2243C3.15651 14.7168 2.17379 13.9474 0.852525 12.9165C2.24478 11.8253 4.33056 10.1912 7.11507 8.01412V1.0503H11.3247V8.0093C12.717 9.10043 14.8028 10.7345 17.5876 12.9116C16.9158 13.4195 15.9222 14.1886 14.601 15.2195C13.3997 14.2791 11.6035 12.8714 9.20084 10.9909L9.20645 10.9957ZM24.5056 0.517298H28.7152V6.49081H36.3428V9.78896H28.7152V15.7625H24.5056V0.517298Z" fill="var(--fill-0, black)"/>
<path id="Vector_2" d="M28.9341 0.315647V6.28916H36.562V9.99129H28.9341V15.9651H24.2857V0.315647H28.9341ZM11.5439 0.848653V7.91604C12.9354 9.00683 14.9954 10.6206 17.7291 12.7578L17.9294 12.9144L17.7265 13.0682C17.0562 13.5747 16.0637 14.3431 14.7421 15.374L14.6001 15.4848L14.4585 15.3736C13.8576 14.9036 13.1081 14.3166 12.2087 13.6122C11.3463 12.9367 10.3456 12.1529 9.20594 11.261C8.6305 11.7114 7.92839 12.2616 7.09811 12.912C6.19872 13.6163 5.14911 14.4384 3.94816 15.3788L3.80579 15.4899L3.66381 15.3791C3.01402 14.8709 2.03129 14.1019 0.710031 13.0709L0.512733 12.9171L0.709655 12.763C2.08883 11.6822 4.14919 10.0684 6.89522 7.92155V0.848653H11.5439Z" stroke="var(--stroke-0, #46779B)" stroke-opacity="0.55" stroke-width="0.631295"/>
</g>
</svg>
