<svg preserveAspectRatio="none" width="100%" height="100%" overflow="visible" style="display: block;" viewBox="0 0 77 160" fill="none" xmlns="http://www.w3.org/2000/svg">
<path id="Vector 22783" d="M13.4097 35.9171C16.3074 36.4991 25.4062 37.663 38.6197 37.663C51.8332 37.663 61.4717 36.4991 64.6393 35.9171M64.6393 35.9171C69.258 69.7223 74.6136 108.746 75.1307 111.862C76 117.099 76 123.21 76 129.32C76 135.431 71.6534 143.287 66.4376 149.398C61.2217 155.508 53.3979 159 39.489 159C25.58 159 16.0176 154.635 10.8018 149.398C5.58593 144.16 2.10849 134.558 1.23918 129.32C0.543735 125.13 1.52895 115.936 2.10849 111.862L17.7561 4.49171C20.0743 3.32781 27.6664 1 39.489 1C51.3116 1 58.324 3.32781 60.3524 4.49171C61.5413 13.2216 63.0465 24.259 64.6393 35.9171ZM23.8414 21.9503H22.1028L21.2335 33.2983C23.736 33.5496 29.5669 34.018 35.1425 34.141M23.8414 21.9503L35.1425 28.9337V34.141M23.8414 21.9503H55.1366M35.1425 34.141C36.0228 34.1604 36.8968 34.1713 37.7504 34.1713C39.242 34.1713 40.9279 34.1382 42.6856 34.0839M42.6856 34.0839C48.3032 33.9104 54.6545 33.52 57.7445 33.2983L56.8752 21.9503H55.1366M42.6856 34.0839V28.9337L55.1366 21.9503" stroke="var(--stroke-0, black)" stroke-width="2"/>
</svg>
