<svg preserveAspectRatio="none" width="100%" height="100%" overflow="visible" style="display: block;" viewBox="0 0 20.5351 53.9159" fill="none" xmlns="http://www.w3.org/2000/svg">
<g id="Group">
<path id="Vector" d="M19.9991 14.7168V18.0149H12.3716V23.9884H8.16153V18.0149H0.53401V14.7168H20.0047H19.9991ZM17.2254 0.517305V11.4183H3.29686V0.517305H17.2254ZM7.51173 45.79V50.1294H17.231V53.3976H3.30208V42.4967H10.0672C8.55461 41.315 6.29995 39.5454 3.30208 37.2021V34.8942H13.021V30.5552H3.30208V27.2567H17.231V38.1876H10.4659C11.9781 39.354 14.2331 41.1089 17.231 43.457V45.7952H7.51173V45.79ZM13.0158 8.12492V3.81581H7.50651V8.12492H13.0158Z" fill="var(--fill-0, black)"/>
<path id="Vector_2" d="M20.0057 14.5151V14.7171H20.2194V18.2176H12.5915V24.1908H7.94318V18.2176H0.315647V14.5151H20.0057ZM17.4461 0.315647V11.6206H3.07812V0.315647H17.4461ZM7.72681 7.92327H12.797V4.01812H7.72681V7.92327ZM17.4513 45.9975H7.73242V49.9278H17.4513V53.6003H3.08373V42.295H9.47144C7.9753 41.1251 5.8701 39.4741 3.16106 37.3566L3.08373 37.296V34.6926H12.8026V30.7575H3.08373V27.055H17.4513V38.3902H11.0688C12.5653 39.5471 14.6672 41.1833 17.374 43.3036L17.4513 43.3641V45.9975Z" stroke="var(--stroke-0, #46779B)" stroke-opacity="0.55" stroke-width="0.631295"/>
</g>
</svg>
