<svg preserveAspectRatio="none" width="100%" height="100%" overflow="visible" style="display: block;" viewBox="0 0 252 250" fill="none" xmlns="http://www.w3.org/2000/svg">
<g id="_&#235;&#160;&#136;&#236;&#157;&#180;&#236;&#150;&#180;_1" clip-path="url(#clip0_241_1213)">
<path id="Vector" d="M234.973 126.639C237.126 122.705 240.031 119.225 242.184 115.241C278.492 48.2147 204.625 -26.3768 137.719 9.73371C137.719 9.73371 137.468 9.88501 137.118 10.0867C132.11 13.0623 128.454 15.4832 126.05 17.1475C123.646 15.4832 119.99 13.0119 114.983 10.0363C114.632 9.83458 114.382 9.68328 114.382 9.68328C47.4253 -26.4273 -26.492 48.1642 9.81558 115.191C11.969 119.124 14.8736 122.604 17.027 126.589C14.1224 131.985 10.1661 136.675 7.562 142.274C-10.3665 180.906 7.562 231.037 47.275 246.671C68.9595 255.195 94.7003 245.209 103.514 223.573C106.319 216.663 107.22 210.41 106.669 204.61C105.117 188.521 93.9491 177.628 83.6828 167.793C78.2242 162.548 46.9746 133.649 45.372 130.825C45.372 130.724 44.721 129.665 43.8196 128.303C43.3188 127.597 42.9181 126.992 42.6677 126.639C70.4618 98.8501 98.2059 71.0107 126 43.2217C153.794 71.0611 181.538 98.9005 209.332 126.74C209.082 127.093 208.681 127.648 208.18 128.404C207.279 129.766 206.678 130.825 206.628 130.926C205.025 133.75 173.826 162.649 168.317 167.894C158.051 177.728 146.883 188.572 145.331 204.711C144.78 210.46 145.631 216.764 148.486 223.674C157.3 245.259 183.041 255.296 204.725 246.772C244.438 231.138 262.366 181.007 244.438 142.374C241.834 136.827 237.878 132.086 234.973 126.69V126.639ZM48.0763 158.261C49.3784 159.572 51.4817 161.741 54.0858 164.313C74.1677 184.234 77.8235 186.857 82.8816 193.212C90.9444 203.298 89.0914 219.034 78.8752 226.952C61.097 240.67 36.1073 221.505 26.8426 205.77C15.6749 186.756 15.3744 157.454 30.2981 140.408C36.2075 146.359 42.1669 152.31 48.0763 158.261ZM106.87 36.4132C83.9833 63.5969 37.0588 106.415 37.0588 106.415C35.6566 107.726 32.9523 110.147 29.597 113.224C29.2965 112.871 28.996 112.467 28.6955 112.114C23.337 103.54 19.0302 92.4955 18.5294 82.3078C17.027 52.6024 36.0072 28.3942 61.4976 21.0813C78.4245 16.2397 92.3466 20.4257 95.2011 21.3335C102.813 23.8047 108.472 27.4864 111.978 30.1594C109.624 33.0845 107.771 35.3036 106.87 36.3627V36.4132ZM225.157 205.87C215.893 221.606 190.903 240.771 173.125 227.053C162.909 219.135 161.056 203.399 169.118 193.312C174.227 186.907 177.832 184.285 197.914 164.414C200.518 161.842 202.622 159.724 203.924 158.362L221.702 140.508C236.626 157.555 236.325 186.857 225.157 205.87ZM233.471 82.3583C232.97 92.5459 228.663 103.591 223.304 112.165C223.004 112.518 222.703 112.921 222.403 113.274C218.998 110.198 216.343 107.777 214.941 106.466C214.941 106.466 168.017 63.6474 145.13 36.4636C144.229 35.4045 142.376 33.1854 140.022 30.2602C143.528 27.5368 149.187 23.9056 156.799 21.4343C159.603 20.5265 173.576 16.3405 190.502 21.1822C215.993 28.4951 234.973 52.6528 233.471 82.4087V82.3583Z" stroke="var(--stroke-0, white)" stroke-miterlimit="10"/>
</g>
<defs>
<clipPath id="clip0_241_1213">
<rect width="252" height="250" fill="white"/>
</clipPath>
</defs>
</svg>
