<svg preserveAspectRatio="none" width="100%" height="100%" overflow="visible" style="display: block;" viewBox="0 0 54.8555 182.673" fill="none" xmlns="http://www.w3.org/2000/svg">
<g id="Group 1410167324">
<path id="Vector 22786" d="M6.15042 55.0736C6.32787 90.4446 6.6969 136.291 6.96266 165.657C8.63822 167.811 15.1489 172.12 27.787 172.12C40.425 172.12 46.9356 167.811 48.6111 165.657L49.1026 55.0736M6.15042 55.0736C7.85737 56.2704 14.5744 58.6639 27.787 58.6639C40.9995 58.6639 47.5026 56.2704 49.1026 55.0736M6.15042 55.0736C6.1198 48.971 6.09489 43.1803 6.07719 37.8398M49.1026 55.0736L49.1792 37.8398M6.07719 37.8398C6.0127 18.376 6.04406 4.89248 6.24459 4.09037C6.81905 1.79253 20.8454 0.739358 27.7868 0.5C39.8503 0.5 47.1748 2.89358 49.3292 4.09037L49.1792 37.8398M6.07719 37.8398C7.80844 38.7972 14.5741 40.7121 27.7868 40.7121C44.3026 40.7121 49.1792 37.8398 49.1792 37.8398" stroke="var(--stroke-0, black)"/>
<path id="Vector 22787" d="M6.24459 4.09034C8.39881 4.80841 15.7232 6.24456 27.7868 6.24456C39.8504 6.24456 47.1748 4.80841 49.329 4.09034M13.4253 39.994V51.4832M42.8663 39.994V51.4832M6.96266 55.0735C6.96266 53.8768 8.25519 51.4832 13.4253 51.4832M13.4253 51.4832V55.0735C14.6221 55.7916 18.8827 57.2278 26.3506 57.2278C33.8186 57.2278 40.4728 55.7916 42.8663 55.0735V51.4832M48.6109 55.0735C48.3716 53.8768 46.8875 51.4832 42.8663 51.4832M6.96266 164.221C4.80844 164.939 0.5 167.093 0.5 169.965C0.5 173.556 12.7072 178.582 27.7868 178.582C42.8663 178.582 54.3555 173.556 54.3555 169.965M54.3555 169.965C54.3555 167.093 50.5258 164.939 48.6109 164.221M54.3555 169.965V174.274C53.1587 176.907 46.1695 182.173 27.7868 182.173C9.40411 182.173 1.93615 176.907 0.5 174.274V170.683M10.553 57.2278V167.811M14.8615 57.9458V170.683M19.888 58.6639V171.401M24.9145 58.6639V172.119M29.2229 58.6639V172.119M33.5314 58.6639V172.119M37.1217 58.6639V171.401M41.4302 57.9458V169.965M45.0205 57.2278V168.529" stroke="var(--stroke-0, black)"/>
<rect id="Rectangle 324" x="24.5085" y="65.4307" width="9.05303" height="24.8506" rx="0.5" fill="var(--fill-0, black)" stroke="var(--stroke-0, black)"/>
</g>
</svg>
