<svg preserveAspectRatio="none" width="100%" height="100%" overflow="visible" style="display: block;" viewBox="0 0 20.5406 50.8738" fill="none" xmlns="http://www.w3.org/2000/svg">
<g id="Group">
<path id="Vector" d="M0.535286 17.6439H20.006V20.9425H0.535286V17.6439ZM7.51302 42.7492V47.0583H17.2323V50.3568H3.30337V39.4559H10.0685C8.5559 38.2742 6.30087 36.5094 3.30337 34.1612V31.8534H13.0223V27.514H3.30337V24.2155H17.2323V35.1165H10.4672C11.9794 36.2981 14.2344 38.063 17.2323 40.4111V42.7492H7.51302ZM16.1894 8.1259V11.4241H4.34624V0.518283H16.1894V3.78651H8.5615V8.1259H16.1894Z" fill="var(--fill-0, black)"/>
<path id="Vector_2" d="M20.225 17.4413V21.1438H0.315647V17.4413H20.225ZM16.4084 0.315647V3.98784H8.78054V7.92327H16.4084V11.6254H4.1266V0.315647H16.4084ZM17.4513 42.9505H7.73204V46.8553H17.4513V50.5582H3.08371V39.2529H9.47143C7.97493 38.0836 5.87159 36.4375 3.16106 34.3144L3.08371 34.2538V31.6508H12.8026V27.7153H3.08371V24.0129H17.4513V35.3181H11.0636C12.5601 36.4877 14.6638 38.1335 17.374 40.2563L17.4513 40.3172V42.9505Z" stroke="var(--stroke-0, #46779B)" stroke-opacity="0.55" stroke-width="0.631295"/>
</g>
</svg>
