<svg preserveAspectRatio="none" width="100%" height="100%" overflow="visible" style="display: block;" viewBox="0 0 82.4204 273.285" fill="none" xmlns="http://www.w3.org/2000/svg">
<g id="Group 1410167326">
<path id="Vector 22786" d="M9.43753 82.4927C9.70251 135.311 10.2536 203.771 10.6504 247.623C13.1525 250.839 22.8746 257.273 41.7466 257.273C60.6185 257.273 70.3405 250.839 72.8424 247.623L73.5764 82.4927M9.43753 82.4927C11.9865 84.2798 22.0168 87.854 41.7466 87.854C61.4764 87.854 71.1872 84.2798 73.5764 82.4927M9.43753 82.4927C9.39181 73.38 9.35461 64.7329 9.32818 56.7581M73.5764 82.4927L73.6907 56.7581M9.32818 56.7581C9.23187 27.6936 9.27871 7.55912 9.57815 6.36136C10.436 2.93009 31.381 1.35742 41.7463 1C59.7603 1 70.6977 4.57424 73.9147 6.36136L73.6907 56.7581M9.32818 56.7581C11.9134 58.1878 22.0163 61.0472 41.7463 61.0472C66.4088 61.0472 73.6907 56.7581 73.6907 56.7581" stroke="var(--stroke-0, black)" stroke-width="2"/>
<path id="Vector 22787" d="M9.57818 6.36145C12.795 7.43373 23.7322 9.57827 41.7463 9.57827C59.7605 9.57827 70.6977 7.43373 73.9145 6.36145M20.3009 59.9751V77.1314M64.264 59.9751V77.1314M10.6504 82.4928C10.6504 80.7056 12.5805 77.1314 20.3009 77.1314M20.3009 77.1314V82.4928C22.088 83.565 28.4502 85.7096 39.6018 85.7096C50.7534 85.7096 60.6898 83.565 64.264 82.4928V77.1314M72.8422 82.4928C72.4848 80.7056 70.2688 77.1314 64.264 77.1314M10.6504 245.478C7.43363 246.55 1 249.767 1 254.056C1 259.418 19.2286 266.924 41.7463 266.924C64.264 266.924 81.4204 259.418 81.4204 254.056M81.4204 254.056C81.4204 249.767 75.7016 246.55 72.8422 245.478M81.4204 254.056V260.49C79.6333 264.422 69.1965 272.285 41.7463 272.285C14.2962 272.285 3.14454 264.422 1 260.49V255.129M16.0118 85.7096V250.839M22.4454 86.7819V255.129M29.9513 87.8541V256.201M37.4572 87.8541V257.273M43.8909 87.8541V257.273M50.3245 87.8541V257.273M55.6859 87.8541V256.201M62.1195 86.7819V254.056M67.4809 85.7096V251.912" stroke="var(--stroke-0, black)" stroke-width="2"/>
<g id="Rectangle 324">
<mask id="path-3-inside-1_241_1359" fill="white">
<rect x="36.1044" y="97.212" width="15.0118" height="38.6018" rx="1"/>
</mask>
<rect x="36.1044" y="97.212" width="15.0118" height="38.6018" rx="1" fill="var(--fill-0, black)" stroke="var(--stroke-0, black)" stroke-width="4" mask="url(#path-3-inside-1_241_1359)"/>
</g>
</g>
</svg>
