<svg preserveAspectRatio="none" width="100%" height="100%" overflow="visible" style="display: block;" viewBox="0 0 246.456 19.6278" fill="none" xmlns="http://www.w3.org/2000/svg">
<g id="Layer_1" clip-path="url(#clip0_241_1376)">
<g id="Group">
<path id="Vector" d="M129.206 0.552788H116.061V2.45006H127.087V7.10185H114V8.99497H121.69V12.1386H116.102V14.0318H127.087V19.4217H129.124V12.1372H123.727V8.99359H131.415V7.10047H129.206V0.552788Z" fill="var(--fill-0, black)"/>
<path id="Vector_2" d="M146.883 0.205913V19.3739H148.921V0.205913H148.828H146.883Z" fill="var(--fill-0, black)"/>
<path id="Vector_3" d="M143.583 0.205913V3.61547H141.199C140.493 1.48969 139.101 0.218377 137.46 0.218377C135.011 0.218377 133.234 2.98951 133.234 6.80899C133.234 10.6285 135.011 13.3982 137.46 13.3982C139.041 13.3982 140.365 12.2543 141.106 10.2656H143.581V19.3698H145.618V0.205913H143.581H143.583ZM141.605 5.48643H143.584V8.37528H141.576C141.647 7.86565 141.688 7.33939 141.688 6.80899C141.688 6.36444 141.657 5.92128 141.605 5.48643ZM137.462 11.4788C136.146 11.4788 135.193 9.51364 135.193 6.80899C135.193 4.10433 136.146 2.1392 137.462 2.1392C138.777 2.1392 139.728 4.10295 139.728 6.80899C139.728 9.51503 138.775 11.4788 137.462 11.4788Z" fill="var(--fill-0, black)"/>
<path id="Vector_4" d="M151.235 8.0995V9.99677H159.04V11.6766H153.847V13.3579H164.048V14.7524H153.847V19.3696H166.337V17.6981H155.882V16.3298H166.062V11.6766H161.077V9.99677H168.882V8.0995H151.235Z" fill="var(--fill-0, black)"/>
<path id="Vector_5" d="M173.017 7.93896C175.423 7.44456 178.109 6.64826 179.853 4.5391C181.593 6.64826 184.279 7.44456 186.687 7.93896L186.745 7.95004L187.936 6.35467L187.787 6.32697C183.983 5.62622 181.812 4.35907 181.14 2.46871H186.676V0.572824H173.023V2.46871H178.564C177.896 4.33829 175.727 5.60268 171.916 6.32697L171.768 6.35605L172.959 7.95004L173.017 7.93896Z" fill="var(--fill-0, black)"/>
<path id="Vector_6" d="M180.846 6.62622H178.812V8.95558H171.028V10.8445H188.677V8.95558H180.846V6.62622Z" fill="var(--fill-0, black)"/>
<path id="Vector_7" d="M203.567 12.0666V14.1855H195.656V12.0666H193.618V19.3718H205.603V12.0666H203.567ZM195.634 17.7155V15.7781H203.548V17.7155H195.634Z" fill="var(--fill-0, black)"/>
<path id="Vector_8" d="M205.603 0.205913H203.567V11.0176H205.603V6.34367H208.232V4.44916H205.603V0.205913Z" fill="var(--fill-0, black)"/>
<path id="Vector_9" d="M224.973 0.205913H222.935V11.3583H224.973V6.38245H227.598V4.48932H224.973V0.205913Z" fill="var(--fill-0, black)"/>
<path id="Vector_10" d="M211.744 12.6333V14.5264H222.934V19.3901H224.972V12.6333H211.744Z" fill="var(--fill-0, black)"/>
<path id="Vector_11" d="M239.963 15.7111V8.59288H237.945V15.7111H235.473V8.59288H233.438V15.7111H228.996V17.6056H246.455V15.7111H239.963Z" fill="var(--fill-0, black)"/>
<path id="Vector_12" d="M242.7 12.1158H244.819V0.919072H230.792V2.81635H242.7V12.1172V12.1158Z" fill="var(--fill-0, black)"/>
<path id="Vector_13" d="M153.378 7.07709C156.242 6.50791 158.607 5.14797 160.06 3.25069C161.514 5.14797 163.879 6.50791 166.744 7.07709L166.803 7.08817L167.912 5.5385L167.771 5.5108C164.608 4.84606 161.202 2.91278 161.202 0.238592V0.145805H158.92V0.238592C158.92 2.91278 155.513 4.84606 152.351 5.5108L152.21 5.5385L153.319 7.08817L153.377 7.07709H153.378Z" fill="var(--fill-0, black)"/>
<path id="Vector_14" d="M99.4861 13.4604H97.4699V19.3724H110.147V17.4765H99.4861V13.4604Z" fill="var(--fill-0, black)"/>
<path id="Vector_15" d="M110.006 0.205913H107.968V14.2721H110.006V7.12612H112.633V5.23439H110.006V0.205913Z" fill="var(--fill-0, black)"/>
<path id="Vector_16" d="M105.089 6.62729C105.089 5.32413 104.424 4.10128 103.305 3.2939H105.84V1.57112H101.398V-0.000709213H99.3616V1.57251H94.9195V3.29529H97.4547C96.3346 4.10267 95.6694 5.32551 95.6694 6.62868C95.6694 8.98158 97.7825 10.8969 100.379 10.8969C102.976 10.8969 105.089 8.98158 105.089 6.62868V6.62729ZM100.379 9.10206C98.8466 9.10206 97.5968 7.99278 97.5968 6.62729C97.5968 5.26181 98.8466 4.15252 100.379 4.15252C101.912 4.15252 103.162 5.26319 103.162 6.62729C103.162 7.99139 101.913 9.10206 100.379 9.10206Z" fill="var(--fill-0, black)"/>
<path id="Vector_17" d="M200.748 6.23814C200.748 5.10255 200.167 4.05143 199.178 3.2939H201.499V1.57112H197.057V-0.000708552H195.02V1.57251H190.578V3.29529H192.899C191.909 4.05143 191.328 5.10393 191.328 6.23953C191.328 8.43732 193.44 10.2266 196.037 10.2266C198.633 10.2266 200.747 8.43732 200.747 6.23953L200.748 6.23814ZM196.038 8.43871C194.519 8.43871 193.283 7.45268 193.283 6.23814C193.283 5.02361 194.519 4.03897 196.038 4.03897C197.557 4.03897 198.792 5.02638 198.792 6.23814C198.792 7.44991 197.557 8.43871 196.038 8.43871Z" fill="var(--fill-0, black)"/>
<path id="Vector_18" d="M210.694 6.35863C210.694 8.62567 212.807 10.4675 215.405 10.4675C218.003 10.4675 220.113 8.62567 220.113 6.35863C220.113 5.17041 219.516 4.07497 218.499 3.2939H220.862V1.57112H216.421V-0.000708552H214.383V1.57251H209.941V3.29529H212.305C211.288 4.07497 210.691 5.17179 210.691 6.36001L210.694 6.35863ZM215.405 8.71707C213.885 8.71707 212.651 7.65902 212.651 6.35863C212.651 5.05823 213.885 4.00296 215.405 4.00296C216.925 4.00296 218.156 5.05823 218.156 6.35863C218.156 7.65902 216.921 8.71707 215.405 8.71707Z" fill="var(--fill-0, black)"/>
<path id="Vector_19" d="M179.854 11.7667C175.889 11.7667 173.121 13.3815 173.121 15.697C173.121 18.0125 175.888 19.6314 179.854 19.6314C183.821 19.6314 186.584 18.0125 186.584 15.697C186.584 13.3815 183.817 11.7667 179.854 11.7667ZM179.854 17.784C177.191 17.784 175.256 16.906 175.256 15.697C175.256 14.488 177.191 13.6141 179.854 13.6141C182.518 13.6141 184.451 14.4922 184.451 15.697C184.451 16.9018 182.517 17.784 179.854 17.784Z" fill="var(--fill-0, black)"/>
</g>
<g id="Group_2">
<path id="Vector_20" d="M4.27548 0.27917H0V19.0442H13.1338V15.3909H4.27548V0.27917Z" fill="var(--fill-0, black)"/>
<path id="Vector_21" d="M22.5411 11.8912H26.0216V15.1706C25.3823 15.4199 24.1311 15.6677 22.94 15.6677C19.0907 15.6677 17.8067 13.6846 17.8067 9.65878C17.8067 5.63295 19.0279 3.55842 22.8758 3.55842C25.0135 3.55842 26.2361 4.23977 27.2428 5.54017L29.9023 3.0654C28.2837 0.712501 25.4411 -0.000708552 22.7843 -0.000708552C16.7972 -0.000708552 13.6501 3.31191 13.6501 9.62831C13.6501 15.9447 16.4899 19.321 22.7529 19.321C25.6228 19.321 28.4325 18.5787 29.9611 17.4944V8.39024H22.5384V11.8912H22.5411Z" fill="var(--fill-0, black)"/>
<path id="Vector_22" d="M33.7841 0.549414V3.30116H37.5269V4.00883C37.5269 6.84505 36.3959 8.34763 33.3511 9.32674L34.504 11.9538C36.6021 11.4539 38.6593 10.202 39.5021 8.49304C40.4063 10.202 42.3829 11.3916 44.2119 11.8292L45.6708 8.82818C43.0181 8.24515 41.1057 6.78411 41.1057 3.98944V3.30254H44.7856V0.549414H33.7828H33.7841ZM50.8355 0.172729H47.4001V4.13485H44.1696V6.99184H47.4001V14.2292H50.4243C50.6702 13.2473 50.8355 11.6007 50.8355 10.4125V0.172729ZM51.1852 16.812H41.0647C40.7984 16.812 40.7151 16.7497 40.7151 16.4575V12.3915H37.2796V17.8742C37.2796 19.0638 37.8752 19.6274 39.0499 19.6274H51.1852V16.8106V16.812ZM53.1385 0.527256V3.25823H57.0479V4.57801C57.0479 8.05958 56.3499 10.2491 52.7902 11.8361L54.1261 14.2541C56.1628 13.4841 58.0765 12.0231 58.9589 10.1674C59.8427 11.9192 61.6949 13.3581 63.483 14.0672L65.0866 11.2323C61.6307 9.91808 60.4382 7.87401 60.4382 4.55862V3.25961H64.2411V0.527256H53.1358H53.1385ZM73.0461 5.348H69.6326V0.172729H66.3419V19.6288H69.22C69.4878 18.4821 69.6326 16.5101 69.6326 14.9673V8.14267H73.0461V5.348Z" fill="var(--fill-0, black)"/>
</g>
<path id="Vector_23" d="M85.3277 7.1137H86.6827L82.5302 12.5202H81.1752L85.3277 7.1137ZM86.792 12.5202H85.437L81.2844 7.1137H82.6395L86.792 12.5202Z" fill="var(--fill-0, black)"/>
</g>
<defs>
<clipPath id="clip0_241_1376">
<rect width="246.456" height="19.6278" fill="white"/>
</clipPath>
</defs>
</svg>
