<svg preserveAspectRatio="none" width="100%" height="100%" overflow="visible" style="display: block;" viewBox="0 0 16.9324 15.593" fill="none" xmlns="http://www.w3.org/2000/svg">
<g id="Group">
<path id="Vector" d="M16.1548 12.3526C15.5539 12.9056 14.6422 13.7452 13.4192 14.8717C12.327 13.846 10.6836 12.3223 8.48314 10.296C7.36926 11.3017 5.71507 12.8251 3.51458 14.8717C2.91396 14.2985 2.00212 13.4589 0.779054 12.3526C1.89293 11.3269 3.54731 9.80321 5.74757 7.77718C4.63407 6.75142 2.9795 5.22777 0.779054 3.20138C1.37967 2.64842 2.29152 1.8188 3.51458 0.712535C4.60642 1.71833 6.26098 3.23167 8.48314 5.25805C9.57535 4.25742 11.2187 2.73892 13.4192 0.712535C14.0417 1.2655 14.9534 2.09511 16.1548 3.20138L11.1858 7.77718C12.2997 8.80258 13.9543 10.3262 16.1548 12.3526Z" fill="var(--fill-0, black)"/>
<path id="Vector_2" d="M3.67036 0.569147C4.73622 1.55085 6.33885 3.0167 8.48291 4.9722C9.57288 3.9726 11.165 2.50228 13.2643 0.569147L13.4167 0.428756L13.5718 0.566395C14.1958 1.12073 15.1087 1.95173 16.3103 3.058L16.4658 3.20079L16.3103 3.3436L11.4969 7.77624L12.0252 8.26279C12.0278 8.2652 12.0301 8.26795 12.0327 8.27036C12.0353 8.27277 12.0383 8.27484 12.0409 8.27725L12.1029 8.33437C12.1082 8.33918 12.1134 8.34434 12.1186 8.34916C12.1291 8.3588 12.1399 8.36843 12.1504 8.37807L13.7758 9.87523C13.7885 9.88693 13.7833 9.88211 13.796 9.89415C13.7971 9.89484 13.8147 9.91067 13.8165 9.91239L13.8987 9.98809C13.9029 9.99222 13.9144 10.0032 13.9189 10.0074C13.9223 10.0105 13.926 10.0136 13.9298 10.0166L14.0232 10.1027C14.0404 10.1188 14.0262 10.1061 14.0437 10.1223C14.0598 10.1367 14.049 10.1268 14.065 10.1412L14.55 10.5879C14.5538 10.5913 14.5571 10.5951 14.5609 10.5982C14.5736 10.6102 14.5702 10.6068 14.5833 10.6185L14.8075 10.8253C14.8273 10.8432 14.8105 10.8284 14.8303 10.8463C14.834 10.8497 14.8381 10.8532 14.8419 10.8566L15.0489 11.0472C15.0526 11.0507 15.0563 11.0544 15.0601 11.0579C15.0653 11.0627 15.0784 11.0744 15.0832 11.0792L15.3784 11.3511C15.3825 11.3548 15.3863 11.3586 15.3904 11.3621C15.408 11.3786 15.3967 11.3676 15.4143 11.3841L15.7801 11.7206C15.7842 11.7244 15.788 11.7282 15.7921 11.732L15.8418 11.7777C15.8459 11.7815 15.8504 11.7853 15.8545 11.7891L15.9415 11.8696C15.9457 11.8734 15.9498 11.8775 15.9539 11.8813C15.9584 11.8851 15.9625 11.8889 15.967 11.8927L16.0551 11.9742C16.0719 11.9894 16.0888 12.0052 16.1056 12.0207C16.1291 12.0423 16.1837 12.0926 16.2076 12.1146L16.4658 12.352L16.3103 12.4948L13.4178 15.1581L13.2628 15.0126C12.1971 14.0116 10.6053 12.5358 8.48217 10.5803C7.37314 11.584 5.77126 13.0598 3.67107 15.0133L3.51309 15.1599L3.35727 15.0116C2.75878 14.4404 1.84862 13.6021 0.625965 12.4962L0.467982 12.3531L0.624508 12.2089C0.626414 12.2072 0.650776 12.1851 0.650776 12.1851L0.677046 12.1607L0.710263 12.1301C0.712505 12.128 0.714972 12.126 0.717176 12.1239C0.732085 12.1101 0.715456 12.1253 0.730327 12.1115L0.812085 12.0362C0.826882 12.0227 0.824863 12.0248 0.839809 12.011L0.867536 11.9856C0.869517 11.9835 0.892722 11.9618 0.895263 11.9598C0.897617 11.9574 0.90023 11.9553 0.902547 11.9532C0.904901 11.9512 0.907143 11.9487 0.909497 11.9463C0.916223 11.9401 0.916933 11.9401 0.923734 11.9336C0.942155 11.9167 0.933413 11.9243 0.951834 11.9075L0.966071 11.8944C0.976123 11.8851 0.970593 11.8906 0.980644 11.8813C0.982999 11.8792 0.985238 11.8768 0.987592 11.8744L1.00217 11.861C1.00456 11.8589 1.0071 11.8569 1.00949 11.8548C1.01621 11.8486 1.03154 11.8342 1.0383 11.828L1.31563 11.5727C1.31821 11.5702 1.32109 11.5678 1.32366 11.5654L1.33132 11.5585C1.3339 11.5561 1.33641 11.5534 1.33898 11.551L1.34664 11.5441C1.34926 11.5417 1.3521 11.5393 1.35468 11.5369C1.35729 11.5345 1.35976 11.532 1.36234 11.5296L1.43315 11.4643C1.43572 11.4619 1.43856 11.4598 1.44114 11.4574C1.44376 11.455 1.44622 11.4522 1.44884 11.4498L1.46487 11.435C1.46749 11.4326 1.47029 11.4305 1.4729 11.4281L1.48094 11.4206C1.48355 11.4182 1.48598 11.4157 1.4886 11.4133L1.5612 11.3462C1.57783 11.3311 1.56105 11.3469 1.57764 11.3314C1.58033 11.329 1.58294 11.3263 1.58567 11.3239L1.59371 11.3163C1.5964 11.3139 1.59939 11.3115 1.60208 11.3091C1.6048 11.3067 1.60738 11.3039 1.61011 11.3012C1.61284 11.2988 1.61575 11.2963 1.61852 11.2939C1.62125 11.2915 1.62379 11.2888 1.62651 11.2864C1.62928 11.2836 1.6322 11.2812 1.63492 11.2788C1.63765 11.2764 1.64023 11.2736 1.64296 11.2712C1.64568 11.2685 1.6486 11.2661 1.65133 11.2637C1.65405 11.2612 1.65663 11.2585 1.65936 11.2561L1.66777 11.2482C1.67049 11.2458 1.67341 11.2434 1.67617 11.2409C1.68735 11.2306 1.68141 11.2358 1.69258 11.2255L1.82724 11.1012C1.83875 11.0909 1.83278 11.0964 1.8444 11.0858C1.84724 11.0834 1.84993 11.0806 1.85277 11.0778L1.88707 11.0462C1.88991 11.0438 1.89297 11.041 1.89581 11.0386C1.89869 11.0359 1.90138 11.0331 1.90422 11.0304L1.93011 11.0066C1.9473 10.9908 1.93049 11.0066 1.94764 10.9908L1.95642 10.9829C1.95926 10.9801 1.96195 10.9774 1.96479 10.9746L2.07023 10.8776C2.07319 10.8748 2.0764 10.8721 2.07939 10.8697C2.08231 10.8669 2.08518 10.8638 2.08813 10.8611C2.0971 10.8528 2.09695 10.8535 2.10599 10.8449C2.12389 10.8284 2.12356 10.8284 2.14142 10.8122L2.15054 10.8036C2.15352 10.8008 2.15666 10.7984 2.15965 10.7957C2.16316 10.7922 2.174 10.7819 2.17755 10.7788L2.35997 10.6109C2.36307 10.6078 2.3664 10.6051 2.36946 10.6023C2.37256 10.5995 2.37552 10.5965 2.37858 10.5937C2.38168 10.5909 2.38497 10.5882 2.38807 10.5851C2.39117 10.5823 2.39412 10.5792 2.39719 10.5765C2.40029 10.5737 2.40358 10.571 2.40668 10.5682C2.40978 10.5651 2.4127 10.5624 2.4158 10.5593C2.4189 10.5565 2.42219 10.5538 2.42529 10.551C2.42839 10.5483 2.43134 10.5452 2.43444 10.5421L2.45339 10.5252C2.45649 10.5221 2.4594 10.5194 2.4625 10.5163L2.89786 10.1154C2.90152 10.112 2.9143 10.1006 2.91792 10.0972C2.92125 10.0944 2.92446 10.091 2.92779 10.0879L2.93761 10.0789C2.96433 10.0542 2.99131 10.0297 3.01828 10.005C3.07213 9.9554 3.12646 9.90482 3.18139 9.85424L3.25362 9.78783C3.25709 9.78473 3.26075 9.78163 3.26423 9.77853C3.2711 9.772 3.27809 9.76546 3.28501 9.75892L3.58169 9.48571C3.58524 9.48261 3.58905 9.47917 3.59264 9.47607C3.59623 9.47263 3.59962 9.46919 3.60321 9.46575C3.62582 9.44511 3.62399 9.44717 3.64663 9.42618C3.66535 9.40897 3.64947 9.42343 3.66816 9.40622L3.701 9.37594C3.70459 9.3725 3.70836 9.36941 3.71195 9.36597L3.75574 9.32571C3.76564 9.31676 3.7677 9.31435 3.77764 9.3054L3.81048 9.27512C3.81414 9.27168 3.8181 9.26824 3.82177 9.2648C3.82924 9.25826 3.85842 9.23073 3.86593 9.22385L3.91044 9.1829C3.91414 9.17946 3.91806 9.17637 3.92176 9.17293C3.92546 9.16949 3.92901 9.16605 3.93271 9.1626L3.97758 9.12131C3.98132 9.11787 3.98521 9.11443 3.98891 9.11099C3.9926 9.10755 3.99615 9.10411 3.99985 9.10066L4.09035 9.0174C4.11531 8.99434 4.11094 8.99882 4.13598 8.97576C4.13923 8.97266 4.15522 8.95752 4.15858 8.95443C4.1624 8.95099 4.16647 8.94754 4.17028 8.9441C4.17405 8.94066 4.17779 8.93688 4.18156 8.93344L4.19292 8.92277C4.19666 8.91933 4.20077 8.91589 4.20451 8.91245L4.22767 8.89145C4.28895 8.83502 4.35061 8.77756 4.41301 8.7201L4.45972 8.67709C4.46345 8.67365 4.46794 8.6702 4.47167 8.66642C4.47541 8.66298 4.47952 8.65919 4.48326 8.65541L4.57779 8.56835C4.5819 8.56491 4.58601 8.56113 4.58975 8.55769C4.59386 8.5539 4.5976 8.55011 4.60171 8.54667L4.85393 8.31406C4.85804 8.31028 4.86252 8.30649 4.86663 8.30305C4.87037 8.29927 4.87448 8.29514 4.87859 8.29135L4.89055 8.28034C4.89466 8.27656 4.89877 8.27311 4.90288 8.26933C4.90699 8.26554 4.9111 8.26176 4.91521 8.25798C4.91894 8.25419 4.92343 8.25041 4.92754 8.24697C4.93165 8.24318 4.93539 8.23905 4.9395 8.23526L4.96378 8.2129C4.96939 8.20773 4.98322 8.19535 4.98882 8.19019C4.99368 8.18571 5.00825 8.1723 5.01311 8.16748L5.02544 8.15612C5.02955 8.15234 5.03403 8.1489 5.03814 8.14511L5.05047 8.13341C5.05458 8.12997 5.05832 8.12584 5.06243 8.12206L5.13679 8.05358C5.1409 8.0498 5.14538 8.04601 5.14949 8.04223L5.1622 8.03087C5.16631 8.02674 5.17042 8.02296 5.17453 8.01883L5.43796 7.77624L0.469439 3.20079L0.624508 3.058C1.22584 2.50435 2.13813 1.67404 3.36127 0.567771L3.51637 0.427381L3.67036 0.569147Z" stroke="var(--stroke-0, #46779B)" stroke-opacity="0.55" stroke-width="0.631295"/>
</g>
</svg>
