<svg preserveAspectRatio="none" width="100%" height="100%" overflow="visible" style="display: block;" viewBox="0 0 252.531 250.548" fill="none" xmlns="http://www.w3.org/2000/svg">
<path id="Vector" d="M235.236 126.888C237.39 122.955 240.294 119.475 242.448 115.49C278.755 48.464 204.888 -26.1275 137.982 9.98307C137.982 9.98307 137.731 10.1344 137.381 10.3361C132.373 13.3117 128.717 15.7325 126.313 17.3968C123.91 15.7325 120.254 13.2613 115.246 10.2857C114.895 10.0839 114.645 9.93264 114.645 9.93264C47.6886 -26.1779 -26.2288 48.4136 10.0789 115.44C12.2323 119.374 15.1369 122.854 17.2903 126.838C14.3857 132.234 10.4294 136.925 7.82529 142.523C-10.1032 181.155 7.82529 231.286 47.5383 246.921C69.2227 255.444 94.9636 245.458 103.778 223.822C106.582 216.913 107.483 210.659 106.933 204.859C105.38 188.771 94.2124 177.877 83.9461 168.042C78.4875 162.797 47.2379 133.899 45.6353 131.074C45.6353 130.974 44.9843 129.914 44.0828 128.553C43.582 127.847 43.1814 127.241 42.931 126.888C70.7251 99.0995 98.4692 71.2601 126.263 43.4711C154.057 71.3105 181.801 99.1499 209.596 126.989C209.345 127.342 208.945 127.897 208.444 128.654C207.542 130.015 206.941 131.074 206.891 131.175C205.289 134 174.089 162.898 168.58 168.143C158.314 177.978 147.146 188.821 145.594 204.96C145.043 210.709 145.894 217.014 148.749 223.923C157.563 245.509 183.304 255.545 204.988 247.022C244.701 231.387 262.63 181.256 244.701 142.624C242.097 137.076 238.141 132.335 235.236 126.939V126.888ZM48.3396 158.51C49.6417 159.822 51.745 161.99 54.3491 164.562C74.431 184.484 78.0868 187.106 83.1448 193.461C91.2076 203.548 89.3547 219.283 79.1385 227.201C61.3603 240.919 36.3706 221.754 27.1059 206.019C15.9382 187.005 15.6377 157.703 30.5614 140.657C36.4708 146.608 42.4302 152.559 48.3396 158.51ZM107.133 36.6625C84.2466 63.8463 37.3221 106.665 37.3221 106.665C35.9199 107.976 33.2156 110.397 29.8603 113.473C29.5598 113.12 29.2593 112.717 28.9588 112.364C23.6003 103.79 19.2935 92.7448 18.7927 82.5572C17.2903 52.8517 36.2704 28.6436 61.7609 21.3307C78.6878 16.489 92.6099 20.675 95.4644 21.5828C103.076 24.0541 108.735 27.7357 112.241 30.4087C109.887 33.3339 108.034 35.553 107.133 36.6121V36.6625ZM225.421 206.12C216.156 221.855 191.166 241.02 173.388 227.302C163.172 219.384 161.319 203.649 169.382 193.562C174.49 187.157 178.096 184.534 198.177 164.663C200.782 162.091 202.885 159.973 204.187 158.611L221.965 140.758C236.889 157.804 236.588 187.106 225.421 206.12ZM233.734 82.6076C233.233 92.7953 228.926 103.84 223.568 112.414C223.267 112.767 222.967 113.17 222.666 113.524C219.261 110.447 216.607 108.026 215.204 106.715C215.204 106.715 168.28 63.8967 145.394 36.713C144.492 35.6538 142.639 33.4348 140.286 30.5096C143.791 27.7862 149.45 24.1549 157.062 21.6837C159.867 20.7759 173.839 16.5899 190.766 21.4315C216.256 28.7444 235.236 52.9022 233.734 82.6581V82.6076Z" fill="url(#paint0_linear_246_54)" stroke="var(--stroke-0, white)" stroke-miterlimit="10"/>
<defs>
<linearGradient id="paint0_linear_246_54" x1="126.266" y1="0.503377" x2="126.266" y2="250.048" gradientUnits="userSpaceOnUse">
<stop stop-color="#EB4B98"/>
<stop offset="1" stop-color="#ED86A8"/>
</linearGradient>
</defs>
</svg>
