<svg preserveAspectRatio="none" width="100%" height="100%" overflow="visible" style="display: block;" viewBox="0 0 657.021 779.429" fill="none" xmlns="http://www.w3.org/2000/svg">
<path id="Union" d="M426.738 328.627C426.738 328.634 426.733 328.64 426.726 328.64C426.721 328.64 426.717 328.642 426.715 328.646L154.954 769.917C151.313 775.828 144.867 779.429 137.924 779.429H20C8.95429 779.429 -2.39271e-05 770.474 0 759.429L0.000933103 328.672C0.000933178 328.637 0.0289154 328.609 0.0634332 328.609C0.097951 328.609 0.125933 328.581 0.125933 328.547V192.381C0.125933 181.335 9.08024 172.381 20.1259 172.381H165.765C176.81 172.381 185.765 163.427 185.765 152.381V20C185.765 8.95431 194.719 0 205.765 0H637.021C648.067 0 657.021 8.95431 657.021 20V152.381C657.021 163.427 648.067 172.381 637.021 172.381H446.738C435.693 172.381 426.738 181.335 426.738 192.381V328.627Z" fill="url(#paint0_linear_241_1230)"/>
<defs>
<linearGradient id="paint0_linear_241_1230" x1="328.511" y1="779.429" x2="328.511" y2="0" gradientUnits="userSpaceOnUse">
<stop stop-color="#CECECE"/>
<stop offset="1" stop-color="#8A8090"/>
</linearGradient>
</defs>
</svg>
