<svg preserveAspectRatio="none" width="100%" height="100%" overflow="visible" style="display: block;" viewBox="0 0 13.3335 12.2986" fill="none" xmlns="http://www.w3.org/2000/svg">
<g id="Group">
<path id="Vector" d="M6.66659 11.7808C4.97952 11.7808 3.53793 11.2378 2.33699 10.1518C1.13567 9.04553 0.535204 7.71801 0.535204 6.16441C0.535204 4.61082 1.13567 3.2833 2.33699 2.17703C3.53793 1.0711 4.97952 0.517799 6.66659 0.517799C8.35404 0.517799 9.79524 1.0711 10.9966 2.17703C12.1979 3.2833 12.7984 4.61564 12.7984 6.16441C12.7984 7.71319 12.1979 9.04553 10.9966 10.1518C9.79524 11.2378 8.34843 11.7808 6.66659 11.7808ZM6.66659 3.91678C5.98952 3.91678 5.42193 4.13803 4.95784 4.5857C4.47171 5.01307 4.23145 5.53575 4.23145 6.15925C4.23145 6.78276 4.47171 7.30578 4.95784 7.73315C5.42193 8.18082 5.98952 8.40173 6.66659 8.40173C7.34366 8.40173 7.91163 8.18082 8.37571 7.73315C8.86184 7.30578 9.10173 6.78276 9.10173 6.15925C9.10173 5.53575 8.86184 5.01307 8.37571 4.5857C7.91163 4.13803 7.34366 3.91678 6.66659 3.91678Z" fill="var(--fill-0, black)"/>
<path id="Vector_2" d="M6.66675 0.315647C8.41249 0.315647 9.90974 0.89063 11.1518 2.03406C12.3935 3.17784 13.0178 4.56179 13.0178 6.16425C13.0178 7.76704 12.3938 9.15065 11.1518 10.2944L11.1503 10.2955C9.90787 11.4186 8.40576 11.9826 6.66675 11.9829C4.92213 11.9829 3.42525 11.4186 2.1832 10.2955L2.18171 10.2944C0.939661 9.151 0.315647 7.77221 0.315647 6.16425C0.315647 4.55663 0.939661 3.17784 2.18171 2.03406C3.42375 0.89063 4.92064 0.315647 6.66675 0.315647ZM6.66675 4.11859C6.04872 4.11859 5.53829 4.31783 5.11606 4.72489L5.10896 4.73143C4.66692 5.12026 4.45057 5.59029 4.45057 6.15943C4.45057 6.72822 4.66692 7.19826 5.10896 7.58674L5.19639 7.6676C5.60256 8.02477 6.0872 8.19957 6.66675 8.19957C7.24592 8.19957 7.73056 8.02443 8.13635 7.6676L8.3045 7.51276C8.69199 7.13907 8.88218 6.69278 8.88218 6.15943C8.88218 5.62574 8.69236 5.17944 8.3045 4.80541L8.21669 4.72489C7.79483 4.31783 7.28441 4.11859 6.66675 4.11859Z" stroke="var(--stroke-0, #46779B)" stroke-opacity="0.55" stroke-width="0.631295"/>
</g>
</svg>
