<svg preserveAspectRatio="none" width="100%" height="100%" overflow="visible" style="display: block;" viewBox="0 0 32.182 34.9877" fill="none" xmlns="http://www.w3.org/2000/svg">
<g id="Group">
<path id="Vector" d="M25.0784 19.0009V25.9296C26.4706 27.0208 28.5564 28.6549 31.3409 30.832C30.6911 31.3602 29.7084 32.1392 28.3871 33.1701C27.1858 32.2297 25.3896 30.822 22.987 28.9415C21.4527 30.1431 19.1596 31.9383 16.1128 34.3215C14.5785 33.1199 12.2854 31.3247 9.23853 28.9415C8.01554 29.8816 6.20292 31.2896 3.80589 33.1701C3.15609 32.6423 2.17336 31.8629 0.851728 30.832C2.24436 29.7409 4.32976 28.1067 7.11464 25.9296V19.0009H11.3243V25.9296C12.378 26.7544 13.978 28.0063 16.1128 29.6755C17.1665 28.851 18.7665 27.5989 20.9012 25.9296V19.0009H25.0784ZM25.8373 0.517799H30.0469V15.7327H25.8373V0.517799Z" fill="var(--fill-0, black)"/>
<path id="Vector_2" d="M11.5433 18.7988V25.8359C12.5731 26.6417 14.0991 27.8361 16.112 29.4103C17.1519 28.5966 18.6779 27.4022 20.6811 25.8359V18.7988H25.2969V25.8362C26.6888 26.9267 28.7488 28.5405 31.4821 30.6776L31.6757 30.829L31.4855 30.9836C30.8342 31.5128 29.85 32.2928 28.5284 33.3241L28.386 33.4349L28.2444 33.3241C27.6439 32.8537 26.8943 32.2667 25.9946 31.5623C25.1307 30.8855 24.1281 30.1006 22.9862 29.2066C21.4538 30.4068 19.2081 32.1645 16.254 34.4751L16.112 34.5866L15.9696 34.4751C14.4593 33.2921 12.2132 31.5341 9.23666 29.2056C8.01741 30.1436 6.25298 31.5148 3.94713 33.3237L3.80252 33.4373L3.65978 33.3213C3.01148 32.7945 2.02988 32.0165 0.708994 30.9863L0.512072 30.8321L0.708994 30.678C2.08817 29.5972 4.14853 27.983 6.89419 25.8362V18.7988H11.5433ZM30.2655 0.315647V15.9349H25.6172V0.315647H30.2655Z" stroke="var(--stroke-0, #46779B)" stroke-opacity="0.55" stroke-width="0.631295"/>
</g>
</svg>
