<svg preserveAspectRatio="none" width="100%" height="100%" overflow="visible" style="display: block;" viewBox="0 0 51 107" fill="none" xmlns="http://www.w3.org/2000/svg">
<path id="Vector 22782" d="M8.77315 23.9254C10.7049 24.3158 16.7708 25.0967 25.5798 25.0967C34.3888 25.0967 40.8145 24.3158 42.9262 23.9254M42.9262 23.9254C46.0053 46.6048 49.5757 72.7855 49.9205 74.8757C50.5 78.3895 50.5 82.489 50.5 86.5884C50.5 90.6878 47.6023 95.9586 44.1251 100.058C40.6478 104.157 35.432 106.5 26.1593 106.5C16.8867 106.5 10.5118 103.572 7.03453 100.058C3.55729 96.5442 1.239 90.1022 0.659457 86.5884C0.195826 83.7773 0.852637 77.6087 1.239 74.8757L11.6707 2.84254C13.2162 2.06169 18.2776 0.5 26.1593 0.5C34.0411 0.5 38.716 2.06169 40.0683 2.84254C40.8609 8.69932 41.8643 16.1042 42.9262 23.9254ZM15.7276 14.5552H14.5685L13.989 22.1685C15.6574 22.3371 19.5446 22.6513 23.2616 22.7338M15.7276 14.5552L23.2616 19.2403V22.7338M15.7276 14.5552H36.591M23.2616 22.7338C23.8486 22.7469 24.4312 22.7541 25.0003 22.7541C25.9947 22.7541 27.1186 22.732 28.2904 22.6955M28.2904 22.6955C32.0355 22.5791 36.2697 22.3172 38.3297 22.1685L37.7501 14.5552H36.591M28.2904 22.6955V19.2403L36.591 14.5552" stroke="var(--stroke-0, black)"/>
</svg>
