<svg preserveAspectRatio="none" width="100%" height="100%" overflow="visible" style="display: block;" viewBox="0 0 23.171 23.5815" fill="none" xmlns="http://www.w3.org/2000/svg">
<g id="Group">
<path id="Vector" d="M11.5855 20.9089C6.64235 20.9089 2.62606 16.8214 2.62606 11.7907C2.62606 6.76002 6.64235 2.67257 11.5855 2.67257C16.5286 2.67257 20.5449 6.76002 20.5449 11.7907C20.5449 16.8214 16.5286 20.9089 11.5855 20.9089Z" fill="var(--fill-0, #00FF00)"/>
<path id="Vector_2" d="M11.5855 5.26653C15.1384 5.26653 17.9962 8.17491 17.9962 11.7907C17.9962 15.4066 15.1384 18.3149 11.5855 18.3149C8.03261 18.3149 5.17491 15.4066 5.17491 11.7907C5.17491 8.17491 8.03261 5.26653 11.5855 5.26653ZM11.5855 0C5.17485 0 0 5.26653 0 11.7907C0 18.3149 5.17485 23.5815 11.5855 23.5815C17.9961 23.5815 23.171 18.3149 23.171 11.7907C23.171 5.26653 17.9961 0 11.5855 0Z" fill="var(--fill-0, white)"/>
</g>
</svg>
