<svg preserveAspectRatio="none" width="100%" height="100%" overflow="visible" style="display: block;" viewBox="0 0 91.371 98.6491" fill="none" xmlns="http://www.w3.org/2000/svg">
<g id="Group">
<path id="Vector" d="M37.4598 42.9183V8.56793C37.4598 3.85164 41.2444 0 45.8786 0H82.9521C87.5863 0 91.371 3.85164 91.371 8.56793V90.0812C91.371 94.7975 87.5863 98.6491 82.9521 98.6491H45.8786C41.2444 98.6491 37.4598 94.7975 37.4598 90.0812V74.6746H44.3338V90.0812C44.3338 90.9458 45.029 91.6533 45.8786 91.6533H82.9521C83.8017 91.6533 84.4969 90.9458 84.4969 90.0812V8.56793C84.4969 7.70328 83.8017 6.99583 82.9521 6.99583H45.8786C45.029 6.99583 44.3338 7.70328 44.3338 8.56793V42.9183" fill="var(--fill-0, white)"/>
<path id="Vector_2" d="M37.537 63.7485H0V70.7443H37.537V63.7485Z" fill="var(--fill-0, white)"/>
<path id="Vector_3" d="M44.3338 74.8318H37.4598C37.4598 74.1244 37.3826 73.1811 36.8419 72.2378C36.1468 70.9802 35.0655 70.2727 34.5248 70.0369L37.3825 63.6699C38.7728 64.2987 41.2443 65.8708 42.9435 68.9364C43.8704 70.7443 44.3338 72.7881 44.3338 74.8318Z" fill="var(--fill-0, white)"/>
</g>
</svg>
