<svg preserveAspectRatio="none" width="100%" height="100%" overflow="visible" style="display: block;" viewBox="0 0 428 200" fill="none" xmlns="http://www.w3.org/2000/svg">
<g id="_&#235;&#160;&#136;&#236;&#157;&#180;&#236;&#150;&#180;_1" clip-path="url(#clip0_241_662)">
<path id="Vector" d="M108.245 68.8226H102.268V32.5041C102.019 32.5041 101.687 32.5871 101.438 32.67C100.11 33.0846 99.2801 33.7479 98.616 34.3284C98.2009 34.66 97.9519 34.9917 97.8689 35.1575C97.8689 35.2405 97.8689 35.4063 97.7859 35.5721V52.4046C97.7859 53.3168 97.3708 54.1459 96.7067 54.7264C94.1334 56.7993 90.896 58.209 87.6586 58.5406C83.5081 58.9552 80.2707 57.8773 78.1955 56.7993L80.8518 51.4096C81.931 51.99 84.1722 52.8192 86.9946 52.4876C89.0698 52.2388 90.647 51.4925 91.8092 50.8292V35.4063V35.2405C91.8092 34.4113 92.0582 33.5821 92.3902 32.8358C92.8883 31.675 93.6354 30.7629 94.8805 29.6849C95.7936 28.9386 97.3708 27.6119 99.9441 26.8657C100.774 26.6169 101.521 26.534 102.351 26.4511V3.64842C102.351 3.64842 102.351 3.64842 102.351 3.56551V3.39967C102.434 0.995025 104.344 0.414594 105.34 0.414594C106.336 0.414594 108.162 0.497512 108.328 3.48259C108.328 3.48259 108.328 3.56551 108.328 3.73134C108.328 3.73134 108.328 3.73134 108.328 3.81426V9.95025V29.6849C108.328 29.6849 108.328 29.8507 108.328 29.9337C108.328 40.0497 108.328 53.068 108.328 68.8226H108.245Z" fill="var(--fill-0, white)"/>
<path id="Vector_2" d="M208.604 84.66H202.628V28.0265C202.628 27.9436 202.628 27.8607 202.628 27.6949C202.628 27.6949 202.711 26.2852 201.715 25.3731C200.884 24.6269 199.888 24.7098 199.639 24.7098C199.556 24.7098 199.39 24.7098 199.307 24.7098L144.687 24.1294V18.1592L199.224 18.7396C200.303 18.7396 203.209 18.7396 205.699 20.8955C208.687 23.5489 208.687 27.1144 208.604 28.1924V84.743V84.66Z" fill="var(--fill-0, white)"/>
<path id="Vector_3" d="M412.477 107.214H322.328V113.184H412.477V107.214Z" fill="var(--fill-0, white)"/>
<g id="Group">
<path id="Vector_4" d="M269.949 150.083V144.113H293.856C294.105 143.947 294.271 143.698 294.271 143.615C294.271 143.615 294.271 143.532 294.022 143.284C293.607 142.786 291.365 140.464 280.74 130.182L284.974 125.871C296.014 136.65 298.089 138.723 298.587 139.386C299.666 140.63 300.248 142.04 300.248 143.532C300.248 146.352 298.421 148.922 295.516 149.917C295.184 150 294.852 150.083 294.52 150.083H269.949Z" fill="var(--fill-0, white)"/>
<path id="Vector_5" d="M281.072 130.431L252.102 102.488C252.019 102.405 251.853 102.239 251.77 102.073C250.607 100.498 249.694 98.7562 249.03 96.932C248.449 95.2736 248.117 93.5323 247.951 91.791C247.951 91.791 247.951 91.6252 247.951 91.5423V64.3449H253.928V91.4594C254.011 92.6202 254.26 93.7811 254.675 94.942C255.09 96.1857 255.671 97.2637 256.418 98.3416L285.223 126.119L281.072 130.431Z" fill="var(--fill-0, white)"/>
<path id="Vector_6" d="M247.951 77.3632V56.3847C247.619 55.058 247.204 53.8143 246.54 52.5705C245.959 51.5755 245.295 50.6634 244.548 49.9171L226.784 37.2305L230.27 32.3383L248.283 45.1907C248.449 45.2736 248.532 45.3566 248.698 45.5224C249.943 46.7662 251.023 48.1758 251.853 49.6683C252.849 51.4925 253.596 53.4826 254.011 55.5556C254.011 55.7214 254.011 55.8872 254.011 56.136V77.4461H248.034L247.951 77.3632Z" fill="var(--fill-0, white)"/>
</g>
<path id="Vector_7" d="M303.153 88.0597H297.176V32.9187C297.176 31.0116 295.599 29.4362 293.69 29.4362H269.119V23.466H293.69C298.919 23.466 303.153 27.6949 303.153 32.9187V88.0597Z" fill="var(--fill-0, white)"/>
<path id="Vector_8" d="M203.541 40.2985H170.669V46.2687H203.541V40.2985Z" fill="var(--fill-0, white)"/>
<path id="Vector_9" d="M168.843 78.607H126.922V84.5771H168.843V78.607Z" fill="var(--fill-0, white)"/>
<path id="Vector_10" d="M300.164 42.2056C298.504 42.2056 297.176 40.796 297.176 39.1376V3.06799C297.176 1.40962 298.504 0 300.164 0C301.825 0 303.153 1.40962 303.153 3.06799V39.1376C303.153 40.796 301.825 42.2056 300.164 42.2056Z" fill="var(--fill-0, white)"/>
<path id="Vector_11" d="M177.559 200C177.559 200 177.476 200 177.393 200C175.732 199.917 173.574 199.088 172.329 197.098C171.748 196.186 171.499 195.191 171.416 194.113C171.416 194.113 171.416 194.113 171.416 194.03V168.574C171.499 168.574 177.559 168.574 177.559 168.574V193.947C177.559 193.947 177.559 193.947 177.642 193.947H198.062V199.917H177.476L177.559 200Z" fill="var(--fill-0, white)"/>
<path id="Vector_12" d="M177.642 168.574H171.665L171.831 133.085C171.831 132.67 171.831 132.338 172.08 131.924L172.578 130.846C172.744 130.514 172.91 130.182 173.242 129.851L186.026 116.998C186.192 116.833 186.441 116.667 186.69 116.501V84.4942H168.926V78.524H189.595C191.255 78.524 192.583 79.8508 192.583 81.5091V116.667C192.583 117.413 192.417 118.657 191.587 119.818C191.172 120.481 190.591 121.061 189.844 121.476L177.725 133.582L177.559 168.408L177.642 168.574Z" fill="var(--fill-0, white)"/>
<path id="Vector_13" d="M427.917 94.4445H421.94V94.3615V24.2123H410.236C409.406 24.2952 408.576 24.461 407.829 24.6269C406.749 24.8756 405.753 25.2073 404.674 25.539C404.674 25.539 402.267 26.4511 400.109 27.8607C396.788 30.0166 378.36 48.7562 350.635 79.1045L346.152 75.0415C371.553 47.1808 392.389 25.7877 396.705 22.8856C399.445 21.0614 402.267 19.9834 402.433 19.9005C403.761 19.403 405.089 18.9884 406.417 18.7396C407.497 18.4909 408.576 18.325 409.655 18.2421C409.738 18.2421 409.821 18.2421 409.987 18.2421H424.929C425.759 18.2421 426.506 18.5738 427.087 19.1542C427.668 19.7347 428 20.4809 428 21.3101V94.6103L427.917 94.4445Z" fill="var(--fill-0, white)"/>
<path id="Vector_14" d="M81.4329 165.174H75.4562L75.8712 48.0929H64.0838C63.2537 48.1758 62.4236 48.3416 61.6765 48.5075C60.5974 48.7562 59.6012 49.0879 58.5221 49.4196C58.5221 49.4196 56.1148 50.3317 53.9566 51.7413C50.6362 53.8972 32.2079 72.6368 4.48254 102.985L0 98.9221C25.4011 71.0614 46.2366 49.6683 50.5531 46.7662C53.2925 44.942 56.1148 43.864 56.2808 43.7811C57.609 43.2836 58.9372 42.869 60.2653 42.6202C61.3445 42.3715 62.4236 42.2056 63.5027 42.1227C63.5857 42.1227 63.6687 42.1227 63.8348 42.1227H78.7766C79.6067 42.1227 80.3538 42.4544 80.9348 43.0348C81.5159 43.6153 81.8479 44.3615 81.8479 45.1907L81.4329 165.257V165.174Z" fill="var(--fill-0, white)"/>
<path id="Vector_15" d="M127.42 84.66H115.384C114.637 84.66 107.747 84.4113 104.095 78.8557C102.933 77.0315 102.268 74.7927 102.185 72.5539L108.162 72.3881C108.162 73.2172 108.411 74.461 109.158 75.6219C111.067 78.607 115.218 78.607 115.384 78.607H127.42V84.66Z" fill="var(--fill-0, white)"/>
<path id="Vector_16" d="M108.245 68.8226H102.268V72.7197H108.245V68.8226Z" fill="var(--fill-0, white)"/>
<path id="Vector_17" d="M303.07 88.0597H297.093V89.1376H303.07V88.0597Z" fill="var(--fill-0, white)"/>
<path id="Vector_18" d="M322.328 107.214H321.249V113.184H322.328V107.214Z" fill="var(--fill-0, white)"/>
<g id="Group_2">
<path id="Vector_19" d="M108.577 85.1575C104.261 85.1575 100.691 81.675 100.691 77.2803C100.691 72.8856 104.178 69.403 108.577 69.403C112.977 69.403 116.463 72.8856 116.463 77.2803C116.463 81.675 112.977 85.1575 108.577 85.1575Z" fill="var(--fill-0, #00FF00)"/>
<path id="Vector_20" d="M108.577 71.7247C111.649 71.7247 114.139 74.2123 114.139 77.2803C114.139 80.3483 111.649 82.8358 108.577 82.8358C105.506 82.8358 103.016 80.3483 103.016 77.2803C103.016 74.2123 105.506 71.7247 108.577 71.7247ZM108.577 67.2471C103.016 67.2471 98.45 71.8076 98.45 77.3632C98.45 82.9187 103.016 87.4793 108.577 87.4793C114.139 87.4793 118.704 82.9187 118.704 77.3632C118.704 71.8076 114.139 67.2471 108.577 67.2471Z" fill="var(--fill-0, white)"/>
</g>
<path id="Vector_21" d="M321.166 113.267C318.593 113.267 309.545 112.438 302.904 104.809C297.923 99.005 297.093 92.5373 297.093 89.2206H303.07C303.07 91.6252 303.734 96.5174 307.469 100.912C312.45 106.716 319.257 107.214 321.249 107.297V113.267H321.166Z" fill="var(--fill-0, white)"/>
<g id="Group_3">
<path id="Vector_22" d="M312.201 112.935C307.884 112.935 304.315 109.453 304.315 105.058C304.315 100.663 307.801 97.1808 312.201 97.1808C316.6 97.1808 320.087 100.663 320.087 105.058C320.087 109.453 316.6 112.935 312.201 112.935Z" fill="var(--fill-0, #00FF00)"/>
<path id="Vector_23" d="M312.201 99.5025C315.272 99.5025 317.763 101.99 317.763 105.058C317.763 108.126 315.272 110.614 312.201 110.614C309.13 110.614 306.639 108.126 306.639 105.058C306.639 101.99 309.13 99.5025 312.201 99.5025ZM312.201 95.0249C306.639 95.0249 302.074 99.5854 302.074 105.141C302.074 110.697 306.639 115.257 312.201 115.257C317.763 115.257 322.328 110.697 322.328 105.141C322.328 99.5854 317.763 95.0249 312.201 95.0249Z" fill="var(--fill-0, white)"/>
</g>
</g>
<defs>
<clipPath id="clip0_241_662">
<rect width="428" height="200" fill="white"/>
</clipPath>
</defs>
</svg>
