<svg preserveAspectRatio="none" width="100%" height="100%" overflow="visible" style="display: block;" viewBox="0 0 470 220" fill="none" xmlns="http://www.w3.org/2000/svg">
<g id="_&#235;&#160;&#136;&#236;&#157;&#180;&#236;&#150;&#180;_1" clip-path="url(#clip0_241_529)">
<path id="Vector" d="M118.867 75.7048H112.304V35.7546C112.031 35.7546 111.666 35.8458 111.393 35.937C109.934 36.393 109.023 37.1227 108.293 37.7612C107.837 38.126 107.564 38.4909 107.473 38.6733C107.473 38.7645 107.473 38.9469 107.382 39.1294V57.6451C107.382 58.6484 106.926 59.5605 106.197 60.199C103.371 62.4793 99.8157 64.0299 96.2607 64.3947C91.7029 64.8507 88.1478 63.665 85.8689 62.4793L88.7859 56.5506C89.9709 57.1891 92.4321 58.1012 95.5314 57.7363C97.8103 57.4627 99.5423 56.6418 100.818 55.9121V38.9469V38.7645C100.818 37.8524 101.092 36.9403 101.457 36.1194C102.003 34.8425 102.824 33.8391 104.191 32.6534C105.194 31.8325 106.926 30.3731 109.752 29.5522C110.663 29.2786 111.484 29.1874 112.395 29.0962V4.01327C112.395 4.01327 112.395 4.01327 112.395 3.92206V3.73964C112.486 1.09453 114.583 0.456053 115.677 0.456053C116.771 0.456053 118.776 0.547264 118.958 3.83085C118.958 3.83085 118.958 3.92206 118.958 4.10448C118.958 4.10448 118.958 4.10448 118.958 4.19569V10.9453V32.6534C118.958 32.6534 118.958 32.8358 118.958 32.927C118.958 44.0547 118.958 58.3748 118.958 75.7048H118.867Z" fill="var(--fill-0, white)"/>
<path id="Vector_2" d="M229.075 93.126H222.512V30.8292C222.512 30.738 222.512 30.6468 222.512 30.4643C222.512 30.4643 222.603 28.9138 221.509 27.9104C220.597 27.0896 219.504 27.1808 219.23 27.1808C219.139 27.1808 218.957 27.1808 218.865 27.1808L158.885 26.5423V19.9751L218.774 20.6136C219.959 20.6136 223.15 20.6136 225.884 22.9851C229.166 25.9038 229.166 29.8259 229.075 31.0116V93.2172V93.126Z" fill="var(--fill-0, white)"/>
<path id="Vector_3" d="M452.954 117.935H353.958V124.502H452.954V117.935Z" fill="var(--fill-0, white)"/>
<g id="Group">
<path id="Vector_4" d="M296.439 165.091V158.524H322.692C322.965 158.342 323.148 158.068 323.148 157.977C323.148 157.977 323.148 157.886 322.874 157.612C322.419 157.065 319.957 154.511 308.289 143.201L312.938 138.458C325.062 150.315 327.341 152.595 327.888 153.325C329.073 154.693 329.711 156.244 329.711 157.886C329.711 160.987 327.706 163.814 324.515 164.909C324.151 165 323.786 165.091 323.421 165.091H296.439Z" fill="var(--fill-0, white)"/>
<path id="Vector_5" d="M308.654 143.474L276.841 112.736C276.749 112.645 276.567 112.463 276.476 112.28C275.2 110.547 274.197 108.632 273.468 106.625C272.83 104.801 272.465 102.886 272.283 100.97C272.283 100.97 272.283 100.788 272.283 100.697V70.7794H278.846V100.605C278.937 101.882 279.211 103.159 279.666 104.436C280.122 105.804 280.76 106.99 281.581 108.176L313.212 138.731L308.654 143.474Z" fill="var(--fill-0, white)"/>
<path id="Vector_6" d="M272.283 85.0995V62.0232C271.918 60.5638 271.462 59.1957 270.733 57.8275C270.095 56.733 269.366 55.7297 268.545 54.9088L249.038 40.9536L252.867 35.5721L272.647 49.7098C272.83 49.801 272.921 49.8922 273.103 50.0746C274.471 51.4428 275.656 52.9934 276.567 54.6352C277.661 56.6418 278.481 58.8308 278.937 61.1111C278.937 61.2935 278.937 61.476 278.937 61.7496V85.1907H272.374L272.283 85.0995Z" fill="var(--fill-0, white)"/>
</g>
<path id="Vector_7" d="M332.902 96.8657H326.338V36.2106C326.338 34.1128 324.606 32.3798 322.51 32.3798H295.528V25.8126H322.51C328.253 25.8126 332.902 30.4643 332.902 36.2106V96.8657Z" fill="var(--fill-0, white)"/>
<path id="Vector_8" d="M223.514 44.3284H187.417V50.8955H223.514V44.3284Z" fill="var(--fill-0, white)"/>
<path id="Vector_9" d="M185.411 86.4677H139.377V93.0348H185.411V86.4677Z" fill="var(--fill-0, white)"/>
<path id="Vector_10" d="M329.62 46.4262C327.797 46.4262 326.338 44.8756 326.338 43.0514V3.37479C326.338 1.55058 327.797 0 329.62 0C331.443 0 332.901 1.55058 332.901 3.37479V43.0514C332.901 44.8756 331.443 46.4262 329.62 46.4262Z" fill="var(--fill-0, white)"/>
<path id="Vector_11" d="M194.983 220C194.983 220 194.891 220 194.8 220C192.977 219.909 190.607 218.997 189.24 216.808C188.602 215.804 188.328 214.71 188.237 213.524C188.237 213.524 188.237 213.524 188.237 213.433V185.431C188.328 185.431 194.983 185.431 194.983 185.431V213.342C194.983 213.342 194.983 213.342 195.074 213.342H217.498V219.909H194.891L194.983 220Z" fill="var(--fill-0, white)"/>
<path id="Vector_12" d="M195.074 185.431H188.51L188.693 146.393C188.693 145.937 188.693 145.572 188.966 145.116L189.513 143.93C189.696 143.566 189.878 143.201 190.242 142.836L204.28 128.698C204.463 128.516 204.736 128.333 205.01 128.151V92.9436H185.502V86.3764H208.2C210.023 86.3764 211.482 87.8358 211.482 89.66V128.333C211.482 129.154 211.299 130.522 210.388 131.799C209.932 132.529 209.294 133.168 208.474 133.624L195.165 146.94L194.983 185.249L195.074 185.431Z" fill="var(--fill-0, white)"/>
<path id="Vector_13" d="M469.909 103.889H463.346V103.798V26.6335H450.493C449.581 26.7247 448.67 26.9071 447.849 27.0896C446.664 27.3632 445.57 27.728 444.385 28.0929C444.385 28.0929 441.742 29.0962 439.372 30.6468C435.725 33.0182 415.489 53.6318 385.043 87.0149L380.12 82.5456C408.014 51.8988 430.894 28.3665 435.634 25.1741C438.642 23.1675 441.742 21.9818 441.924 21.8905C443.382 21.3433 444.841 20.8872 446.299 20.6136C447.485 20.34 448.67 20.1575 449.855 20.0663C449.946 20.0663 450.037 20.0663 450.219 20.0663H466.627C467.539 20.0663 468.359 20.4312 468.997 21.0697C469.635 21.7081 470 22.529 470 23.4411V104.071L469.909 103.889Z" fill="var(--fill-0, white)"/>
<path id="Vector_14" d="M89.424 181.692H82.8608L83.3165 52.9022H70.3724C69.4608 52.9934 68.5493 53.1758 67.7289 53.3582C66.5438 53.6318 65.45 53.9967 64.2649 54.3615C64.2649 54.3615 61.6214 55.3648 59.2514 56.9154C55.6051 59.2869 35.3685 79.9005 4.92242 113.284L0 108.814C27.8937 78.1675 50.7739 54.6352 55.514 51.4428C58.5221 49.4362 61.6214 48.2504 61.8037 48.1592C63.2622 47.6119 64.7207 47.1559 66.1792 46.8823C67.3642 46.6086 68.5493 46.4262 69.7343 46.335C69.8255 46.335 69.9166 46.335 70.0989 46.335H86.507C87.4185 46.335 88.239 46.6998 88.877 47.3383C89.5151 47.9768 89.8798 48.7977 89.8798 49.7098L89.424 181.783V181.692Z" fill="var(--fill-0, white)"/>
<path id="Vector_15" d="M139.924 93.126H126.707C125.886 93.126 118.32 92.8524 114.31 86.7413C113.033 84.7347 112.304 82.272 112.213 79.8093L118.776 79.6269C118.776 80.539 119.05 81.9071 119.87 83.1841C121.967 86.4677 126.524 86.4677 126.707 86.4677H139.924V93.126Z" fill="var(--fill-0, white)"/>
<path id="Vector_16" d="M118.867 75.7048H112.304V79.9917H118.867V75.7048Z" fill="var(--fill-0, white)"/>
<path id="Vector_17" d="M332.81 96.8657H326.247V98.0514H332.81V96.8657Z" fill="var(--fill-0, white)"/>
<path id="Vector_18" d="M353.959 117.935H352.773V124.502H353.959V117.935Z" fill="var(--fill-0, white)"/>
<g id="Group_2">
<path id="Vector_19" d="M119.232 93.6733C114.492 93.6733 110.572 89.8425 110.572 85.0083C110.572 80.1741 114.401 76.3433 119.232 76.3433C124.063 76.3433 127.892 80.1741 127.892 85.0083C127.892 89.8425 124.063 93.6733 119.232 93.6733Z" fill="var(--fill-0, #00FF00)"/>
<path id="Vector_20" d="M119.232 78.8972C122.605 78.8972 125.339 81.6335 125.339 85.0083C125.339 88.3831 122.605 91.1194 119.232 91.1194C115.859 91.1194 113.125 88.3831 113.125 85.0083C113.125 81.6335 115.859 78.8972 119.232 78.8972ZM119.232 73.9718C113.125 73.9718 108.111 78.9884 108.111 85.0995C108.111 91.2106 113.125 96.2272 119.232 96.2272C125.339 96.2272 130.353 91.2106 130.353 85.0995C130.353 78.9884 125.339 73.9718 119.232 73.9718Z" fill="var(--fill-0, white)"/>
</g>
<path id="Vector_21" d="M352.682 124.594C349.856 124.594 339.92 123.682 332.628 115.29C327.159 108.905 326.247 101.791 326.247 98.1426H332.81C332.81 100.788 333.54 106.169 337.642 111.003C343.111 117.388 350.586 117.935 352.773 118.027V124.594H352.682Z" fill="var(--fill-0, white)"/>
<g id="Group_3">
<path id="Vector_22" d="M342.837 124.229C338.097 124.229 334.178 120.398 334.178 115.564C334.178 110.73 338.006 106.899 342.837 106.899C347.669 106.899 351.497 110.73 351.497 115.564C351.497 120.398 347.669 124.229 342.837 124.229Z" fill="var(--fill-0, #00FF00)"/>
<path id="Vector_23" d="M342.837 109.453C346.21 109.453 348.945 112.189 348.945 115.564C348.945 118.939 346.21 121.675 342.837 121.675C339.465 121.675 336.73 118.939 336.73 115.564C336.73 112.189 339.465 109.453 342.837 109.453ZM342.837 104.527C336.73 104.527 331.716 109.544 331.716 115.655C331.716 121.766 336.73 126.783 342.837 126.783C348.945 126.783 353.959 121.766 353.959 115.655C353.959 109.544 348.945 104.527 342.837 104.527Z" fill="var(--fill-0, white)"/>
</g>
</g>
<defs>
<clipPath id="clip0_241_529">
<rect width="470" height="220" fill="white"/>
</clipPath>
</defs>
</svg>
