<svg preserveAspectRatio="none" width="100%" height="100%" overflow="visible" style="display: block;" viewBox="0 0 25.3662 25.489" fill="none" xmlns="http://www.w3.org/2000/svg">
<g id="Group">
<path id="Vector" d="M12.6831 22.5788C7.29027 22.5788 2.79627 18.1634 2.79627 12.6441C2.79627 7.12487 7.19041 2.70946 12.6831 2.70946C18.1758 2.70946 22.5699 7.12487 22.5699 12.6441C22.5699 18.1634 18.1758 22.5788 12.6831 22.5788Z" fill="var(--fill-0, #00FF00)"/>
<path id="Vector_2" d="M12.6831 5.61962C16.5779 5.61962 19.6738 8.83084 19.6738 12.6442C19.6738 16.4575 16.478 19.6687 12.6831 19.6687C8.88815 19.6687 5.69241 16.4575 5.69241 12.6442C5.69241 8.83084 8.88815 5.61962 12.6831 5.61962ZM12.6831 0C5.69241 0 0 5.71997 0 12.7445C0 19.769 5.69241 25.489 12.6831 25.489C19.6738 25.489 25.3662 19.769 25.3662 12.7445C25.3662 5.71997 19.6738 0 12.6831 0Z" fill="var(--fill-0, white)"/>
</g>
</svg>
