<svg preserveAspectRatio="none" width="100%" height="100%" overflow="visible" style="display: block;" viewBox="0 0 25.3662 25.489" fill="none" xmlns="http://www.w3.org/2000/svg">
<g id="Group">
<path id="Vector" d="M12.6831 22.5789C7.29029 22.5789 2.79627 18.1635 2.79627 12.6442C2.79627 7.1249 7.19042 2.70949 12.6831 2.70949C18.1758 2.70949 22.5699 7.1249 22.5699 12.6442C22.5699 18.1635 18.1758 22.5789 12.6831 22.5789Z" fill="var(--fill-0, #00FF00)"/>
<path id="Vector_2" d="M12.6831 5.61963C16.5779 5.61963 19.6738 8.83084 19.6738 12.6442C19.6738 16.4575 16.478 19.6687 12.6831 19.6687C8.88816 19.6687 5.69242 16.4575 5.69242 12.6442C5.69242 8.83084 8.88816 5.61963 12.6831 5.61963ZM12.6831 0C5.69242 0 0 5.71999 0 12.7445C0 19.769 5.69242 25.489 12.6831 25.489C19.6738 25.489 25.3662 19.769 25.3662 12.7445C25.3662 5.71999 19.6738 0 12.6831 0Z" fill="var(--fill-0, white)"/>
</g>
</svg>
