<svg preserveAspectRatio="none" width="100%" height="100%" overflow="visible" style="display: block;" viewBox="0 0 21.5331 21.6859" fill="none" xmlns="http://www.w3.org/2000/svg">
<g id="Group">
<path id="Vector" d="M10.7665 19.2099C6.18865 19.2099 2.37372 15.4533 2.37372 10.7576C2.37372 6.06181 6.10387 2.30521 10.7665 2.30521C15.4292 2.30521 19.1594 6.06181 19.1594 10.7576C19.1594 15.4533 15.4292 19.2099 10.7665 19.2099Z" fill="var(--fill-0, #00FF00)"/>
<path id="Vector_2" d="M10.7665 4.78115C14.0728 4.78115 16.7009 7.51323 16.7009 10.7576C16.7009 14.0019 13.988 16.734 10.7665 16.734C7.54506 16.734 4.83223 14.0019 4.83223 10.7576C4.83223 7.51323 7.54506 4.78115 10.7665 4.78115ZM10.7665 0C4.83223 0 0 4.86653 0 10.843C0 16.8194 4.83223 21.6859 10.7665 21.6859C16.7009 21.6859 21.5331 16.8194 21.5331 10.843C21.5331 4.86653 16.7009 0 10.7665 0Z" fill="var(--fill-0, white)"/>
</g>
</svg>
