<svg preserveAspectRatio="none" width="100%" height="100%" overflow="visible" style="display: block;" viewBox="0 0 21.5331 21.6859" fill="none" xmlns="http://www.w3.org/2000/svg">
<g id="Group">
<path id="Vector" d="M10.7665 19.2099C6.18863 19.2099 2.37372 15.4533 2.37372 10.7576C2.37372 6.0618 6.10385 2.30519 10.7665 2.30519C15.4292 2.30519 19.1593 6.0618 19.1593 10.7576C19.1593 15.4533 15.4292 19.2099 10.7665 19.2099Z" fill="var(--fill-0, #00FF00)"/>
<path id="Vector_2" d="M10.7665 4.78114C14.0728 4.78114 16.7008 7.51322 16.7008 10.7576C16.7008 14.0019 13.988 16.734 10.7665 16.734C7.54505 16.734 4.83222 14.0019 4.83222 10.7576C4.83222 7.51322 7.54505 4.78114 10.7665 4.78114ZM10.7665 0C4.83222 0 0 4.86652 0 10.8429C0 16.8194 4.83222 21.6859 10.7665 21.6859C16.7008 21.6859 21.5331 16.8194 21.5331 10.8429C21.5331 4.86652 16.7008 0 10.7665 0Z" fill="var(--fill-0, white)"/>
</g>
</svg>
