<svg preserveAspectRatio="none" width="100%" height="100%" overflow="visible" style="display: block;" viewBox="0 0 450 315" fill="none" xmlns="http://www.w3.org/2000/svg">
<g id="Group">
<g id="Group_2">
<path id="Vector" d="M188.549 125.037H147.304C138.815 125.037 131.924 118.112 131.924 109.583V36.0258H139.414V109.583C139.414 113.898 142.909 117.51 147.304 117.51H188.549V125.037Z" fill="var(--fill-0, white)"/>
<path id="Vector_2" d="M139.414 36.0258H131.924C131.924 27.496 138.815 20.5718 147.304 20.5718H175.466V28.0981H147.304C143.009 28.0981 139.414 31.6104 139.414 36.0258Z" fill="var(--fill-0, white)"/>
<path id="Vector_3" d="M188.549 20.5718H175.466V28.0981H188.549V20.5718Z" fill="var(--fill-0, white)"/>
</g>
<path id="Vector_4" d="M211.518 46.4623V9.23224C211.518 4.11437 215.613 0 220.706 0H261.352C266.445 0 270.539 4.11437 270.539 9.23224V97.5406C270.539 102.658 266.445 106.773 261.352 106.773H220.706C215.613 106.773 211.518 102.658 211.518 97.5406V80.8825H219.008V97.5406C219.008 98.4438 219.707 99.2466 220.706 99.2466H261.352C262.25 99.2466 263.049 98.5441 263.049 97.5406V9.23224C263.049 8.32909 262.35 7.52628 261.352 7.52628H220.706C219.807 7.52628 219.008 8.22874 219.008 9.23224V46.4623" fill="var(--fill-0, white)"/>
<g id="Group_3">
<path id="Vector_5" d="M153.096 250.675H127.33C117.743 250.675 109.854 244.353 109.854 236.626V172.101H117.344V236.626C117.344 240.139 121.937 243.049 127.23 243.049H152.996V250.575L153.096 250.675Z" fill="var(--fill-0, white)"/>
<path id="Vector_6" d="M117.443 172.101H109.953C109.953 164.374 116.844 158.052 125.333 158.052H153.495V165.578H125.333C121.039 165.578 117.443 168.488 117.443 172.001V172.101Z" fill="var(--fill-0, white)"/>
</g>
<path id="Vector_7" d="M355.126 292.12H343.842V284.493H355.027C358.722 284.493 362.317 282.988 364.913 280.379C367.61 277.67 369.008 274.157 369.008 270.344H376.498C376.498 276.164 374.301 281.583 370.206 285.698C366.112 289.812 360.719 292.02 355.027 292.02L355.126 292.12Z" fill="var(--fill-0, white)"/>
<path id="Vector_8" d="M369.108 244.253C369.108 242.346 368.708 240.54 368.009 238.834C367.21 237.128 366.312 235.924 365.812 235.322C363.815 232.913 361.518 230.505 359.321 228.197C355.426 224.082 351.731 220.269 349.734 216.356C349.334 215.553 348.735 214.349 348.435 212.743C347.836 209.13 349.035 206.22 349.933 204.113V203.812C350.932 201.805 352.031 199.998 353.429 198.393L369.108 180.029L374.8 184.946L359.121 203.31C358.222 204.414 357.523 205.518 356.924 206.822L356.724 207.123C356.025 208.729 355.426 210.033 355.726 211.438C355.826 212.04 356.025 212.442 356.225 212.843C357.823 215.854 361.118 219.266 364.614 222.979C366.911 225.387 369.308 227.896 371.505 230.505C372.603 231.809 373.802 233.515 374.8 235.924C375.899 238.533 376.498 241.242 376.498 244.153H369.008L369.108 244.253Z" fill="var(--fill-0, white)"/>
<path id="Vector_9" d="M376.598 243.751H369.108V270.444H376.598V243.751Z" fill="var(--fill-0, white)"/>
<path id="Vector_10" d="M374.8 185.046L369.108 180.029C372.403 176.215 376.997 173.707 381.891 173.004L382.989 180.53C379.794 181.032 376.897 182.638 374.7 185.046H374.8Z" fill="var(--fill-0, white)"/>
<path id="Vector_11" d="M417.843 172.904H382.091V180.43H417.843V172.904Z" fill="var(--fill-0, white)"/>
<path id="Vector_12" d="M65.0133 202.909H17.277C7.78961 202.909 0 195.984 0 187.455V166.08H7.49001V187.455C7.49001 191.77 11.8842 195.382 17.1771 195.382H65.0133C70.4061 195.382 74.7004 191.87 74.7004 187.455V159.156H82.1904V187.455C82.1904 195.984 74.5007 202.909 64.9134 202.909H65.0133Z" fill="var(--fill-0, white)"/>
<g id="Group_4">
<path id="Vector_13" d="M171.571 255.191L164.081 254.79C164.081 254.087 164.081 252.983 163.582 251.98C163.282 251.378 163.083 251.077 162.783 250.876C162.783 250.876 162.583 250.876 162.483 250.776H153.096V243.149H163.182C163.182 243.249 163.482 243.35 163.482 243.35C164.581 243.55 165.579 243.852 166.578 244.454C168.875 245.758 169.774 247.765 170.273 248.668C171.272 250.675 171.771 252.983 171.571 255.291V255.191Z" fill="var(--fill-0, white)"/>
<path id="Vector_14" d="M208.522 315H196.838V307.474H208.522C212.816 307.474 216.411 303.961 216.411 299.546V270.545C216.611 269.642 217.011 268.738 217.41 267.936C218.708 265.628 220.706 264.624 221.704 264.122C223.502 263.219 225.499 262.818 227.497 262.818V270.344C226.498 270.344 225.699 270.545 225 270.846C224.401 271.147 224.101 271.348 223.901 271.548V299.345C223.901 307.875 217.011 314.799 208.522 314.799V315Z" fill="var(--fill-0, white)"/>
<path id="Vector_15" d="M196.838 315H179.461C170.972 315 164.081 308.076 164.081 299.546V255.091H171.571V299.546C171.571 303.861 175.067 307.474 179.461 307.474H196.838V315Z" fill="var(--fill-0, white)"/>
</g>
<path id="Vector_16" d="M74.7004 117.811C74.7004 116.808 74.4008 115.804 74.0013 114.901C73.502 113.998 73.0027 113.396 72.5033 112.894C71.0053 111.289 69.2077 109.683 67.51 108.178C64.4141 105.368 61.518 102.759 59.8202 100.049C59.4208 99.4473 58.9214 98.4438 58.6218 97.1392C58.0226 94.1287 59.221 91.8206 59.9201 90.3154V90.1147C60.719 88.7098 61.7177 87.3049 62.9161 86.201L75 73.9583L80.2929 79.2768L68.2091 91.5196C67.6099 92.1217 67.1105 92.8241 66.7111 93.5266V93.7273C66.2117 94.4298 65.8122 95.2326 65.9121 95.5336C65.9121 95.634 65.9121 95.7343 66.1118 95.935C67.2104 97.7413 69.8069 100.15 72.4035 102.458C74.2011 104.063 76.0985 105.769 77.7963 107.576C78.2956 108.178 79.5939 109.482 80.5925 111.489C81.5912 113.396 82.0905 115.503 82.0905 117.611H74.6005L74.7004 117.811Z" fill="var(--fill-0, white)"/>
<path id="Vector_17" d="M80.4927 79.2768L75.1997 73.8579C77.8961 71.2488 81.4913 69.4425 85.486 68.9407L86.4847 76.467C84.1877 76.7681 81.9907 77.7716 80.4927 79.2768Z" fill="var(--fill-0, white)"/>
<path id="Vector_18" d="M211.718 68.9407H123.735V76.467H211.718V68.9407Z" fill="var(--fill-0, white)"/>
<path id="Vector_19" d="M82.1904 117.41H74.7004V159.156H82.1904V117.41Z" fill="var(--fill-0, white)"/>
<path id="Vector_20" d="M219.108 80.9828H211.618C211.618 80.18 211.618 79.2768 211.019 78.173C210.32 76.7681 209.121 76.0656 208.422 75.7646L211.618 68.9407C213.116 69.6432 215.912 71.2488 217.71 74.6607C218.708 76.5674 219.308 78.7751 219.208 80.9828H219.108Z" fill="var(--fill-0, white)"/>
<path id="Vector_21" d="M291.511 292.12C290.013 292.12 288.615 291.819 287.217 291.317C286.119 290.916 282.324 289.11 280.726 285.196C280.426 284.494 280.326 283.891 279.927 280.68C279.827 279.677 279.727 279.075 279.627 278.673C279.527 277.87 279.527 277.87 279.427 277.67C279.328 277.168 279.028 275.964 278.628 275.663H261.751V268.136H279.527C280.826 268.337 282.024 268.839 283.023 269.541C285.519 271.348 286.318 274.258 286.718 275.663C286.917 276.365 286.917 276.767 287.017 277.67C287.017 278.071 287.117 278.774 287.317 279.677C287.517 280.981 287.617 282.085 287.716 282.587C288.216 283.49 289.314 284.092 289.913 284.293C290.513 284.493 291.112 284.594 291.811 284.594L292.31 292.12C292.011 292.12 291.811 292.12 291.511 292.12Z" fill="var(--fill-0, white)"/>
<path id="Vector_22" d="M298.901 228.498H286.019C277.53 228.498 270.639 221.574 270.639 213.044V184.745H278.129V213.044C278.129 217.359 281.625 220.972 286.019 220.972H298.901V228.498Z" fill="var(--fill-0, white)"/>
<g id="Group_5">
<path id="Vector_23" d="M218.91 173.339L211.42 173.365L211.681 248.628L219.171 248.601L218.91 173.339Z" fill="var(--fill-0, white)"/>
<path id="Vector_24" d="M215.413 258.603C213.016 255.793 211.718 252.281 211.718 248.668H219.208C219.208 250.475 219.907 252.281 221.105 253.686L215.413 258.603Z" fill="var(--fill-0, white)"/>
<path id="Vector_25" d="M220.614 253.068L215.281 258.352L227.762 271.071L233.095 265.786L220.614 253.068Z" fill="var(--fill-0, white)"/>
<path id="Vector_26" d="M237.084 275.462C233.489 275.161 229.993 273.555 227.497 271.047L232.79 265.628C234.088 266.932 235.885 267.735 237.683 267.936L237.084 275.462Z" fill="var(--fill-0, white)"/>
<path id="Vector_27" d="M236.847 267.746L236.795 275.272L261.561 275.446L261.613 267.92L236.847 267.746Z" fill="var(--fill-0, white)"/>
</g>
<path id="Vector_28" d="M310.686 228.498H295.506V220.972H310.686C314.98 220.972 318.575 217.459 318.575 213.044V126.04H326.065V213.044C326.065 221.574 319.174 228.498 310.686 228.498Z" fill="var(--fill-0, white)"/>
<path id="Vector_29" d="M343.842 284.594H290.513V292.12H343.842V284.594Z" fill="var(--fill-0, white)"/>
<path id="Vector_30" d="M123.735 68.9407H85.3862V76.467H123.735V68.9407Z" fill="var(--fill-0, white)"/>
<path id="Vector_31" d="M278.129 139.286H270.639V184.745H278.129V139.286Z" fill="var(--fill-0, white)"/>
<path id="Vector_32" d="M326.065 104.465H318.575V126.04H326.065V104.465Z" fill="var(--fill-0, white)"/>
<path id="Vector_33" d="M416.145 140.19H407.057C401.265 140.19 396.471 135.473 396.471 129.552V116.708C396.471 110.887 401.165 106.07 407.057 106.07H416.145C421.937 106.07 426.731 110.787 426.731 116.708V129.552H419.241V116.708C419.241 115.002 417.843 113.697 416.245 113.697H407.157C405.459 113.697 404.161 115.102 404.161 116.708V129.552C404.161 131.258 405.559 132.563 407.157 132.563H416.245V140.089L416.145 140.19Z" fill="var(--fill-0, white)"/>
<path id="Vector_34" d="M426.631 128.85H419.141V173.707H426.631V128.85Z" fill="var(--fill-0, white)"/>
<path id="Vector_35" d="M417.743 180.53L415.146 173.406C417.344 172.603 419.241 171.198 420.34 169.392L426.731 173.506C424.734 176.717 421.538 179.226 417.743 180.631V180.53Z" fill="var(--fill-0, white)"/>
<path id="Vector_36" d="M450 132.663H416.145V140.19H450V132.663Z" fill="var(--fill-0, white)"/>
</g>
</svg>
