<svg preserveAspectRatio="none" width="100%" height="100%" overflow="visible" style="display: block;" viewBox="0 0 382 268" fill="none" xmlns="http://www.w3.org/2000/svg">
<g id="Group">
<g id="Group_2">
<path id="Vector" d="M160.057 106.38H125.044C117.838 106.38 111.989 100.489 111.989 93.2322V30.6505H118.347V93.2322C118.347 96.9035 121.314 99.9771 125.044 99.9771H160.057V106.38Z" fill="var(--fill-0, white)"/>
<path id="Vector_2" d="M118.347 30.6505H111.989C111.989 23.3934 117.838 17.5024 125.044 17.5024H148.951V23.9057H125.044C121.399 23.9057 118.347 26.8939 118.347 30.6505Z" fill="var(--fill-0, white)"/>
<path id="Vector_3" d="M160.057 17.5024H148.951V23.9057H160.057V17.5024Z" fill="var(--fill-0, white)"/>
</g>
<path id="Vector_4" d="M179.555 39.5298V7.85473C179.555 3.50048 183.031 0 187.355 0H221.858C226.182 0 229.658 3.50048 229.658 7.85473V82.9869C229.658 87.3412 226.182 90.8417 221.858 90.8417H187.355C183.031 90.8417 179.555 87.3412 179.555 82.9869V68.8143H185.913V82.9869C185.913 83.7553 186.507 84.4384 187.355 84.4384H221.858C222.621 84.4384 223.3 83.8407 223.3 82.9869V7.85473C223.3 7.08633 222.706 6.40331 221.858 6.40331H187.355C186.592 6.40331 185.913 7.00096 185.913 7.85473V39.5298" fill="var(--fill-0, white)"/>
<g id="Group_3">
<path id="Vector_5" d="M129.961 213.273H108.089C99.9507 213.273 93.2534 207.894 93.2534 201.32V146.422H99.6116V201.32C99.6116 204.308 103.511 206.784 108.004 206.784H129.877V213.188L129.961 213.273Z" fill="var(--fill-0, white)"/>
<path id="Vector_6" d="M99.6962 146.422H93.338C93.338 139.848 99.1876 134.47 106.394 134.47H130.3V140.873H106.394C102.748 140.873 99.6962 143.349 99.6962 146.337V146.422Z" fill="var(--fill-0, white)"/>
</g>
<path id="Vector_7" d="M301.463 248.534H291.883V242.045H301.378C304.515 242.045 307.567 240.765 309.771 238.545C312.06 236.24 313.247 233.251 313.247 230.007H319.605C319.605 234.959 317.74 239.569 314.264 243.07C310.788 246.57 306.21 248.449 301.378 248.449L301.463 248.534Z" fill="var(--fill-0, white)"/>
<path id="Vector_8" d="M313.332 207.809C313.332 206.187 312.992 204.65 312.399 203.198C311.721 201.747 310.958 200.723 310.534 200.21C308.838 198.161 306.889 196.112 305.023 194.148C301.717 190.648 298.581 187.404 296.885 184.074C296.546 183.391 296.037 182.366 295.783 181C295.274 177.927 296.292 175.451 297.055 173.658V173.402C297.902 171.694 298.835 170.157 300.022 168.791L313.332 153.167L318.164 157.351L304.854 172.975C304.091 173.914 303.498 174.853 302.989 175.963L302.819 176.219C302.226 177.585 301.717 178.695 301.972 179.89C302.056 180.403 302.226 180.744 302.395 181.086C303.752 183.647 306.549 186.55 309.517 189.709C311.466 191.758 313.501 193.892 315.366 196.112C316.299 197.222 317.316 198.673 318.164 200.723C319.096 202.942 319.605 205.248 319.605 207.723H313.247L313.332 207.809Z" fill="var(--fill-0, white)"/>
<path id="Vector_9" d="M319.69 207.382H313.332V230.092H319.69V207.382Z" fill="var(--fill-0, white)"/>
<path id="Vector_10" d="M318.164 157.436L313.332 153.167C316.129 149.923 320.029 147.788 324.183 147.191L325.115 153.594C322.403 154.021 319.944 155.387 318.079 157.436H318.164Z" fill="var(--fill-0, white)"/>
<path id="Vector_11" d="M354.702 147.105H324.352V153.509H354.702V147.105Z" fill="var(--fill-0, white)"/>
<path id="Vector_12" d="M55.1891 172.633H14.6662C6.61252 172.633 0 166.742 0 159.485V141.3H6.35819V159.485C6.35819 163.156 10.0883 166.23 14.5814 166.23H55.1891C59.767 166.23 63.4123 163.242 63.4123 159.485V135.409H69.7705V159.485C69.7705 166.742 63.2428 172.633 55.1043 172.633H55.1891Z" fill="var(--fill-0, white)"/>
<g id="Group_4">
<path id="Vector_13" d="M145.645 217.115L139.287 216.773C139.287 216.176 139.287 215.237 138.863 214.383C138.609 213.871 138.439 213.615 138.185 213.444C138.185 213.444 138.015 213.444 137.93 213.358H129.961V206.87H138.524C138.524 206.955 138.778 207.04 138.778 207.04C139.711 207.211 140.558 207.467 141.406 207.98C143.356 209.09 144.119 210.797 144.543 211.565C145.391 213.273 145.814 215.237 145.645 217.2V217.115Z" fill="var(--fill-0, white)"/>
<path id="Vector_14" d="M177.012 268H167.093V261.597H177.012C180.657 261.597 183.709 258.608 183.709 254.852V230.178C183.879 229.409 184.218 228.641 184.557 227.958C185.659 225.994 187.355 225.141 188.202 224.714C189.728 223.945 191.424 223.604 193.119 223.604V230.007C192.272 230.007 191.593 230.178 191 230.434C190.491 230.69 190.237 230.861 190.067 231.032V254.681C190.067 261.938 184.218 267.829 177.012 267.829V268Z" fill="var(--fill-0, white)"/>
<path id="Vector_15" d="M167.093 268H152.342C145.136 268 139.287 262.109 139.287 254.852V217.03H145.645V254.852C145.645 258.523 148.612 261.597 152.342 261.597H167.093V268Z" fill="var(--fill-0, white)"/>
</g>
<path id="Vector_16" d="M63.4123 100.233C63.4123 99.3794 63.158 98.5256 62.8189 97.7572C62.395 96.9888 61.9711 96.4766 61.5473 96.0497C60.2756 94.6836 58.7497 93.3176 57.3085 92.0369C54.6804 89.6464 52.2219 87.4266 50.7807 85.1214C50.4416 84.6091 50.0178 83.7553 49.7634 82.6454C49.2548 80.0841 50.2721 78.1204 50.8655 76.8398V76.669C51.5437 75.4737 52.3915 74.2784 53.4088 73.3393L63.6667 62.9232L68.1598 67.4482L57.9019 77.8643C57.3933 78.3765 56.9694 78.9742 56.6303 79.5718V79.7426C56.2064 80.3402 55.8673 81.0232 55.9521 81.2794C55.9521 81.3648 55.9521 81.4501 56.1216 81.6209C57.0541 83.1577 59.2583 85.2067 61.4625 87.1704C62.9885 88.5365 64.5992 89.9879 66.0404 91.5247C66.4643 92.0369 67.5664 93.1469 68.4141 94.8544C69.2619 96.4766 69.6858 98.2695 69.6858 100.062H63.3276L63.4123 100.233Z" fill="var(--fill-0, white)"/>
<path id="Vector_17" d="M68.3293 67.4482L63.8362 62.8378C66.1252 60.618 69.1771 59.0812 72.5681 58.6543L73.4159 65.0577C71.466 65.3138 69.601 66.1676 68.3293 67.4482Z" fill="var(--fill-0, white)"/>
<path id="Vector_18" d="M179.725 58.6543H105.037V65.0577H179.725V58.6543Z" fill="var(--fill-0, white)"/>
<path id="Vector_19" d="M69.7705 99.8917H63.4123V135.409H69.7705V99.8917Z" fill="var(--fill-0, white)"/>
<path id="Vector_20" d="M185.998 68.8996H179.64C179.64 68.2166 179.64 67.4482 179.131 66.5091C178.538 65.3138 177.521 64.7162 176.927 64.46L179.64 58.6543C180.912 59.252 183.285 60.618 184.811 63.5209C185.659 65.143 186.168 67.0213 186.083 68.8996H185.998Z" fill="var(--fill-0, white)"/>
<path id="Vector_21" d="M247.461 248.534C246.189 248.534 245.002 248.278 243.815 247.851C242.883 247.509 239.661 245.973 238.305 242.643C238.051 242.045 237.966 241.533 237.627 238.801C237.542 237.947 237.457 237.435 237.372 237.093C237.288 236.41 237.288 236.41 237.203 236.24C237.118 235.813 236.864 234.788 236.525 234.532H222.198V228.129H237.288C238.39 228.299 239.407 228.726 240.255 229.324C242.374 230.861 243.052 233.337 243.391 234.532C243.561 235.13 243.561 235.471 243.646 236.24C243.646 236.581 243.731 237.179 243.9 237.947C244.07 239.057 244.154 239.996 244.239 240.423C244.663 241.191 245.596 241.704 246.104 241.874C246.613 242.045 247.122 242.131 247.715 242.131L248.139 248.534C247.885 248.534 247.715 248.534 247.461 248.534Z" fill="var(--fill-0, white)"/>
<path id="Vector_22" d="M253.734 194.405H242.798C235.592 194.405 229.743 188.514 229.743 181.256V157.18H236.101V181.256C236.101 184.928 239.068 188.001 242.798 188.001H253.734V194.405Z" fill="var(--fill-0, white)"/>
<g id="Group_5">
<path id="Vector_23" d="M185.83 147.476L179.472 147.498L179.694 211.531L186.052 211.508L185.83 147.476Z" fill="var(--fill-0, white)"/>
<path id="Vector_24" d="M182.862 220.018C180.827 217.627 179.725 214.639 179.725 211.565H186.083C186.083 213.102 186.676 214.639 187.694 215.834L182.862 220.018Z" fill="var(--fill-0, white)"/>
<path id="Vector_25" d="M187.276 215.308L182.749 219.805L193.345 230.625L197.872 226.129L187.276 215.308Z" fill="var(--fill-0, white)"/>
<path id="Vector_26" d="M201.258 234.361C198.206 234.105 195.239 232.739 193.119 230.605L197.613 225.994C198.715 227.104 200.241 227.787 201.767 227.958L201.258 234.361Z" fill="var(--fill-0, white)"/>
<path id="Vector_27" d="M201.057 227.796L201.012 234.2L222.036 234.347L222.081 227.944L201.057 227.796Z" fill="var(--fill-0, white)"/>
</g>
<path id="Vector_28" d="M263.738 194.405H250.852V188.001H263.738C267.383 188.001 270.435 185.013 270.435 181.256V107.234H276.793V181.256C276.793 188.514 270.944 194.405 263.738 194.405Z" fill="var(--fill-0, white)"/>
<path id="Vector_29" d="M291.883 242.131H246.613V248.534H291.883V242.131Z" fill="var(--fill-0, white)"/>
<path id="Vector_30" d="M105.037 58.6543H72.4834V65.0577H105.037V58.6543Z" fill="var(--fill-0, white)"/>
<path id="Vector_31" d="M236.101 118.504H229.743V157.18H236.101V118.504Z" fill="var(--fill-0, white)"/>
<path id="Vector_32" d="M276.793 88.878H270.435V107.234H276.793V88.878Z" fill="var(--fill-0, white)"/>
<path id="Vector_33" d="M353.261 119.272H345.546C340.629 119.272 336.56 115.26 336.56 110.222V99.294C336.56 94.3422 340.545 90.244 345.546 90.244H353.261C358.178 90.244 362.247 94.2568 362.247 99.294V110.222H355.889V99.294C355.889 97.8426 354.702 96.7327 353.346 96.7327H345.631C344.19 96.7327 343.088 97.928 343.088 99.294V110.222C343.088 111.674 344.275 112.784 345.631 112.784H353.346V119.187L353.261 119.272Z" fill="var(--fill-0, white)"/>
<path id="Vector_34" d="M362.162 109.625H355.804V147.788H362.162V109.625Z" fill="var(--fill-0, white)"/>
<path id="Vector_35" d="M354.617 153.594L352.413 147.532C354.278 146.849 355.889 145.654 356.822 144.117L362.247 147.618C360.552 150.35 357.839 152.484 354.617 153.68V153.594Z" fill="var(--fill-0, white)"/>
<path id="Vector_36" d="M382 112.869H353.261V119.272H382V112.869Z" fill="var(--fill-0, white)"/>
</g>
</svg>
