<svg preserveAspectRatio="none" width="100%" height="100%" overflow="visible" style="display: block;" viewBox="0 0 209 210" fill="none" xmlns="http://www.w3.org/2000/svg">
<g id="image 6346490 [Vectorized]">
<path id="Vector" d="M67.3588 26.7505C71.7755 26.5247 77.084 26.6675 81.5738 26.6689L107.002 26.6755L130.493 26.6654C137.902 26.6591 145.987 26.3416 153.207 27.8965C160.49 29.3977 167.241 32.8291 172.759 37.8348C187.561 51.2379 186.211 68.4905 186.199 86.6256V108.975L186.201 128.5C186.195 143.973 186.576 157.829 175.465 170.125C166.654 179.875 155.232 183.587 142.441 184.203C141.93 184.246 141.417 184.278 140.905 184.301C136.164 184.499 130.868 184.392 126.082 184.393L100.766 184.391L80.1082 184.395C63.6335 184.393 49.4199 184.648 36.3411 172.547C21.6396 158.946 23.3228 141.798 23.3416 123.695L23.3412 98.6286L23.3418 80.238C23.341 65.3733 23.2788 52.0945 34.1915 40.2775C43.3858 30.3218 54.1801 27.2491 67.3588 26.7505Z" fill="var(--fill-0, white)"/>
<path id="Vector_2" d="M100.057 32.2962C140.25 29.7184 174.896 60.4036 177.395 100.793C179.894 141.182 149.298 175.943 109.097 178.387C68.99 180.826 34.4929 150.171 31.9996 109.876C29.5061 69.5809 59.9585 34.8681 100.057 32.2962Z" fill="var(--fill-0, black)"/>
</g>
</svg>
