<svg preserveAspectRatio="none" width="100%" height="100%" overflow="visible" style="display: block;" viewBox="0 0 189 157.45" fill="none" xmlns="http://www.w3.org/2000/svg">
<g id="Group">
<path id="Vector" d="M177.822 120.266C178.311 121.535 177.91 122.598 176.826 123.47C166.672 131.644 156.013 139.059 144.412 145.059L134.726 150.061C136.724 151.657 138.979 152.106 141.373 152.017C143.993 151.918 146.189 150.715 148.217 149.168C150.64 147.32 152.932 145.274 155.478 143.617C161.643 139.604 168.287 139.967 174.118 144.492C176.595 146.414 178.872 148.61 181.442 150.389C182.685 151.25 184.276 151.719 185.801 152.056L186.139 152.129C187.989 152.519 189.114 153.451 188.991 155.049C188.868 156.635 187.612 157.561 185.715 157.439C181.695 157.179 178.544 155.105 175.59 152.598C173.746 151.033 171.965 149.365 169.975 148.007C166.285 145.49 162.369 145.416 158.609 147.833C156.393 149.257 154.378 151 152.304 152.639C148.962 155.28 145.355 157.225 140.954 157.291C136.127 157.364 132.243 155.198 128.684 152.222C127.411 151.157 126.15 150.077 124.854 149.043C119.991 145.164 115.01 145.166 110.13 149.045C109.562 149.498 108.999 149.957 108.438 150.419L107.316 151.342C106.38 152.111 105.44 152.873 104.474 153.603C98.5014 158.117 91.6615 158.333 85.472 154.105C83.2201 152.568 81.1674 150.738 79.0197 149.046C74.1398 145.202 70.0894 145.214 65.1225 149.03L64.7161 149.342L63.4982 150.284C61.8733 151.539 60.2386 152.783 58.5224 153.899C52.0545 158.104 45.4716 157.928 39.0436 153.864C36.3835 152.182 33.955 150.134 31.4353 148.23L31.0567 147.945C30.0511 147.194 29.0576 146.425 28.025 145.712C26.5849 144.719 25.0349 144.44 23.4757 145.387C20.7206 147.06 17.9978 148.786 15.2691 150.502C12.6904 152.124 10.1986 153.906 7.51697 155.332C6.06444 156.105 4.3187 156.464 2.66262 156.676C1.12151 156.873 0.0612497 155.728 0.00255594 154.284C-0.0552945 152.862 0.873528 151.968 2.31682 151.558L2.40065 151.535C3.93531 151.125 5.51546 150.604 6.84657 149.767C10.6027 147.405 14.242 144.858 17.9235 142.378C18.0277 142.308 18.0886 142.174 18.2135 142.014L15.9281 137.692C15.1654 136.25 14.4031 134.805 13.6451 133.358C12.3153 130.82 13.1806 129.117 16.0348 128.913C23.7296 128.363 31.4301 127.891 39.1287 127.396L83.4406 124.552C93.9144 123.878 104.387 123.197 114.861 122.522C129.631 121.568 144.402 120.617 159.172 119.665C163.1 119.412 167.028 119.165 170.955 118.908L174.882 118.648C176.235 118.557 177.321 118.965 177.822 120.266ZM166.585 124.754L166.454 124.432L19.826 133.872L20.188 134.549C21.1386 136.33 21.9799 137.938 22.8996 139.5C22.9844 139.644 23.2808 139.673 23.5915 139.684L23.9089 139.692C23.9414 139.693 23.9733 139.694 24.0042 139.695L24.0942 139.701C25.3685 139.795 26.7615 139.57 27.8929 140.017C29.6992 140.73 31.4247 141.751 33.0172 142.879C35.8671 144.896 38.5032 147.221 41.3892 149.181C46.5168 152.663 51.3461 152.559 56.3903 149.028C58.5194 147.538 60.5384 145.893 62.6474 144.373C69.2421 139.622 75.4892 139.72 81.9266 144.681C83.8078 146.131 85.6007 147.695 87.4786 149.149C92.187 152.794 96.9641 152.807 101.649 149.186C103.209 147.98 104.694 146.678 106.225 145.434C113.169 139.792 120.209 139.248 127.037 144.28L127.244 144.434C129.43 146.081 131.056 145.998 133.234 144.912L134.294 144.382C144.008 139.512 153.537 134.336 162.336 127.904C163.759 126.864 165.169 125.805 166.585 124.754ZM30.4305 0.498516C46.3007 7.6587 60.5525 17.2906 73.5052 28.8676C89.6228 43.2736 102.325 60.2846 111.707 79.7401C116.645 89.9805 120.486 100.617 122.249 111.91L122.334 112.463L122.462 113.348C122.465 115.533 120.714 116.817 118.889 116.08C109.829 112.419 100.474 109.879 90.8059 108.429C78.0295 106.513 65.4141 106.989 52.9928 110.729C44.7558 113.21 36.9207 116.593 29.6395 121.21C28.2951 122.062 26.8698 121.914 25.9921 120.87C25.0805 119.787 25.0818 118.479 26.1348 117.336C33.7418 109.076 38.1675 99.1571 41.1022 88.491C43.9693 78.0699 45.0161 67.421 44.374 56.6478C43.8915 48.5503 41.9495 40.7154 39.4085 33.024C36.1213 23.0738 31.8553 13.5626 26.712 4.43873C25.8717 2.94789 25.8874 1.78634 26.7368 0.832117C27.6161 -0.155494 28.7485 -0.260502 30.4305 0.498516ZM79.3564 19.0978C80.8281 19.527 82.8102 19.9505 84.6747 20.6762C92.1191 23.5738 98.5326 28.1713 104.642 33.1939C114.572 41.3568 123.665 50.3855 131.796 60.3432C137.455 67.274 142.097 74.8976 146.33 82.7672C151.129 91.6911 155.262 100.916 158.77 110.42L159.014 111.084C159.106 111.336 159.201 111.588 159.287 111.843C159.656 112.941 159.61 114.004 158.75 114.844C157.871 115.701 156.817 115.758 155.705 115.323L155.627 115.291C154.032 114.636 152.416 114.031 150.824 113.369L150.143 113.082C145.665 111.159 141.063 110.775 136.323 111.852C135.886 111.951 135.443 112.026 135 112.094C133.241 112.365 132.143 111.678 131.663 109.975C127.047 93.5952 120.538 77.9977 112.298 63.1165L111.885 62.3757C106.573 52.8824 100.491 43.9557 92.587 36.3711C87.9203 31.8926 83.0094 27.7171 77.5854 24.1708C76.3286 23.349 75.8577 22.2087 76.2715 20.964C76.6789 19.7394 77.6293 19.2588 79.3564 19.0978ZM35.1755 8.70393C35.1909 9.11831 35.3018 9.44195 35.4523 9.74566C38.9015 16.7026 41.9008 23.8482 44.3368 31.2216C46.6477 38.2168 48.4201 45.3463 49.2687 52.6771C50.2189 60.8834 49.8279 69.0678 48.7023 77.2298C47.2201 87.9781 44.2394 98.2583 39.098 107.86L38.5001 108.979C38.2006 109.54 37.8997 110.105 37.5935 110.679C37.7833 110.73 37.8795 110.792 37.9414 110.767C38.4828 110.553 39.0216 110.332 39.5547 110.098C50.4666 105.308 61.837 102.415 73.779 102.118C87.4156 101.778 100.623 104.236 113.521 108.519L114.402 108.811C115.04 109.02 115.72 109.236 116.602 109.522C111.377 86.6501 100.546 66.9913 85.9467 49.3069C71.8731 32.2593 54.7555 18.9387 35.1755 8.70393ZM99.9698 36.4343L100.143 36.6298L100.486 37.0126C100.618 37.1619 100.739 37.3024 100.852 37.4489C101.652 38.486 102.471 39.5115 103.292 40.5346L104.635 42.2046C106.652 44.718 108.644 47.2484 110.395 49.9351C121.473 66.9266 129.619 85.2993 135.558 104.662L135.737 105.249C136.045 106.263 136.469 106.547 137.457 106.398L137.525 106.387C141.968 105.647 146.309 106.032 150.52 107.653L150.737 107.738C151.139 107.898 151.569 107.987 152.349 108.214C146.646 93.9834 139.905 80.7368 131.376 68.3885C124 57.7102 104.25 38.7526 99.9698 36.4343Z" fill="var(--fill-0, white)"/>
</g>
</svg>
