<svg preserveAspectRatio="none" width="100%" height="100%" overflow="visible" style="display: block;" viewBox="0 0 258 260" fill="none" xmlns="http://www.w3.org/2000/svg">
<g id="image 6346489 [Vectorized]">
<path id="Vector" d="M77.8471 61.2071C79.7631 61.1307 82.3349 63.5978 83.8772 64.8058L90.8121 70.2396L116.077 90.0006C118.435 91.8284 120.783 93.6684 123.122 95.5208C124.486 96.5958 128.182 100.049 129.674 99.1567C132.755 97.3143 136.397 94.1983 139.226 91.9824L164.892 71.9103L172.737 65.7594C174.237 64.5774 175.73 63.3109 177.291 62.2155C182.534 58.5702 183.267 65.6106 184.617 68.9499C185.581 71.3325 186.316 75.3674 185.202 77.7998C183.379 81.7767 180.138 85.6366 177.497 89.1759L168.126 101.743L144.033 134.069L136.153 144.643C134.703 146.589 133.252 148.566 131.765 150.481C131.502 150.82 131.057 151.331 130.629 151.454C129.688 151.725 127.87 151.77 126.979 151.337C126.613 151.159 125.923 150.343 125.678 150.012C122.764 146.074 119.831 142.139 116.902 138.215L97.3857 112.034L82.7012 92.3476C80.015 88.7477 77.2556 85.0828 74.6785 81.5049C71.1367 76.832 71.5009 72.7321 73.691 67.5587C74.8254 64.879 74.5905 62.0383 77.8471 61.2071Z" fill="var(--fill-0, white)"/>
<path id="Vector_2" d="M161.672 169.64C169.789 169.182 176.746 175.417 177.24 183.595C177.734 191.772 171.579 198.812 163.467 199.349C155.301 199.89 148.257 193.635 147.759 185.404C147.262 177.172 153.501 170.102 161.672 169.64Z" fill="var(--fill-0, white)"/>
<path id="Vector_3" d="M161.411 176.493C171.467 175.665 172.656 190.332 163.781 192.444C161.978 192.623 160.422 192.5 158.836 191.539C154.006 188.614 154.146 179.936 159.144 177.249C159.917 176.833 160.575 176.681 161.411 176.493Z" fill="var(--fill-0, black)"/>
<path id="Vector_4" d="M207.293 170.394C209.183 170.376 211.745 170.303 213.579 170.484C213.753 175.04 213.596 180.146 213.626 184.751C213.656 189.193 213.794 194.147 213.623 198.534C211.52 198.663 208.865 198.592 206.745 198.546L206.717 195.92L206.724 188.442C206.725 187.408 206.788 185.346 206.627 184.422L206.429 184.36C205.701 184.882 200.582 194.373 199.662 195.88L196.445 195.837C195.015 193.35 191.653 187.177 190.01 184.483C189.935 184.455 189.859 184.427 189.784 184.399C189.456 184.905 189.611 186.954 189.59 187.653C189.481 191.216 189.794 195.013 189.513 198.548C187.234 198.617 184.954 198.612 182.675 198.532C182.495 189.857 182.758 181.097 182.646 172.415C182.638 171.85 182.597 170.963 182.76 170.441C184.743 170.344 186.828 170.384 188.822 170.394C191.832 175.602 195.009 181.845 198.132 186.822C201.028 181.471 204.557 175.744 207.293 170.394Z" fill="var(--fill-0, white)"/>
<path id="Vector_5" d="M92.667 170.422C98.4154 170.262 104.237 170.457 109.991 170.379C111.439 170.36 113.035 170.341 114.468 170.476C114.571 171.874 114.525 173.886 114.529 175.332L106.05 186.333C104.911 187.811 102.543 190.719 101.648 192.204C105.936 192.404 110.83 192.043 114.995 192.344C115.037 193.265 115.179 198.039 114.858 198.553C111.558 198.647 108 198.589 104.68 198.59C100.53 198.611 96.3794 198.597 92.2292 198.548C92.1537 196.875 92.1849 195.245 92.2029 193.569C95.9695 188.098 101.478 182.179 105.171 176.719C101.044 176.626 96.5891 176.823 92.5202 176.631C92.466 175.543 92.2868 171.115 92.667 170.422Z" fill="var(--fill-0, white)"/>
<path id="Vector_6" d="M67.0216 170.394C68.3118 170.389 73.4255 170.05 74.1008 170.804C74.3 171.634 73.4427 173.129 73.088 173.96C72.5296 175.303 71.9794 176.65 71.4372 178.001L65.9751 191.4C65.4035 192.806 63.6692 197.336 62.9319 198.364C61.9121 198.787 57.0702 198.598 55.7353 198.532C55.0645 197.505 54.359 195.611 53.8759 194.413L51.5132 188.579L46.4752 176.191C46.1066 175.282 44.2754 171.225 44.3913 170.584L44.6384 170.427C47.1639 170.346 49.7652 170.385 52.2974 170.394L56.922 182.033C57.7619 184.154 58.6744 186.624 59.6366 188.662C62.1687 182.906 64.6531 176.291 67.0216 170.394Z" fill="var(--fill-0, white)"/>
<path id="Vector_7" d="M131.653 170.421C136.593 170.107 141.104 171.504 144.314 175.429C143.189 176.719 140.975 178.636 139.637 179.828C137.736 178.028 136.332 176.866 133.621 176.742C123.556 176.276 123.28 192.392 133.408 192.232C136.241 192.188 137.648 191.044 139.572 189.142C140.144 189.593 140.706 190.098 141.258 190.577L144.339 193.488L144.272 193.576C139.558 199.676 129.267 200.105 123.439 195.444C120.633 193.16 118.855 189.838 118.503 186.22C117.576 177.463 123.162 171.34 131.653 170.421Z" fill="var(--fill-0, white)"/>
<path id="Vector_8" d="M79.2311 170.44C80.8907 170.317 84.9323 170.325 86.5271 170.476C86.5852 173.177 86.6876 197.865 86.3863 198.553C84.125 198.63 81.35 198.612 79.1004 198.541C78.9937 196.936 78.9509 191.271 79.027 189.813C79.1482 187.491 78.7347 171.198 79.2311 170.44Z" fill="var(--fill-0, white)"/>
</g>
</svg>
