<svg preserveAspectRatio="none" width="100%" height="100%" overflow="visible" style="display: block;" viewBox="0 0 6 374.034" fill="none" xmlns="http://www.w3.org/2000/svg">
<g id="Group">
<path id="Vector" d="M2.60001 374.029L3 9.52178C2.2 9.72015 5.10001 375.616 2.60001 374.029Z" fill="var(--fill-0, black)"/>
<g id="Group_2">
<path id="Vector_2" d="M3 0C3 4.76091 3 9.621 3 14.3819C2.9 13.1917 2.50002 11.3072 1.30002 9.42263C0.900018 8.72833 0.4 8.13321 0 7.63729C0.6 6.94299 1.30002 6.05032 1.80002 4.76091C2.70002 2.87638 2.9 1.09104 3 0Z" fill="var(--fill-0, black)"/>
<path id="Vector_3" d="M3 0.0992912C3 4.8602 3 9.72029 3 14.4812C3.1 13.291 3.50001 11.4064 4.70001 9.52192C5.10001 8.82762 5.6 8.23251 6 7.73658C5.4 7.04228 4.70001 6.14961 4.20001 4.8602C3.30001 2.97567 3.1 1.19033 3 0.0992912Z" fill="var(--fill-0, black)"/>
</g>
</g>
</svg>
