<svg preserveAspectRatio="none" width="100%" height="100%" overflow="visible" style="display: block;" viewBox="0 0 22.4914 22.4951" fill="none" xmlns="http://www.w3.org/2000/svg">
<g id="Group">
<path id="Vector" d="M11.2457 19.9267C6.46405 19.9267 2.47936 16.0299 2.47936 11.159C2.47936 6.28799 6.3755 2.39121 11.2457 2.39121C16.1158 2.39121 20.012 6.28799 20.012 11.159C20.012 16.0299 16.1158 19.9267 11.2457 19.9267Z" fill="var(--fill-0, #00FF00)"/>
<path id="Vector_2" d="M11.2457 4.95954C14.6991 4.95954 17.4441 7.79356 17.4441 11.159C17.4441 14.5244 14.6105 17.3584 11.2457 17.3584C7.88082 17.3584 5.04727 14.5244 5.04727 11.159C5.04727 7.79356 7.88082 4.95954 11.2457 4.95954ZM11.2457 0C5.04727 0 0 5.0481 0 11.2475C0 17.447 5.04727 22.4951 11.2457 22.4951C17.4441 22.4951 22.4914 17.447 22.4914 11.2475C22.4914 5.0481 17.4441 0 11.2457 0Z" fill="var(--fill-0, white)"/>
</g>
</svg>
