<svg preserveAspectRatio="none" width="100%" height="100%" overflow="visible" style="display: block;" viewBox="0 0 46.9293 12.6149" fill="none" xmlns="http://www.w3.org/2000/svg">
<g id="Group">
<path id="Vector" d="M2.74685 0.179372H0V12.2393H8.43801V9.89141H2.74685V0.179372Z" fill="var(--fill-0, #B2B2B2)"/>
<path id="Vector_2" d="M14.4818 7.64272H16.7179V9.75031C16.3071 9.91052 15.5033 10.0698 14.738 10.0698C12.265 10.0698 11.44 8.79531 11.44 6.20798C11.44 3.62066 12.2246 2.28739 14.6968 2.28739C16.0702 2.28739 16.8556 2.72528 17.5024 3.56102L19.2111 1.97053C18.1711 0.458367 16.3449 0 14.638 0C10.7915 0 8.76954 2.12896 8.76954 6.1884C8.76954 10.2478 10.594 12.4177 14.6178 12.4177C16.4616 12.4177 18.2668 11.9407 19.2488 11.2438V5.39271H14.48V7.64272H14.4818Z" fill="var(--fill-0, #B2B2B2)"/>
<path id="Vector_3" d="M21.7048 0.35291V2.12141H24.1093V2.57621C24.1093 4.399 23.3827 5.36469 21.4266 5.99394L22.1672 7.68233C23.5152 7.36103 24.8369 6.55644 25.3783 5.45814C25.9593 6.55644 27.2292 7.32098 28.4043 7.60223L29.3415 5.67353C27.6373 5.29882 26.4086 4.35984 26.4086 2.56375V2.1223H28.7728V0.35291H21.7039H21.7048ZM32.6597 0.110821H30.4526V2.65721H28.3771V4.49334H30.4526V9.14466H32.3955C32.5535 8.51363 32.6597 7.45538 32.6597 6.69173V0.110821ZM32.8844 10.8046H26.3823C26.2112 10.8046 26.1576 10.7645 26.1576 10.5767V7.96358H23.9505V11.4872C23.9505 12.2518 24.3331 12.614 25.0879 12.614H32.8844V10.8037V10.8046ZM34.1393 0.33867V2.09382H36.651V2.94202C36.651 5.17956 36.2025 6.5867 33.9155 7.60668L34.7738 9.16068C36.0823 8.66582 37.3118 7.72684 37.8787 6.53419C38.4465 7.66008 39.6365 8.58483 40.7853 9.04052L41.8156 7.21863C39.5953 6.37399 38.8291 5.0603 38.8291 2.92956V2.09471H41.2723V0.33867H34.1375H34.1393ZM46.9293 3.43688H44.7362V0.110821H42.6221V12.6149H44.4712C44.6432 11.8779 44.7362 10.6105 44.7362 9.61905V5.23296H46.9293V3.43688Z" fill="var(--fill-0, #B2B2B2)"/>
</g>
</svg>
