<svg preserveAspectRatio="xMidYMid meet" width="1823" height="132.911" overflow="visible" style="display: block; max-width: 100%; height: auto;" viewBox="0 0 1823 132.911" fill="none" xmlns="http://www.w3.org/2000/svg">
<g id="&#234;&#185;&#128;&#237;&#131;&#156;&#236;&#157;&#128; @Taeeun Clara Kim&#226;&#134;&#146;">
<path id="Vector" d="M1767.03 112.931C1767.31 105.752 1768.97 99.2811 1771.99 93.5188C1775.01 87.7565 1779.45 83.6001 1785.31 81.0496V80.6245L1737.84 80.7662V58.945L1785.31 59.0867V58.8033C1779.45 56.2527 1775.01 52.0963 1771.99 46.334C1768.97 40.5717 1767.31 34.1009 1767.03 26.9216H1789.13C1789.32 33.0618 1790.69 38.588 1793.24 43.5001C1795.79 48.3178 1799.57 52.1908 1804.58 55.1192C1809.68 57.9531 1815.82 59.3701 1823 59.3701V80.3411C1815.82 80.3411 1809.73 81.8053 1804.72 84.7337C1799.71 87.5676 1795.89 91.4406 1793.24 96.3527C1790.69 101.265 1789.32 106.791 1789.13 112.931H1767.03Z" fill="var(--fill-0, black)"/>
<path id="Vector_2" d="M1611.22 41.6587H1634.6V50.4438H1634.88C1637.05 46.6652 1639.89 43.8313 1643.38 41.942C1646.97 39.9583 1651.08 38.9664 1655.71 38.9664C1660.81 38.9664 1665.3 40.1 1669.17 42.3671C1673.14 44.6343 1676.16 47.9877 1678.24 52.4276H1678.52C1681.07 47.9877 1684.33 44.6343 1688.3 42.3671C1692.36 40.1 1696.99 38.9664 1702.19 38.9664C1707.19 38.9664 1711.63 40.0528 1715.51 42.2254C1719.47 44.3981 1722.54 47.6571 1724.72 52.0025C1726.89 56.3478 1727.98 61.6378 1727.98 67.8724V119.592H1704.31V70.2813C1704.31 65.747 1703.37 62.3463 1701.48 60.0791C1699.59 57.7175 1696.9 56.5367 1693.4 56.5367C1691.23 56.5367 1689.25 57.0563 1687.45 58.0954C1685.66 59.1345 1684.19 60.7404 1683.06 62.9131C1681.92 65.0857 1681.36 67.9197 1681.36 71.4148V119.592H1657.69V70.2813C1657.69 65.747 1656.75 62.3463 1654.86 60.0791C1652.97 57.7175 1650.33 56.5367 1646.93 56.5367C1644.66 56.5367 1642.63 57.0563 1640.83 58.0954C1639.04 59.1345 1637.57 60.7404 1636.44 62.9131C1635.4 65.0857 1634.88 67.9197 1634.88 71.4148V119.592H1611.22V41.6587Z" fill="var(--fill-0, black)"/>
<path id="Vector_3" d="M1572.99 41.6583H1596.66V119.591H1572.99V41.6583ZM1572.71 9.91842H1596.94V31.8813H1572.71V9.91842Z" fill="var(--fill-0, black)"/>
<path id="Vector_4" d="M1474.03 20.4042H1498.83V59.3706H1499.11L1533.54 20.4042H1564.01L1527.16 60.6459L1565.28 119.591H1535.1L1510.44 79.0664H1510.16L1498.83 91.5356V119.591H1474.03V20.4042Z" fill="var(--fill-0, black)"/>
<path id="Vector_5" d="M1405.79 106.839C1403.43 112.034 1399.94 115.907 1395.31 118.458C1390.68 121.008 1385.39 122.284 1379.44 122.284C1374.15 122.284 1369.47 121.339 1365.41 119.45C1361.35 117.466 1358.14 114.585 1355.78 110.806C1353.41 107.028 1352.23 102.446 1352.23 97.0618C1352.23 88.6545 1355.02 82.3727 1360.59 78.2162C1366.26 74.0598 1373.35 71.9816 1381.85 71.9816H1394.74C1398.33 71.9816 1400.98 71.3676 1402.68 70.1396C1404.47 68.8171 1405.37 66.975 1405.37 64.6134C1405.37 61.874 1404.28 59.843 1402.11 58.5205C1400.03 57.198 1397.25 56.5367 1393.75 56.5367C1389.5 56.5367 1386.24 57.4341 1383.97 59.229C1381.8 61.0238 1380.67 63.5743 1380.57 66.8806H1355.21C1355.78 58.0009 1359.08 51.1523 1365.13 46.3346C1371.27 41.4225 1380.53 38.9664 1392.9 38.9664C1401.4 38.9664 1408.3 40.1472 1413.59 42.5088C1418.97 44.776 1422.89 47.9877 1425.35 52.1442C1427.81 56.3006 1429.03 61.1655 1429.03 66.7389V95.7866C1429.03 97.8648 1429.41 99.329 1430.17 100.179C1431.02 100.935 1432.48 101.313 1434.56 101.313H1436.97V119.592H1420.53C1415.71 119.592 1412.08 118.6 1409.62 116.616C1407.26 114.632 1406.08 111.751 1406.08 107.972V106.839H1405.79ZM1388.22 104.005C1391.25 104.005 1394.03 103.391 1396.58 102.163C1399.14 100.935 1401.21 98.9983 1402.82 96.3533C1404.52 93.6139 1405.37 90.0715 1405.37 85.7261V80.2H1405.09C1404.05 82.0893 1402.49 83.5535 1400.41 84.5926C1398.43 85.6317 1395.78 86.3402 1392.48 86.718L1387.52 87.2848C1384.3 87.5682 1381.85 88.4184 1380.15 89.8353C1378.54 91.1578 1377.74 93.0471 1377.74 95.5032C1377.74 98.0537 1378.59 100.132 1380.29 101.738C1382.08 103.249 1384.73 104.005 1388.22 104.005Z" fill="var(--fill-0, black)"/>
<path id="Vector_6" d="M1301.09 41.6586H1324.47V52.5692H1324.76C1326.64 48.7906 1329.01 46.0512 1331.84 44.3508C1334.67 42.556 1338.12 41.6586 1342.18 41.6586H1349.69V59.9374H1337.08C1332.83 59.9374 1329.71 60.9765 1327.73 63.0547C1325.75 65.1329 1324.76 68.6753 1324.76 73.6819V119.591H1301.09V41.6586Z" fill="var(--fill-0, black)"/>
<path id="Vector_7" d="M1260.85 106.839C1258.49 112.034 1254.99 115.907 1250.36 118.458C1245.74 121.008 1240.45 122.284 1234.49 122.284C1229.2 122.284 1224.53 121.339 1220.47 119.45C1216.4 117.466 1213.19 114.585 1210.83 110.806C1208.47 107.028 1207.29 102.446 1207.29 97.0618C1207.29 88.6545 1210.08 82.3727 1215.65 78.2162C1221.32 74.0598 1228.4 71.9816 1236.9 71.9816H1249.8C1253.39 71.9816 1256.03 71.3676 1257.73 70.1396C1259.53 68.8171 1260.42 66.975 1260.42 64.6134C1260.42 61.874 1259.34 59.843 1257.17 58.5205C1255.09 57.198 1252.3 56.5367 1248.81 56.5367C1244.55 56.5367 1241.3 57.4341 1239.03 59.229C1236.86 61.0238 1235.72 63.5743 1235.63 66.8806H1210.26C1210.83 58.0009 1214.14 51.1523 1220.18 46.3346C1226.32 41.4225 1235.58 38.9664 1247.96 38.9664C1256.46 38.9664 1263.35 40.1472 1268.64 42.5088C1274.03 44.776 1277.95 47.9877 1280.4 52.1442C1282.86 56.3006 1284.09 61.1655 1284.09 66.7389V95.7866C1284.09 97.8648 1284.47 99.329 1285.22 100.179C1286.07 100.935 1287.54 101.313 1289.61 101.313H1292.02V119.592H1275.59C1270.77 119.592 1267.13 118.6 1264.68 116.616C1262.31 114.632 1261.13 111.751 1261.13 107.972V106.839H1260.85ZM1243.28 104.005C1246.3 104.005 1249.09 103.391 1251.64 102.163C1254.19 100.935 1256.27 98.9983 1257.87 96.3533C1259.57 93.6139 1260.42 90.0715 1260.42 85.7261V80.2H1260.14C1259.1 82.0893 1257.54 83.5535 1255.47 84.5926C1253.48 85.6317 1250.84 86.3402 1247.53 86.718L1242.57 87.2848C1239.36 87.5682 1236.9 88.4184 1235.2 89.8353C1233.6 91.1578 1232.79 93.0471 1232.79 95.5032C1232.79 98.0537 1233.64 100.132 1235.34 101.738C1237.14 103.249 1239.78 104.005 1243.28 104.005Z" fill="var(--fill-0, black)"/>
<path id="Vector_8" d="M1173.31 8.92673H1196.97V119.591H1173.31V8.92673Z" fill="var(--fill-0, black)"/>
<path id="Vector_9" d="M1115.28 122.284C1105.36 122.284 1096.62 120.158 1089.07 115.907C1081.6 111.562 1075.79 105.469 1071.64 97.6286C1067.48 89.6936 1065.4 80.4362 1065.4 69.8562C1065.4 59.1817 1067.39 49.9715 1071.35 42.2254C1075.32 34.3849 1081.04 28.3392 1088.5 24.0883C1096.06 19.8375 1104.98 17.712 1115.28 17.712C1124.63 17.712 1132.71 19.5068 1139.51 23.0965C1146.31 26.5916 1151.6 31.3621 1155.38 37.4078C1159.25 43.359 1161.52 50.066 1162.18 57.5286H1135.97C1135.68 53.5611 1134.74 50.0187 1133.13 46.9014C1131.62 43.7841 1129.35 41.2808 1126.33 39.3915C1123.4 37.5022 1119.72 36.5576 1115.28 36.5576C1110.37 36.5576 1106.16 37.7856 1102.67 40.2417C1099.27 42.6033 1096.62 46.2402 1094.73 51.1523C1092.94 56.0644 1092.04 62.2991 1092.04 69.8562C1092.04 77.3188 1092.99 83.5535 1094.87 88.5601C1096.76 93.5667 1099.41 97.298 1102.81 99.7541C1106.31 102.21 1110.46 103.438 1115.28 103.438C1119.62 103.438 1123.26 102.541 1126.19 100.746C1129.21 98.8566 1131.48 96.3534 1132.99 93.236C1134.6 90.1187 1135.59 86.5763 1135.97 82.6088H1162.18C1161.24 89.977 1158.87 96.684 1155.1 102.73C1151.32 108.681 1146.03 113.451 1139.23 117.041C1132.52 120.536 1124.54 122.284 1115.28 122.284Z" fill="var(--fill-0, black)"/>
<path id="Vector_10" d="M954.573 41.6587H977.953V50.5855H978.236C980.598 46.7125 983.621 43.8313 987.305 41.942C991.083 39.9583 995.334 38.9664 1000.06 38.9664C1005.25 38.9664 1009.83 40.1 1013.8 42.3671C1017.77 44.5398 1020.89 47.846 1023.15 52.2859C1025.42 56.6312 1026.55 61.9684 1026.55 68.2975V119.592H1002.89V71.4148C1002.89 66.5972 1001.85 62.9131 999.774 60.3625C997.79 57.812 994.909 56.5367 991.131 56.5367C988.769 56.5367 986.643 57.0563 984.754 58.0954C982.865 59.1345 981.306 60.8349 980.078 63.1965C978.85 65.5581 978.236 68.5809 978.236 72.265V119.592H954.573V41.6587Z" fill="var(--fill-0, black)"/>
<path id="Vector_11" d="M894.671 122.284C889.476 122.284 884.894 121.197 880.927 119.025C876.959 116.758 873.842 113.451 871.575 109.106C869.402 104.666 868.316 99.2817 868.316 92.9526V41.6586H891.979V89.8353C891.979 94.7474 892.924 98.4787 894.813 101.029C896.797 103.485 899.678 104.713 903.457 104.713C905.724 104.713 907.802 104.194 909.691 103.155C911.675 102.116 913.234 100.415 914.367 98.0536C915.595 95.692 916.209 92.6692 916.209 88.9851V41.6586H939.872V119.591H916.493V110.665H916.209C913.848 114.538 910.825 117.466 907.141 119.45C903.457 121.339 899.3 122.284 894.671 122.284Z" fill="var(--fill-0, black)"/>
<path id="Vector_12" d="M819.594 122.284C811.754 122.284 804.905 120.678 799.048 117.466C793.192 114.254 788.61 109.531 785.304 103.296C782.092 96.9674 780.486 89.4102 780.486 80.6251C780.486 71.8399 782.139 64.33 785.446 58.0954C788.752 51.8608 793.333 47.1376 799.19 43.9258C805.141 40.6195 811.896 38.9664 819.453 38.9664C827.01 38.9664 833.622 40.4306 839.29 43.359C844.958 46.1929 849.398 50.5855 852.61 56.5367C855.916 62.488 857.569 69.9034 857.569 78.783V86.718H805.566C805.661 90.591 806.322 93.8973 807.55 96.6367C808.778 99.2817 810.479 101.313 812.651 102.73C814.824 104.052 817.327 104.713 820.161 104.713C823.279 104.713 825.876 103.91 827.954 102.305C830.033 100.699 831.497 98.4788 832.347 95.6449H856.152C855.018 100.935 852.799 105.611 849.492 109.673C846.281 113.64 842.124 116.758 837.023 119.025C831.922 121.197 826.112 122.284 819.594 122.284ZM834.189 71.4148C834.189 68.5809 833.67 66.0304 832.63 63.7632C831.591 61.4961 829.985 59.7485 827.813 58.5205C825.735 57.198 823.184 56.5367 820.161 56.5367C817.044 56.5367 814.446 57.198 812.368 58.5205C810.29 59.843 808.684 61.6378 807.55 63.9049C806.417 66.0776 805.803 68.5809 805.708 71.4148H834.189Z" fill="var(--fill-0, black)"/>
<path id="Vector_13" d="M734.737 122.284C726.896 122.284 720.047 120.678 714.191 117.466C708.334 114.254 703.752 109.531 700.446 103.296C697.234 96.9674 695.629 89.4102 695.629 80.6251C695.629 71.8399 697.282 64.33 700.588 58.0954C703.894 51.8608 708.476 47.1376 714.332 43.9258C720.284 40.6195 727.038 38.9664 734.595 38.9664C742.152 38.9664 748.765 40.4306 754.432 43.359C760.1 46.1929 764.54 50.5855 767.752 56.5367C771.058 62.488 772.711 69.9034 772.711 78.783V86.718H720.709C720.803 90.591 721.464 93.8973 722.692 96.6367C723.921 99.2817 725.621 101.313 727.794 102.73C729.966 104.052 732.469 104.713 735.303 104.713C738.421 104.713 741.019 103.91 743.097 102.305C745.175 100.699 746.639 98.4788 747.489 95.6449H771.294C770.161 100.935 767.941 105.611 764.635 109.673C761.423 113.64 757.266 116.758 752.165 119.025C747.064 121.197 741.255 122.284 734.737 122.284ZM749.331 71.4148C749.331 68.5809 748.812 66.0304 747.773 63.7632C746.734 61.4961 745.128 59.7485 742.955 58.5205C740.877 57.198 738.326 56.5367 735.303 56.5367C732.186 56.5367 729.588 57.198 727.51 58.5205C725.432 59.843 723.826 61.6378 722.692 63.9049C721.559 66.0776 720.945 68.5809 720.85 71.4148H749.331Z" fill="var(--fill-0, black)"/>
<path id="Vector_14" d="M659.759 106.839C657.398 112.034 653.903 115.907 649.274 118.458C644.645 121.008 639.355 122.284 633.404 122.284C628.114 122.284 623.438 121.339 619.376 119.45C615.314 117.466 612.102 114.585 609.741 110.806C607.379 107.028 606.198 102.446 606.198 97.0618C606.198 88.6545 608.985 82.3727 614.558 78.2162C620.226 74.0598 627.311 71.9816 635.813 71.9816H648.707C652.297 71.9816 654.942 71.3676 656.642 70.1396C658.437 68.8171 659.334 66.975 659.334 64.6134C659.334 61.874 658.248 59.843 656.075 58.5205C653.997 57.198 651.21 56.5367 647.715 56.5367C643.464 56.5367 640.205 57.4341 637.938 59.229C635.765 61.0238 634.632 63.5743 634.537 66.8806H609.174C609.741 58.0009 613.047 51.1523 619.093 46.3346C625.233 41.4225 634.49 38.9664 646.865 38.9664C655.367 38.9664 662.263 40.1472 667.553 42.5088C672.937 44.776 676.857 47.9877 679.313 52.1442C681.769 56.3006 682.998 61.1655 682.998 66.7389V95.7866C682.998 97.8648 683.375 99.329 684.131 100.179C684.981 100.935 686.445 101.313 688.524 101.313H690.933V119.592H674.496C669.678 119.592 666.041 118.6 663.585 116.616C661.224 114.632 660.043 111.751 660.043 107.972V106.839H659.759ZM642.189 104.005C645.212 104.005 647.999 103.391 650.549 102.163C653.1 100.935 655.178 98.9983 656.784 96.3533C658.484 93.6139 659.334 90.0715 659.334 85.7261V80.2H659.051C658.012 82.0893 656.453 83.5535 654.375 84.5926C652.391 85.6317 649.746 86.3402 646.44 86.718L641.481 87.2848C638.269 87.5682 635.813 88.4184 634.112 89.8353C632.507 91.1578 631.704 93.0471 631.704 95.5032C631.704 98.0537 632.554 100.132 634.254 101.738C636.049 103.249 638.694 104.005 642.189 104.005Z" fill="var(--fill-0, black)"/>
<path id="Vector_15" d="M559.39 39.2498H528.784V20.4042H614.793V39.2498H584.187V119.591H559.39V39.2498Z" fill="var(--fill-0, black)"/>
<path id="Vector_16" d="M466.208 118.112C454.085 118.112 443.725 116.165 435.129 112.27C426.606 108.45 420.141 102.829 415.732 95.4087C411.324 87.9145 409.12 78.8407 409.12 68.1873C409.12 57.5338 411.324 48.4967 415.732 41.0761C420.141 33.5819 426.606 27.8878 435.129 23.9938C443.725 20.0263 454.085 18.0426 466.208 18.0426C478.331 18.0426 488.653 19.9896 497.176 23.8836C505.699 27.7042 512.128 33.2513 516.463 40.525C520.797 47.7253 522.965 56.3215 522.965 66.3137V92.1024H481.086C478.808 92.1024 477.008 91.6248 475.686 90.6697C474.437 89.7146 473.812 88.4288 473.812 86.8124V86.7022C473.812 86.1879 473.885 85.5267 474.032 84.7185H473.812C472.416 87.6573 470.432 89.9717 467.861 91.6616C465.289 93.3514 462.24 94.1964 458.713 94.1964C454.819 94.1964 451.293 93.2045 448.133 91.2207C444.974 89.237 442.476 86.3349 440.639 82.5143C438.803 78.6203 437.884 73.9915 437.884 68.6281C437.884 63.1911 438.803 58.5624 440.639 54.7419C442.476 50.8478 444.974 47.909 448.133 45.9252C451.293 43.9415 454.819 42.9496 458.713 42.9496C462.167 42.9496 465.142 43.7578 467.64 45.3742C470.212 46.9906 472.232 49.3049 473.702 52.3173H473.922C473.775 50.9948 473.702 49.2682 473.702 47.1375V45.0436H492.107V74.5793C492.107 75.9753 492.364 76.9672 492.878 77.5549C493.466 78.0692 494.458 78.3264 495.854 78.3264H504.56V66.3137C504.56 58.0114 503.127 51.3622 500.262 46.3661C497.397 41.2965 493.135 37.6229 487.478 35.3452C481.894 33.0676 474.804 31.9288 466.208 31.9288C457.832 31.9288 450.778 33.288 445.048 36.0065C439.317 38.725 434.945 42.8027 431.933 48.2396C428.994 53.603 427.525 60.2523 427.525 68.1873C427.525 76.1222 428.994 82.7347 431.933 88.0247C434.945 93.3147 439.28 97.2454 444.937 99.817C450.668 102.462 457.758 103.784 466.208 103.784H522.965V118.112H466.208ZM465.546 80.5306C467.31 80.5306 468.816 80.053 470.065 79.0979C471.314 78.0692 472.269 76.6733 472.93 74.9099C473.592 73.1466 473.922 71.0527 473.922 68.6281C473.922 64.881 473.187 61.9789 471.718 59.9216C470.249 57.791 468.191 56.7256 465.546 56.7256C463.783 56.7256 462.314 57.2032 461.138 58.1583C460.036 59.04 459.191 60.3625 458.603 62.1258C458.016 63.8891 457.722 66.0566 457.722 68.6281C457.722 71.1261 458.016 73.2568 458.603 75.0202C459.191 76.7835 460.036 78.1427 461.138 79.0979C462.314 80.053 463.783 80.5306 465.546 80.5306Z" fill="var(--fill-0, black)"/>
<path id="Vector_17" d="M315.109 21.5376C298.956 21.5376 289.887 24.6549 289.887 31.4563C289.887 38.3994 298.956 41.375 315.109 41.375C331.263 41.375 340.331 38.3994 340.331 31.4563C340.331 24.6549 331.263 21.5376 315.109 21.5376ZM315.109 59.3704C285.92 59.3704 266.224 48.7432 266.224 31.4563C266.224 14.3111 285.92 3.68385 315.109 3.68385C344.299 3.68385 363.994 14.3111 363.994 31.4563C363.994 48.7432 344.299 59.3704 315.109 59.3704ZM291.871 92.1022V113.073H361.727V131.069H268.916V92.1022H291.871ZM254.888 66.7386H375.33V84.734H254.888V66.7386Z" fill="var(--fill-0, black)"/>
<path id="Vector_18" d="M153.021 65.0385V85.4428C165.348 85.3011 175.409 84.876 186.744 83.1756L188.586 101.454C173.425 103.863 160.105 104.005 141.118 104.005H131.341V13.036H185.752V31.0315H153.021V47.6099H182.777V65.0385H153.021ZM220.61 0H242.289V132.911H220.61V68.7226H213.525V127.527H192.27V1.84205H213.525V50.5855H220.61V0Z" fill="var(--fill-0, black)"/>
<path id="Vector_19" d="M8.07668 7.08481H70.1396C70.1396 43.5007 48.4601 67.4473 8.64346 77.5078L0 59.6541C27.9141 52.8526 42.3671 39.9583 45.4845 24.9385H8.07668V7.08481ZM44.6343 96.6367V113.924H88.7018V96.6367H44.6343ZM22.1046 131.636V78.9247H111.231V131.636H22.1046ZM88.2767 0H111.231V73.682H88.2767V0Z" fill="var(--fill-0, black)"/>
</g>
</svg>
