<svg preserveAspectRatio="none" width="100%" height="100%" overflow="visible" style="display: block;" viewBox="0 0 112.61 122.016" fill="none" xmlns="http://www.w3.org/2000/svg">
<g id="Group">
<path id="Vector" d="M55.4742 2.73688e-07C34.2818 2.73688e-07 18.9069 9.03821 18.9069 20.1306C18.9069 31.2229 34.2818 40.2611 55.4742 40.2611C76.6665 40.2611 92.0414 32.4554 92.0414 20.1306C92.0414 7.80572 76.6665 2.73688e-07 55.4742 2.73688e-07ZM55.4742 37.7962C41.1381 37.7962 35.5284 29.5796 35.5284 20.1306C35.5284 10.6815 40.9304 2.46497 55.4742 2.46497C70.018 2.46497 75.4199 11.914 75.4199 20.1306C75.4199 28.3471 69.8102 37.7962 55.4742 37.7962Z" fill="var(--fill-0, black)"/>
<path id="Vector_2" d="M80.8219 52.7914H6.32884e-06C7.47967 56.8996 15.1671 60.8025 22.6468 64.9108C26.1788 63.8837 29.7109 62.8566 33.4507 61.8296C39.2682 61.8296 45.2935 61.8296 51.111 61.8296V122.016C55.4742 113.388 59.6295 104.556 63.9927 95.9283V62.035C80.1986 62.035 96.4045 62.035 112.61 62.035C105.546 57.3105 98.2745 52.3805 91.2103 47.656C87.6783 49.5047 84.1462 51.148 80.8219 52.9968V52.7914Z" fill="var(--fill-0, black)"/>
</g>
</svg>
