<svg preserveAspectRatio="none" width="100%" height="100%" overflow="visible" style="display: block;" viewBox="0 0 48 9" fill="none" xmlns="http://www.w3.org/2000/svg">
<g id="image 6346478 [Vectorized]" clip-path="url(#clip0_126_657)">
<path id="Vector" d="M0 0H2.84646C2.9666 0.189356 3.20325 0.486171 3.34666 0.686529L4.60988 2.44702C4.99238 2.97907 5.3719 3.51312 5.74842 4.0492C5.84154 4.17992 6.18865 4.68125 6.28202 4.76793C6.22882 4.15748 6.26358 3.01842 6.26374 2.37347L6.26431 0.797778C6.26442 0.569869 6.25322 0.220379 6.2667 0H9.25983L9.26156 6.04946L9.26208 7.96559C9.26255 8.24498 9.27837 8.71594 9.25861 8.97387C8.86029 8.94324 8.29906 8.95696 7.88686 8.95871C7.42908 8.96067 6.85608 8.94183 6.41337 8.97514C6.07029 8.58172 3.05693 4.24028 2.98934 4.20945C3.02107 5.76077 3.0075 7.41126 2.99709 8.96687C2.03809 8.95101 0.961406 8.9465 0 8.96227V0Z" fill="var(--fill-0, white)"/>
<path id="Vector_2" d="M39.2367 0H43.7032C43.9516 0.0557269 44.3109 0.0602029 44.5929 0.104613C45.5883 0.252036 46.5729 0.638551 47.1281 1.50474C47.5941 2.23167 47.6775 3.21876 47.4783 4.04483C47.2409 5.0295 46.5928 5.53505 45.6783 5.88591C45.9131 6.2041 47.9205 8.8863 48 8.92504V8.95215C47.6972 8.97362 47.2432 8.95994 46.9317 8.95981C46.2635 8.95757 45.5953 8.95894 44.9271 8.96395C44.4129 8.28684 43.9441 7.57716 43.4505 6.88573C43.3512 6.74663 43.2438 6.60124 43.1534 6.45744C42.8126 6.4556 42.4805 6.45286 42.1395 6.46578L42.139 8.97218C41.6866 8.94775 41.1738 8.95878 40.7173 8.95896C40.238 8.95919 39.7179 8.94853 39.2435 8.96999C39.2238 8.62485 39.2351 8.20807 39.2348 7.85575V5.90279L39.2367 0ZM42.0973 4.17308C42.567 4.17331 43.9064 4.27753 44.2301 3.96547C44.2582 3.93845 44.284 3.90894 44.3084 3.87891C44.6913 3.60419 44.6974 3.00914 44.4263 2.65689C44.2359 2.40977 43.9045 2.29044 43.5947 2.28302C43.0971 2.27107 42.5963 2.28042 42.0984 2.2842C42.109 2.87651 42.1172 3.58102 42.0973 4.17308Z" fill="var(--fill-0, white)"/>
<path id="Vector_3" d="M13.8112 0H17.0716C17.3334 0.581787 17.577 1.22372 17.8179 1.81617L19.2687 5.435C19.7287 6.59721 20.2705 7.80179 20.694 8.96824C20.0061 8.93971 19.269 8.97209 18.5779 8.96168C18.3247 8.95785 17.8683 8.98027 17.6369 8.94901C17.5242 8.86354 17.212 7.9529 17.1896 7.79218C16.0999 7.76265 14.7982 7.77794 13.7039 7.79225C13.6298 8.07352 13.4087 8.69951 13.2803 8.96573C12.2621 8.94627 11.212 8.9612 10.1902 8.9586C11.1433 6.45323 12.2286 3.97668 13.2002 1.47662C13.3859 0.99877 13.58 0.453983 13.8112 0ZM14.4362 5.61914C14.6844 5.59834 15.1397 5.61313 15.4035 5.61431L16.4542 5.61021C16.3015 5.27325 15.5162 2.95289 15.4239 2.86141C15.3613 3.13389 15.2358 3.44586 15.1376 3.71201L14.6372 5.05684C14.571 5.23597 14.4856 5.43728 14.4362 5.61914Z" fill="var(--fill-0, white)"/>
<path id="Vector_4" d="M30.5154 0H37.7072L37.7107 2.19384C36.7416 2.17007 35.756 2.20125 34.7848 2.18926C34.3598 2.18402 33.8981 2.17705 33.4755 2.19986C33.4713 2.53925 33.4589 3.07322 33.4948 3.40043L37.6641 3.39961C37.6833 4.11637 37.6484 4.84401 37.6795 5.56287C37.0966 5.54029 36.4399 5.55341 35.8526 5.5533C35.0602 5.5494 34.2677 5.55156 33.4755 5.55979C33.472 5.96112 33.4716 6.36248 33.4744 6.76383C34.8893 6.78771 36.3865 6.76759 37.8061 6.76344L37.8066 8.96065L33.2836 8.95837C32.4366 8.9583 31.3427 8.9262 30.5154 8.96769C30.4861 7.99421 30.5138 6.88008 30.5138 5.89732L30.5154 0Z" fill="var(--fill-0, white)"/>
<path id="Vector_5" d="M19.1097 0H22.1793C22.2214 0.163536 22.3052 0.339567 22.3661 0.500783C22.4884 0.824575 22.6198 1.14773 22.7359 1.47373C23.2574 2.94218 23.7926 4.40599 24.3415 5.86502C24.7762 4.62614 25.2255 3.39216 25.6898 2.16335C25.9629 1.43146 26.2052 0.723062 26.5017 0H29.5835C29.5458 0.0864219 29.5029 0.230154 29.4605 0.333451L28.7972 1.98351L26.921 6.64143L26.2924 8.18651C26.193 8.43031 26.0834 8.74456 25.9683 8.9699C24.9148 8.92198 23.7708 8.99086 22.7178 8.96311C22.544 8.65736 22.3302 8.05575 22.1881 7.70446L21.1269 5.05969C20.6809 3.97627 20.2414 2.89034 19.8083 1.80196C19.6217 1.34144 19.2364 0.463728 19.1097 0Z" fill="var(--fill-0, white)"/>
</g>
<defs>
<clipPath id="clip0_126_657">
<rect width="48" height="9" fill="white"/>
</clipPath>
</defs>
</svg>
