<svg preserveAspectRatio="none" width="100%" height="100%" overflow="visible" style="display: block;" viewBox="0 0 6.2 384.349" fill="none" xmlns="http://www.w3.org/2000/svg">
<g id="Group">
<path id="Vector" d="M2.6 384.344L3.1 9.72021C2.3 9.91858 5.2 385.931 2.7 384.344H2.6Z" fill="var(--fill-0, black)"/>
<g id="Group_2">
<path id="Vector_2" d="M3.1 0V14.7786C3 13.5884 2.6 11.6047 1.4 9.72018C1 8.9267 0.5 8.33158 0 7.93484C0.6 7.24054 1.3 6.24869 1.9 4.95928C2.8 2.97557 3 1.19023 3.1 0.0991855V0Z" fill="var(--fill-0, black)"/>
<path id="Vector_3" d="M3.1 0.198253V14.9769C3.2 13.7867 3.6 11.803 4.8 9.91844C5.2 9.12495 5.7 8.52984 6.2 8.1331C5.6 7.4388 4.9 6.44694 4.3 5.15753C3.4 3.17382 3.2 1.38848 3.1 0.297438V0.198253Z" fill="var(--fill-0, black)"/>
</g>
</g>
</svg>
