<svg preserveAspectRatio="none" width="100%" height="100%" overflow="visible" style="display: block;" viewBox="0 0 545 75" fill="none" xmlns="http://www.w3.org/2000/svg">
<g id="_&#235;&#160;&#136;&#236;&#157;&#180;&#236;&#150;&#180;_1" clip-path="url(#clip0_126_626)">
<path id="Vector" d="M14.2985 73.1353H0V0H22.173L35.4354 57.3895L48.6977 0H70.6635V73.1353H56.365V23.6188C56.365 22.1685 56.365 20.3039 56.365 17.6105C56.365 15.1243 56.365 13.0525 56.365 11.6022L42.481 72.9282H27.5608L14.0913 11.8094C14.0913 13.2597 14.0913 15.1243 14.0913 17.8177C14.0913 20.3039 14.0913 22.3757 14.0913 23.826V73.3425L14.2985 73.1353Z" fill="var(--fill-0, white)"/>
<path id="Vector_2" d="M135.732 41.2293H100.297V60.0829H140.705V73.1354H85.3764V0H139.048V12.8453H100.297V28.384H135.732V41.0221V41.2293Z" fill="var(--fill-0, white)"/>
<path id="Vector_3" d="M195.413 58.011H168.473L163.5 72.9282H147.544L173.447 0H190.646L216.549 73.1354H199.971L195.205 58.2182L195.413 58.011ZM191.061 45.3729L181.943 16.5746L172.618 45.3729H191.061Z" fill="var(--fill-0, white)"/>
<path id="Vector_4" d="M225.875 0H241.209V59.8757H277.473V72.9282H226.082V0H225.875Z" fill="var(--fill-0, white)"/>
<path id="Vector_5" d="M333.424 0V12.8453H311.458V72.9282H296.124V12.8453H274.158V0H333.424Z" fill="var(--fill-0, white)"/>
<path id="Vector_6" d="M385.644 44.9586V0H401.186V44.9586C401.186 52.6243 399.943 58.8398 397.663 63.1906C393.105 71.0635 384.608 75 371.968 75C359.327 75 350.624 71.0635 346.272 63.1906C343.785 58.8398 342.749 52.8315 342.749 44.9586V0H358.291V44.9586C358.291 49.9309 358.913 53.6602 360.156 55.9392C362.021 60.0829 365.958 62.1547 372.175 62.1547C378.392 62.1547 382.329 60.0829 384.194 55.9392C385.437 53.6602 386.059 49.9309 386.059 44.9586H385.644Z" fill="var(--fill-0, white)"/>
<path id="Vector_7" d="M474.958 73.1354H459.624L429.783 21.1326V73.1354H415.485V0H431.441L460.452 50.9668V0H474.751V73.1354H474.958Z" fill="var(--fill-0, white)"/>
<path id="Vector_8" d="M540.027 41.2293H504.591V60.0829H545V73.1354H489.671V0H543.342V12.8453H504.591V28.384H540.027V41.0221V41.2293Z" fill="var(--fill-0, white)"/>
</g>
<defs>
<clipPath id="clip0_126_626">
<rect width="545" height="75" fill="white"/>
</clipPath>
</defs>
</svg>
