<svg preserveAspectRatio="xMidYMid meet" width="100%" height="100%" overflow="visible" style="display: block;" viewBox="0 0 399 278" fill="none" xmlns="http://www.w3.org/2000/svg">
<g id="Group">
<g id="Group_2">
<path id="Vector" d="M167.18 110.35H130.609C123.083 110.35 116.973 104.239 116.973 96.7111V31.7942H123.614V96.7111C123.614 100.519 126.713 103.708 130.609 103.708H167.18V110.35Z" fill="var(--fill-0, white)"/>
<path id="Vector_2" d="M123.614 31.7942H116.973C116.973 24.2663 123.083 18.1555 130.609 18.1555H155.58V24.7977H130.609C126.802 24.7977 123.614 27.8974 123.614 31.7942Z" fill="var(--fill-0, white)"/>
<path id="Vector_3" d="M167.18 18.1555H155.58V24.7977H167.18V18.1555Z" fill="var(--fill-0, white)"/>
</g>
<path id="Vector_4" d="M187.546 41.0048V8.14782C187.546 3.63109 191.176 0 195.692 0H231.732C236.248 0 239.878 3.63109 239.878 8.14782V86.0835C239.878 90.6002 236.248 94.2313 231.732 94.2313H195.692C191.176 94.2313 187.546 90.6002 187.546 86.0835V71.382H194.187V86.0835C194.187 86.8805 194.807 87.589 195.692 87.589H231.732C232.529 87.589 233.237 86.9691 233.237 86.0835V8.14782C233.237 7.35075 232.617 6.64224 231.732 6.64224H195.692C194.895 6.64224 194.187 7.26219 194.187 8.14782V41.0048" fill="var(--fill-0, white)"/>
<g id="Group_3">
<path id="Vector_5" d="M135.745 221.231H112.899C104.399 221.231 97.4035 215.651 97.4035 208.832V151.886H104.045V208.832C104.045 211.932 108.118 214.5 112.811 214.5H135.656V221.142L135.745 221.231Z" fill="var(--fill-0, white)"/>
<path id="Vector_6" d="M104.133 151.886H97.492C97.492 145.067 103.602 139.487 111.128 139.487H136.099V146.129H111.128C107.321 146.129 104.133 148.698 104.133 151.797V151.886Z" fill="var(--fill-0, white)"/>
</g>
<path id="Vector_7" d="M314.879 257.808H304.873V251.077H314.79C318.067 251.077 321.254 249.748 323.557 247.446C325.947 245.054 327.187 241.955 327.187 238.589H333.828C333.828 243.726 331.88 248.508 328.25 252.14C324.619 255.771 319.838 257.719 314.79 257.719L314.879 257.808Z" fill="var(--fill-0, white)"/>
<path id="Vector_8" d="M327.276 215.563C327.276 213.88 326.921 212.286 326.302 210.781C325.593 209.275 324.796 208.212 324.354 207.681C322.583 205.555 320.546 203.43 318.598 201.393C315.144 197.762 311.868 194.396 310.097 190.942C309.743 190.234 309.212 189.171 308.946 187.754C308.415 184.566 309.477 181.997 310.274 180.138V179.872C311.16 178.101 312.134 176.507 313.374 175.09L327.276 158.882L332.323 163.222L318.421 179.429C317.624 180.403 317.004 181.378 316.473 182.529L316.296 182.795C315.676 184.212 315.144 185.363 315.41 186.603C315.499 187.134 315.676 187.488 315.853 187.843C317.27 190.5 320.192 193.511 323.291 196.788C325.328 198.913 327.453 201.127 329.401 203.43C330.375 204.581 331.437 206.087 332.323 208.212C333.297 210.515 333.828 212.906 333.828 215.474H327.187L327.276 215.563Z" fill="var(--fill-0, white)"/>
<path id="Vector_9" d="M333.917 215.12H327.276V238.678H333.917V215.12Z" fill="var(--fill-0, white)"/>
<path id="Vector_10" d="M332.323 163.311L327.276 158.882C330.198 155.517 334.271 153.303 338.61 152.683L339.584 159.325C336.75 159.768 334.182 161.185 332.234 163.311H332.323Z" fill="var(--fill-0, white)"/>
<path id="Vector_11" d="M370.487 152.594H338.787V159.237H370.487V152.594Z" fill="var(--fill-0, white)"/>
<path id="Vector_12" d="M57.6451 179.075H15.3189C6.90679 179.075 0 172.964 0 165.436V146.572H6.64115V165.436C6.64115 169.244 10.5373 172.433 15.2304 172.433H57.6451C62.4268 172.433 66.2344 169.333 66.2344 165.436V140.461H72.8755V165.436C72.8755 172.964 66.0573 179.075 57.5566 179.075H57.6451Z" fill="var(--fill-0, white)"/>
<g id="Group_4">
<path id="Vector_13" d="M152.127 225.216L145.485 224.862C145.485 224.242 145.485 223.268 145.043 222.382C144.777 221.851 144.6 221.585 144.334 221.408C144.334 221.408 144.157 221.408 144.069 221.32H135.745V214.589H144.688C144.688 214.677 144.954 214.766 144.954 214.766C145.928 214.943 146.814 215.209 147.699 215.74C149.736 216.891 150.533 218.663 150.975 219.46C151.861 221.231 152.304 223.268 152.127 225.305V225.216Z" fill="var(--fill-0, white)"/>
<path id="Vector_14" d="M184.889 278H174.529V271.358H184.889C188.697 271.358 191.885 268.258 191.885 264.361V238.766C192.062 237.969 192.416 237.172 192.77 236.464C193.921 234.427 195.692 233.541 196.578 233.098C198.172 232.301 199.943 231.947 201.714 231.947V238.589C200.828 238.589 200.12 238.766 199.5 239.032C198.969 239.298 198.703 239.475 198.526 239.652V264.184C198.526 271.712 192.416 277.823 184.889 277.823V278Z" fill="var(--fill-0, white)"/>
<path id="Vector_15" d="M174.529 278H159.122C151.595 278 145.485 271.889 145.485 264.361V225.128H152.126V264.361C152.126 268.169 155.226 271.358 159.122 271.358H174.529V278Z" fill="var(--fill-0, white)"/>
</g>
<path id="Vector_16" d="M66.2344 103.973C66.2344 103.088 65.9687 102.202 65.6145 101.405C65.1718 100.608 64.729 100.076 64.2863 99.6336C62.9581 98.2166 61.3642 96.7996 59.8589 95.4712C57.1138 92.9914 54.5459 90.6888 53.0406 88.2975C52.6864 87.7662 52.2437 86.8805 51.978 85.7292C51.4467 83.0723 52.5093 81.0354 53.1292 79.7069V79.5298C53.8375 78.2899 54.723 77.05 55.7856 76.0758L66.5 65.2711L71.1931 69.965L60.4787 80.7697C59.9474 81.301 59.5047 81.921 59.1505 82.5409V82.7181C58.7077 83.338 58.3535 84.0465 58.4421 84.3122C58.4421 84.4008 58.4421 84.4893 58.6192 84.6665C59.5932 86.2606 61.8955 88.3861 64.1977 90.4231C65.7916 91.8401 67.474 93.3456 68.9794 94.9398C69.4221 95.4712 70.5732 96.6225 71.4587 98.3938C72.3442 100.076 72.7869 101.936 72.7869 103.796H66.1458L66.2344 103.973Z" fill="var(--fill-0, white)"/>
<path id="Vector_17" d="M71.3702 69.965L66.6771 65.1825C69.0679 62.8799 72.2557 61.2858 75.7976 60.8429L76.6831 67.4852C74.6465 67.7509 72.6984 68.6365 71.3702 69.965Z" fill="var(--fill-0, white)"/>
<path id="Vector_18" d="M187.723 60.8429H109.712V67.4852H187.723V60.8429Z" fill="var(--fill-0, white)"/>
<path id="Vector_19" d="M72.8755 103.619H66.2344V140.461H72.8755V103.619Z" fill="var(--fill-0, white)"/>
<path id="Vector_20" d="M194.276 71.4705H187.634C187.634 70.762 187.634 69.965 187.103 68.9908C186.483 67.7509 185.421 67.1309 184.801 66.8652L187.634 60.8429C188.963 61.4629 191.442 62.8799 193.036 65.891C193.921 67.5738 194.453 69.5221 194.364 71.4705H194.276Z" fill="var(--fill-0, white)"/>
<path id="Vector_21" d="M258.473 257.808C257.145 257.808 255.905 257.542 254.666 257.099C253.692 256.745 250.327 255.151 248.91 251.697C248.644 251.077 248.556 250.545 248.202 247.711C248.113 246.826 248.025 246.294 247.936 245.94C247.848 245.232 247.848 245.232 247.759 245.054C247.67 244.612 247.405 243.549 247.051 243.283H232.086V236.641H247.848C248.999 236.818 250.061 237.261 250.947 237.881C253.16 239.475 253.869 242.043 254.223 243.283C254.4 243.903 254.4 244.257 254.489 245.054C254.489 245.409 254.577 246.029 254.754 246.826C254.931 247.977 255.02 248.951 255.109 249.394C255.551 250.191 256.525 250.723 257.057 250.9C257.588 251.077 258.119 251.165 258.739 251.165L259.182 257.808C258.916 257.808 258.739 257.808 258.473 257.808Z" fill="var(--fill-0, white)"/>
<path id="Vector_22" d="M265.026 201.658H253.603C246.077 201.658 239.967 195.548 239.967 188.02V163.045H246.608V188.02C246.608 191.828 249.707 195.016 253.603 195.016H265.026V201.658Z" fill="var(--fill-0, white)"/>
<g id="Group_5">
<path id="Vector_23" d="M194.1 152.978L187.459 153.001L187.691 219.424L194.332 219.4L194.1 152.978Z" fill="var(--fill-0, white)"/>
<path id="Vector_24" d="M190.999 228.227C188.874 225.748 187.723 222.648 187.723 219.46H194.364C194.364 221.054 194.984 222.648 196.047 223.888L190.999 228.227Z" fill="var(--fill-0, white)"/>
<path id="Vector_25" d="M195.611 223.342L190.882 228.006L201.949 239.231L206.678 234.567L195.611 223.342Z" fill="var(--fill-0, white)"/>
<path id="Vector_26" d="M210.214 243.106C207.027 242.84 203.927 241.423 201.714 239.209L206.407 234.427C207.558 235.578 209.152 236.287 210.746 236.464L210.214 243.106Z" fill="var(--fill-0, white)"/>
<path id="Vector_27" d="M210.004 236.296L209.958 242.938L231.917 243.092L231.964 236.45L210.004 236.296Z" fill="var(--fill-0, white)"/>
</g>
<path id="Vector_28" d="M275.475 201.658H262.015V195.016H275.475C279.282 195.016 282.47 191.917 282.47 188.02V111.235H289.111V188.02C289.111 195.548 283.001 201.658 275.475 201.658Z" fill="var(--fill-0, white)"/>
<path id="Vector_29" d="M304.873 251.165H257.588V257.808H304.873V251.165Z" fill="var(--fill-0, white)"/>
<path id="Vector_30" d="M109.712 60.8429H75.7091V67.4852H109.712V60.8429Z" fill="var(--fill-0, white)"/>
<path id="Vector_31" d="M246.608 122.926H239.967V163.045H246.608V122.926Z" fill="var(--fill-0, white)"/>
<path id="Vector_32" d="M289.111 92.1943H282.47V111.235H289.111V92.1943Z" fill="var(--fill-0, white)"/>
<path id="Vector_33" d="M368.982 123.723H360.924C355.788 123.723 351.538 119.56 351.538 114.335V102.999C351.538 97.8624 355.7 93.6113 360.924 93.6113H368.982C374.118 93.6113 378.368 97.7738 378.368 102.999V114.335H371.727V102.999C371.727 101.493 370.487 100.342 369.071 100.342H361.013C359.507 100.342 358.356 101.582 358.356 102.999V114.335C358.356 115.841 359.596 116.992 361.013 116.992H369.071V123.634L368.982 123.723Z" fill="var(--fill-0, white)"/>
<path id="Vector_34" d="M378.28 113.715H371.638V153.303H378.28V113.715Z" fill="var(--fill-0, white)"/>
<path id="Vector_35" d="M370.399 159.325L368.097 153.037C370.045 152.329 371.727 151.089 372.701 149.495L378.368 153.126C376.597 155.96 373.764 158.174 370.399 159.414V159.325Z" fill="var(--fill-0, white)"/>
<path id="Vector_36" d="M399 117.081H368.982V123.723H399V117.081Z" fill="var(--fill-0, white)"/>
</g>
</svg>
