<svg preserveAspectRatio="xMidYMid meet" width="100%" height="100%" overflow="visible" style="display: block;" viewBox="0 0 122.999 122.837" fill="none" xmlns="http://www.w3.org/2000/svg">
<g id="Group">
<path id="Vector" d="M46.5401 65.9378L40.7226 56.078C42.8003 51.148 44.878 45.6019 46.5401 39.6449C50.9032 24.8551 52.7732 11.2978 53.1887 0H30.9575C34.6973 1.84872 38.2294 3.49203 41.9692 5.34076C39.0605 24.2388 34.4896 39.4394 30.7497 49.9156C28.2565 57.105 25.3477 64.7053 20.1535 74.1544C16.2059 81.1384 9.97288 90.9983 0 101.064C7.27189 97.777 19.9458 90.5875 30.1264 76.4139C34.2818 70.4569 37.1905 64.7053 39.2682 59.7754C41.9692 63.062 44.6702 66.7595 47.579 70.6623C49.2411 72.9219 51.9421 76.8248 54.8508 81.7547C57.5518 86.4792 61.0839 92.847 64.4082 101.064C61.915 89.355 59.4218 77.6464 56.9285 65.9378C53.6042 65.9378 50.0722 65.9378 46.7479 66.1432L46.5401 65.9378Z" fill="var(--fill-0, black)"/>
<path id="Vector_2" d="M95.3657 54.6401C95.1579 54.6401 94.9501 54.6401 94.7423 54.6401V3.28662C97.6511 2.25955 100.56 1.23248 103.469 1.34022e-07H81.653C81.653 40.8774 81.653 81.7547 81.653 122.837C86.0161 114.21 90.3792 105.377 94.5346 96.7499C94.5346 83.6034 94.3268 70.2515 94.1191 57.105C103.676 57.105 113.234 57.105 122.999 57.105C115.935 53.2022 108.871 49.0939 102.014 45.191L95.3657 54.6401Z" fill="var(--fill-0, black)"/>
</g>
</svg>
