<svg preserveAspectRatio="none" width="100%" height="100%" overflow="visible" style="display: block;" viewBox="0 0 130.894 114.621" fill="none" xmlns="http://www.w3.org/2000/svg">
<g id="Group">
<path id="Vector" d="M66.4859 75.1815C45.2935 75.1815 29.9187 84.0142 29.9187 94.9012C29.9187 105.788 45.2935 114.621 66.4859 114.621C87.6783 114.621 103.053 106.815 103.053 94.9012C103.053 82.9872 87.6783 75.1815 66.4859 75.1815ZM66.4859 112.156C52.1499 112.156 46.5401 104.145 46.5401 94.9012C46.5401 85.6576 51.9421 77.6464 66.4859 77.6464C81.0297 77.6464 86.4317 86.89 86.4317 94.9012C86.4317 102.912 80.8219 112.156 66.4859 112.156Z" fill="var(--fill-0, black)"/>
<path id="Vector_2" d="M102.638 55.0509C101.599 55.0509 100.768 55.0509 99.7288 55.0509V5.75159C103.469 4.5191 107.208 3.28662 110.741 2.05414C102.845 2.05414 94.7424 2.05414 86.8472 2.05414V82.7818C91.2103 74.3598 95.3657 65.9378 99.7288 57.3105C110.117 57.3105 120.506 57.3105 130.894 57.3105C123.83 53.4076 116.558 49.5047 109.494 45.6019L102.638 54.8455V55.0509Z" fill="var(--fill-0, black)"/>
<path id="Vector_3" d="M26.1788 4.51911C17.4525 3.08121 8.72627 1.4379 0 0C8.10297 4.92993 16.2059 9.85986 24.3089 14.7898V75.3869C28.672 69.6353 32.8274 63.6783 37.1905 57.9267C48.6178 57.9267 60.0451 57.9267 71.4723 57.7213V4.51911C56.3052 4.51911 41.1381 4.51911 25.9711 4.51911H26.1788ZM58.5907 54.2293H37.3983V8.83279H58.5907V54.2293Z" fill="var(--fill-0, black)"/>
</g>
</svg>
