<svg preserveAspectRatio="none" width="100%" height="100%" overflow="visible" style="display: block;" viewBox="0 0 78 31" fill="none" xmlns="http://www.w3.org/2000/svg">
<g id="image 6346476 [Vectorized]">
<path id="Vector" d="M48.2629 4.77923C49.8415 4.79878 51.5954 4.76274 53.1329 4.77816C55.9109 4.80607 57.3917 4.37883 57.2043 7.83368C57.1141 9.50261 57.3102 11.526 57.1514 13.2243C57.1194 13.5637 56.9457 13.9053 56.726 14.1549C56.1699 14.6588 55.6001 14.7068 54.8784 14.702C54.3444 14.6985 53.8017 14.7025 53.267 14.7023L48.2625 14.7059L48.2629 4.77923ZM50.4117 12.7835L53.1904 12.7898C53.6021 12.7904 54.6743 12.8462 54.9877 12.6786C55.1439 12.1726 55.0094 8.15113 55.0471 7.35124C55.0506 7.27477 55.0049 6.92495 54.9637 6.84283C54.9348 6.78495 54.8765 6.76835 54.8102 6.76075C54.3456 6.70753 53.7857 6.72784 53.3154 6.72914L50.4437 6.73525C50.3984 6.88189 50.4227 8.1304 50.4189 8.36962C50.3946 9.82093 50.4524 11.3372 50.4117 12.7835Z" fill="var(--fill-0, white)"/>
<path id="Vector_2" d="M60.9988 4.78816C61.7975 4.75739 62.7013 4.77873 63.5125 4.77896L67.9723 4.77637L67.9731 14.6966L65.7736 14.7047L65.7744 11.7491C65.7782 11.682 65.7702 11.62 65.7645 11.5531C65.6552 11.5061 61.6314 11.5336 61.1687 11.5343L61.1725 14.6996L59.0008 14.7037C59.0423 11.9512 58.9094 9.08017 59.0652 6.33045C59.1265 5.24965 60.0154 4.87009 60.9988 4.78816ZM61.1786 9.62649C62.6377 9.61626 64.0963 9.61485 65.5554 9.62222L65.7356 9.61592C65.8117 9.52173 65.7733 7.03135 65.7786 6.71551C64.3911 6.76586 62.8372 6.73582 61.4379 6.73215C61.3591 6.76922 61.2475 6.80794 61.2334 6.90613C61.1409 7.56652 61.1473 8.96992 61.1786 9.62649Z" fill="var(--fill-0, white)"/>
<path id="Vector_3" d="M5.59364 4.77587L7.77376 4.77694L7.77041 8.66954L10.6833 8.66332C11.1267 8.66301 11.9771 8.64205 12.3808 8.69271L12.3828 4.77614L14.5524 4.78095C14.5529 5.68949 14.5777 14.6236 14.5264 14.6952L14.3679 14.6998L12.378 14.7014C12.3983 13.3462 12.3806 11.9412 12.3813 10.5821C11.412 10.6018 10.4426 10.6112 9.47308 10.6105C9.04888 10.6117 8.16871 10.6342 7.77681 10.5815L7.77094 13.1571C7.77033 13.6004 7.75456 14.2745 7.79501 14.7008L5.59444 14.702L5.59364 4.77587Z" fill="var(--fill-0, white)"/>
<path id="Vector_4" d="M37.3676 4.78713C38.1697 4.75346 39.152 4.77797 39.97 4.77843L43.9108 4.7745C45.8913 4.78393 46.3982 5.50945 46.3453 7.44722C46.3293 8.02992 46.3464 8.69199 46.3464 9.28084L46.3373 14.6968L44.1671 14.701L44.1679 8.83805C44.1637 8.42158 44.2494 7.09839 44.0624 6.83294C43.6472 6.63526 40.2725 6.73479 39.5385 6.72005C39.5698 9.36219 39.4985 12.0687 39.5652 14.6987L37.3743 14.7035C37.378 11.432 37.4163 8.0503 37.3676 4.78713Z" fill="var(--fill-0, white)"/>
<path id="Vector_5" d="M26.5091 4.77488C27.2092 4.79126 27.9729 4.77621 28.678 4.77621C28.6199 6.60224 28.707 8.47812 28.6677 10.3088C28.6505 11.1112 28.6431 11.9867 28.6721 12.7872C29.3721 12.7789 32.7662 12.8403 33.1788 12.7025C33.329 12.5448 33.2979 11.3828 33.2948 11.1157C33.2705 9.00714 33.3248 6.88525 33.29 4.77805L35.4577 4.77873C35.44 5.34334 35.455 5.98625 35.455 6.55696L35.4566 10.9563C35.4569 11.8684 35.6328 13.4993 34.9601 14.1612C34.1995 14.9095 32.5149 14.6993 31.4819 14.6995L26.5073 14.7013C26.5464 11.4262 26.5063 8.05622 26.5091 4.77488Z" fill="var(--fill-0, white)"/>
<path id="Vector_6" d="M23.1588 4.7782L25.7351 4.77419C25.4816 5.20979 25.1439 5.69866 24.8672 6.1272C24.4295 6.81572 23.9877 7.50162 23.5418 8.18476C23.1881 8.75196 21.9287 10.5805 21.7414 11.0516C21.6402 11.3059 21.6782 14.2745 21.7003 14.6978L19.3526 14.7039L19.354 11.0195C18.4417 9.51566 17.3614 8.00865 16.4367 6.49931C16.1413 6.01705 15.5719 5.25607 15.3426 4.78679C16.1596 4.76365 17.0527 4.78026 17.8755 4.77957C18.1179 5.09282 18.577 5.89897 18.7993 6.26578L20.5362 9.14202C21.3305 7.72286 22.3073 6.18542 23.1588 4.7782Z" fill="var(--fill-0, white)"/>
<path id="Vector_7" d="M70.112 4.78347C70.8741 4.76644 71.6758 4.7756 72.4402 4.77377L72.4429 14.6997L70.1166 14.7028C70.093 11.4129 70.1638 8.0634 70.112 4.78347Z" fill="var(--fill-0, white)"/>
</g>
</svg>
