<svg preserveAspectRatio="none" width="100%" height="100%" overflow="visible" style="display: block;" viewBox="0 0 100.144 119.14" fill="none" xmlns="http://www.w3.org/2000/svg">
<g id="Group">
<path id="Vector" d="M86.6395 109.486C68.9791 109.486 51.3188 109.486 33.8663 109.691C33.8663 99.0094 33.8663 88.3279 33.8663 77.6464C36.3595 75.7977 38.645 73.9489 41.1382 71.8948C35.1129 71.8948 29.0876 71.8948 23.0623 71.8948C23.0623 87.7117 23.0623 103.323 23.0623 119.14C48.8256 119.14 74.3811 119.14 100.144 119.14C95.7813 115.853 91.2104 112.567 86.8472 109.28L86.6395 109.486Z" fill="var(--fill-0, black)"/>
<path id="Vector_2" d="M78.952 53.2022C79.3676 53.2022 79.7831 53.2022 79.9909 53.2022V6.57321C77.2899 5.54614 74.5889 4.31366 71.8879 3.28659C78.952 3.28659 85.8084 3.28659 92.8725 3.28659C92.8725 22.3901 92.6647 41.4936 92.457 60.3916C88.3016 69.2244 84.1462 78.0572 79.9909 86.6846V55.4617C70.8491 55.4617 61.7073 55.4617 52.5654 55.4617C59.214 51.3534 66.0704 47.2452 72.719 43.1369C74.7967 46.4235 76.6666 49.7101 78.7442 52.9967L78.952 53.2022Z" fill="var(--fill-0, black)"/>
<path id="Vector_3" d="M36.3595 47.656C43.0081 55.0509 49.6567 62.2404 56.3053 69.6353C54.2276 63.4728 52.1499 57.5158 50.0722 51.3534L40.5149 48.8885L38.0217 45.8073C41.1382 42.3152 44.4625 38.2069 47.7868 33.4824C51.7344 27.9363 55.0587 22.3901 57.5519 17.4601H2.57839e-05C5.60977 20.9522 11.0118 24.4442 16.6215 27.9363C19.5303 26.7038 22.2313 25.2659 25.14 24.0334C30.9575 24.0334 36.775 24.0334 42.5926 24.0334C40.7226 26.7038 37.8139 31.0175 34.6973 35.5366C33.243 37.5907 31.5808 39.6448 29.7109 42.1098C26.8022 45.8073 24.3089 48.4776 22.2312 50.5318C14.5438 58.5429 5.19424 67.5811 2.70102 69.8407C6.85639 68.4028 12.0506 66.3486 17.4526 63.2674C19.3225 62.2404 24.1012 59.3646 28.4643 55.8725C28.8798 55.4617 29.2954 55.0509 29.7109 54.8455C31.5808 53.2021 33.8663 50.7372 36.3595 47.8614V47.656Z" fill="var(--fill-0, black)"/>
<path id="Vector_4" d="M47.3712 0C36.1517 0 24.9322 0 13.7128 0C22.0235 3.28662 30.1264 6.77866 38.4372 10.0653" fill="var(--fill-0, black)"/>
</g>
</svg>
