<svg preserveAspectRatio="xMidYMid meet" width="100%" height="100%" overflow="visible" style="display: block;" viewBox="0 0 105.339 121.81" fill="none" xmlns="http://www.w3.org/2000/svg">
<g id="Group">
<path id="Vector" d="M43.4236 0.410829C28.0487 0.410829 16.8292 13.7627 16.8292 30.4012C16.8292 47.0398 28.0487 60.3917 43.4236 60.3917C58.7985 60.3917 70.018 48.6831 70.018 30.4012C70.018 12.1194 58.7985 0.410829 43.4236 0.410829ZM43.4236 56.4888C32.8274 56.4888 28.8798 44.3694 28.8798 30.4012C28.8798 16.4331 32.8274 4.31369 43.4236 4.31369C54.0198 4.31369 57.9674 18.2818 57.9674 30.4012C57.9674 42.5207 53.812 56.4888 43.4236 56.4888Z" fill="var(--fill-0, black)"/>
<path id="Vector_2" d="M81.653 80.3168C54.4353 80.3168 27.2177 80.3168 0 80.3168C6.85636 84.4251 13.9205 88.7388 20.7768 92.847C24.3089 91.82 27.6332 90.7929 31.1653 89.7658C47.9945 89.7658 64.8238 89.7658 81.653 89.7658V121.81C85.8084 113.183 90.1715 104.556 94.3268 96.1337C94.3268 65.3216 94.3268 34.7149 94.3268 3.90287C98.0667 2.67038 101.599 1.23248 105.339 0C97.4434 0 89.3404 7.80531e-07 81.4452 0.205415V80.1114L81.653 80.3168Z" fill="var(--fill-0, black)"/>
</g>
</svg>
