<svg preserveAspectRatio="none" width="100%" height="100%" overflow="visible" style="display: block;" viewBox="0 0 22.4913 22.4951" fill="none" xmlns="http://www.w3.org/2000/svg">
<g id="Group">
<path id="Vector" d="M11.2457 19.9267C6.46405 19.9267 2.47934 16.03 2.47934 11.159C2.47934 6.288 6.3755 2.39122 11.2457 2.39122C16.1158 2.39122 20.012 6.288 20.012 11.159C20.012 16.03 16.1158 19.9267 11.2457 19.9267Z" fill="var(--fill-0, #00FF00)"/>
<path id="Vector_2" d="M11.2457 4.95955C14.6991 4.95955 17.4441 7.79357 17.4441 11.159C17.4441 14.5244 14.6105 17.3584 11.2457 17.3584C7.88084 17.3584 5.04728 14.5244 5.04728 11.159C5.04728 7.79357 7.88084 4.95955 11.2457 4.95955ZM11.2457 0C5.04728 0 0 5.04812 0 11.2475C0 17.447 5.04728 22.4951 11.2457 22.4951C17.4441 22.4951 22.4913 17.447 22.4913 11.2475C22.4913 5.04812 17.4441 0 11.2457 0Z" fill="var(--fill-0, white)"/>
</g>
</svg>
