<svg preserveAspectRatio="none" width="100%" height="100%" overflow="visible" style="display: block;" viewBox="0 0 27.045 27.315" fill="none" xmlns="http://www.w3.org/2000/svg">
<path id="&#226;&#134;&#146;" d="M10.35 27.315C10.62 24.705 11.385 22.38 12.645 20.34C13.935 18.3 15.765 16.83 18.135 15.93V15.84L0 15.885V11.43L18.135 11.475V11.385C15.765 10.485 13.935 9.015 12.645 6.975C11.385 4.935 10.62 2.61 10.35 0H14.985C15.195 2.19 15.795 4.155 16.785 5.895C17.805 7.635 19.185 9.015 20.925 10.035C22.665 11.055 24.705 11.58 27.045 11.61V15.705C24.705 15.735 22.665 16.26 20.925 17.28C19.185 18.3 17.805 19.68 16.785 21.42C15.795 23.16 15.195 25.125 14.985 27.315H10.35Z" fill="#252327"/>
</svg>
