<svg preserveAspectRatio="none" width="100%" height="100%" overflow="visible" style="display: block;" viewBox="0 0 247.483 186.166" fill="none" xmlns="http://www.w3.org/2000/svg">
<path id="Vector 22788" d="M243.708 186.044C243.917 186.225 244.233 186.203 244.413 185.994L247.361 182.594C247.542 182.385 247.52 182.069 247.311 181.888C247.102 181.708 246.787 181.73 246.606 181.939L243.985 184.961L240.963 182.341C240.754 182.16 240.439 182.182 240.258 182.391C240.077 182.6 240.099 182.916 240.308 183.096L243.708 186.044ZM0.035672 0.916484C0.0725745 1.41512 0.0728574 1.4151 0.0735546 1.41505C0.0743403 1.41499 0.0754515 1.41491 0.0770203 1.41479C0.0801578 1.41457 0.0849477 1.41422 0.091381 1.41376C0.104248 1.41283 0.123687 1.41145 0.149627 1.40964C0.201508 1.40602 0.279388 1.40071 0.382685 1.39397C0.589279 1.38049 0.897534 1.36129 1.30277 1.33855C2.11326 1.29306 3.31166 1.23338 4.86056 1.17681C7.95841 1.06368 12.458 0.963024 18.0602 1.01328C29.2652 1.11379 44.8773 1.81798 62.5035 4.23246C97.7701 9.06337 141.033 20.7322 173.212 48.0469L173.536 47.6657L173.859 47.2845C141.467 19.7885 97.9798 8.08275 62.6392 3.24171C44.9619 0.820226 29.3062 0.114115 18.0692 0.0133166C12.4504 -0.0370855 7.93548 0.0638514 4.82407 0.177478C3.26834 0.234292 2.06342 0.29428 1.24674 0.340117C0.838396 0.363035 0.527109 0.382415 0.317556 0.396092C0.21278 0.402931 0.133436 0.408343 0.0801104 0.412059C0.0534474 0.413918 0.0332888 0.415351 0.0197076 0.416327C0.012917 0.416815 0.00777078 0.417189 0.00427805 0.417443C0.00253176 0.417571 0.00115442 0.417672 0.000280194 0.417736C-0.00068238 0.417807 -0.00123057 0.417847 0.035672 0.916484ZM173.536 47.6657L173.212 48.0469C205.408 75.3763 222.992 109.788 232.527 137.383C237.294 151.179 240.047 163.265 241.608 171.9C242.389 176.218 242.871 179.672 243.158 182.045C243.302 183.231 243.397 184.147 243.456 184.766C243.485 185.075 243.505 185.31 243.518 185.467C243.525 185.546 243.53 185.605 243.533 185.644C243.534 185.664 243.535 185.679 243.536 185.688C243.536 185.693 243.537 185.697 243.537 185.699C243.537 185.7 243.537 185.701 243.537 185.701C243.537 185.702 243.537 185.702 244.036 185.666C244.534 185.631 244.534 185.63 244.534 185.63C244.534 185.629 244.534 185.628 244.534 185.626C244.534 185.624 244.534 185.619 244.533 185.614C244.532 185.604 244.531 185.588 244.53 185.567C244.526 185.526 244.522 185.465 244.515 185.385C244.502 185.224 244.481 184.985 244.451 184.671C244.392 184.045 244.296 183.12 244.151 181.925C243.862 179.534 243.377 176.061 242.592 171.723C241.024 163.047 238.259 150.91 233.473 137.057C223.9 109.354 206.234 74.7659 173.859 47.2845L173.536 47.6657Z" fill="var(--stroke-0, black)"/>
</svg>
