<svg preserveAspectRatio="none" width="100%" height="100%" overflow="visible" style="display: block;" viewBox="0 0 525 110" fill="none" xmlns="http://www.w3.org/2000/svg">
<g id="image 32 [Vectorized]">
<path id="Vector" d="M186.263 18.8111C191.51 18.4062 196.755 19.6067 201.303 22.2532C205.665 24.7464 209.193 28.4741 211.443 32.9679C213.671 37.36 217.302 52.5256 218.762 57.9836L231.982 107.263C221.314 107.128 210.385 107.249 199.695 107.249C198.495 102.36 197.039 97.0751 195.673 92.2256C193.91 94.4087 192.228 96.4344 190.132 98.3274C175.479 111.562 154.785 112.924 138.615 101.782C138.429 101.636 138.244 101.487 138.062 101.335C132.236 96.4915 127.898 90.2328 127.282 82.5926C125.864 64.9895 142.384 52.8369 158.517 51.7174C169.68 50.9426 178.914 53.9213 187.38 60.9803C184.905 52.8213 182.574 43.2 180.327 34.8715L139.401 34.8605C144.92 32.5562 153.812 29.5282 159.569 27.4505C166.241 25.0421 179.938 19.4475 186.263 18.8111ZM177.513 96.299C186.25 95.1708 192.437 87.1985 191.362 78.4528C190.288 69.7072 182.356 63.47 173.606 64.491C164.78 65.5208 158.478 73.5392 159.562 82.361C160.645 91.1828 168.7 97.4367 177.513 96.299Z" fill="var(--fill-0, #C01A20)"/>
<path id="Vector_2" d="M275.061 32.1636C280.37 29.5538 285.928 27.0267 291.298 24.5374C295.897 22.4053 302.311 18.7501 307.322 18.737C311.621 18.7456 315.743 20.4544 318.786 23.4906C324.249 28.9418 323.488 34.9187 323.49 42.0262L323.493 55.931L323.495 107.304C320.419 107.092 315.467 107.234 312.288 107.235L291.226 107.261L291.242 44.5513C291.244 44.4913 291.244 44.431 291.244 44.371C291.313 39.4008 288.891 34.8731 283.349 34.859C281.206 34.8633 279.155 35.7233 277.65 37.2482C274.569 40.3413 275.294 44.5667 275.292 48.639V61.5192L275.31 107.289C265.012 106.982 253.38 107.24 242.981 107.24C243.155 98.9441 243.006 90.0531 243.008 81.6977L242.986 34.8718L220.962 34.8679L240.24 25.8477C245.189 23.5344 252.678 19.5422 257.722 18.7907C266.635 18.2916 273.113 23.5712 275.061 32.1636Z" fill="var(--fill-0, #C01A20)"/>
<path id="Vector_3" d="M380.789 110C377.449 109.543 374.829 109.369 371.468 108.567C361.322 106.07 352.342 100.164 346.028 91.8385C338.74 82.2313 335.569 70.1203 337.215 58.1733C338.861 46.1533 345.218 35.2808 354.883 27.9497C364.557 20.6399 376.749 17.4919 388.754 19.2034C400.725 20.8758 411.535 27.259 418.785 36.9362C426.055 46.6059 429.18 58.7713 427.473 70.749C425.765 82.7395 419.362 93.5587 409.672 100.823C403.958 105.133 397.29 108.006 390.235 109.199C388.446 109.515 385.672 109.682 384.188 110H380.789ZM390.735 103.507C397.034 102.563 401.179 97.8564 399.851 91.4574C399.056 87.6192 397.934 83.7887 396.921 80.0026L391.204 58.6869L386.424 40.8095C385.565 37.6046 384.709 33.7572 383.491 30.7156C382.155 27.3813 377.469 24.7878 373.96 25.2251C371.081 25.5875 368.912 26.5038 366.951 28.7097C362.786 33.399 365.249 39.0403 366.634 44.2174L370.927 60.2903L377.408 84.4821C378.741 89.4526 379.992 98.0623 384.083 101.384C385.962 102.91 388.344 103.453 390.735 103.507Z" fill="var(--fill-0, #C01A20)"/>
<path id="Vector_4" d="M63.1977 0H73.4921C77.1255 0.662231 81.4088 0.692723 85.5453 1.4646C103.067 4.73426 118.394 12.7937 128.712 27.6977C129.108 28.2723 129.491 28.8567 129.86 29.4503C115.464 37.95 100.239 46.8277 85.6614 54.9833L109.093 17.4503C98.7231 11.1414 87.1372 9.15 75.2793 12.0327C63.8424 14.8147 53.9891 22.0489 47.9075 32.1287C41.8998 42.1582 40.0856 54.1518 42.8583 65.51C45.6665 76.911 52.8932 86.7264 62.9446 92.7921C72.9594 98.8544 84.9757 100.678 96.3375 97.86C108.116 94.938 114.68 89.1062 122.022 80.2313C122.598 82.3885 123.161 84.6069 123.776 86.748C110.497 102.051 92.7658 108.393 72.8976 109.746C72.2044 109.794 70.814 109.851 70.2026 110H65.179C64.3989 109.827 62.9687 109.746 62.1559 109.705C36.2704 108.396 9.60335 95.0236 1.9166 68.6205C0.948284 65.2946 0.523506 62.0344 0 58.5923V51.3515C0.451951 49.1105 0.628224 46.8813 1.1406 44.4677C2.57314 37.9854 5.27705 31.8515 9.09581 26.4215C20.1603 10.5445 38.8677 2.73582 57.5993 0.619885C59.4581 0.409915 61.3632 0.327926 63.1977 0Z" fill="var(--fill-0, #C01A20)"/>
<path id="Vector_5" d="M476.653 32.1136L493.162 24.3712C496.499 22.8058 502.193 19.9131 505.518 19.1795C509.681 18.25 514.041 19.0002 517.653 21.2671C522.083 24.1024 523.908 27.9697 525 32.9003V107.24L492.769 107.256L492.79 63.2546L492.803 49.9831C492.803 47.0641 492.916 44.0695 492.526 41.1797C492.041 37.5713 488.404 34.8697 484.856 34.8656C482.736 34.8677 480.703 35.7115 479.203 37.2123C477.983 38.451 477.194 40.051 476.958 41.7738C476.666 43.7538 476.784 47.571 476.796 49.7277L476.83 62.0054L476.827 107.315C466.868 106.927 454.748 107.246 444.627 107.255C444.568 104.286 444.584 101.212 444.615 98.2349C444.838 77.1518 444.294 55.9472 444.663 34.8759L422.51 34.8654C430.051 31.6464 437.942 27.4354 445.507 24.1167C449.093 22.5437 453.194 20.2347 456.922 19.2468C460.949 18.2114 465.222 18.8108 468.811 20.9143C473.331 23.5505 475.361 27.24 476.653 32.1136Z" fill="var(--fill-0, #C01A20)"/>
</g>
</svg>
